%TF.GenerationSoftware,Flux,Pcbnew,7.0.11-7.0.11~ubuntu20.04.1*%
%TF.CreationDate,2025-02-07T02:19:33+00:00*%
%TF.ProjectId,input,696e7075-742e-46b6-9963-61645f706362,rev?*%
%TF.SameCoordinates,Original*%
%TF.FileFunction,Copper,L1,Top*%
%TF.FilePolarity,Positive*%
%FSLAX46Y46*%
G04 Gerber Fmt 4.6, Leading zero omitted, Abs format (unit mm)*
G04 Filename: imu-plus-motor-driver-2*
G04 Build it with Flux! Visit our site at: https://www.flux.ai (PCBNEW 7.0.11-7.0.11~ubuntu20.04.1) date 2025-02-07 02:19:33*
%MOMM*%
%LPD*%
G01*
G04 APERTURE LIST*
G04 Aperture macros list*
%AMFreePoly0*
4,1,129,0.022069,0.299187,0.036723,0.297744,0.051289,0.295583,0.065730,0.292711,0.080014,0.289133,0.094105,0.284858,0.107969,0.279898,0.121572,0.274263,0.134883,0.267967,0.147869,0.261026,0.160499,0.253456,0.172742,0.245275,0.184569,0.236504,0.195952,0.227163,0.206862,0.217274,0.217274,0.206862,0.227163,0.195952,0.236504,0.184569,0.245275,0.172742,0.253456,0.160499,
0.261026,0.147869,0.267967,0.134883,0.274263,0.121572,0.279898,0.107969,0.284858,0.094105,0.289133,0.080014,0.292711,0.065730,0.295583,0.051289,0.297744,0.036723,0.299187,0.022069,0.299910,0.007362,0.299910,-0.007362,0.299187,-0.022069,0.297744,-0.036723,0.295583,-0.051289,0.292711,-0.065730,0.289133,-0.080014,0.284858,-0.094105,0.279898,-0.107969,0.274263,-0.121572,
0.267967,-0.134883,0.261026,-0.147869,0.253456,-0.160499,0.245275,-0.172742,0.236504,-0.184569,0.227163,-0.195952,0.217274,-0.206862,0.206862,-0.217274,0.195952,-0.227163,0.184569,-0.236504,0.172742,-0.245275,0.160499,-0.253456,0.147869,-0.261026,0.134883,-0.267967,0.121572,-0.274263,0.107969,-0.279898,0.094105,-0.284858,0.080014,-0.289133,0.065730,-0.292711,0.051289,-0.295583,
0.036723,-0.297744,0.022069,-0.299187,0.007362,-0.299910,-0.007362,-0.299910,-0.022069,-0.299187,-0.036723,-0.297744,-0.051289,-0.295583,-0.065730,-0.292711,-0.080014,-0.289133,-0.094105,-0.284858,-0.107969,-0.279898,-0.121572,-0.274263,-0.134883,-0.267967,-0.147869,-0.261026,-0.160499,-0.253456,-0.172742,-0.245275,-0.184569,-0.236504,-0.195952,-0.227163,-0.206862,-0.217274,-0.217274,-0.206862,
-0.227163,-0.195952,-0.236504,-0.184569,-0.245275,-0.172742,-0.253456,-0.160499,-0.261026,-0.147869,-0.267967,-0.134883,-0.274263,-0.121572,-0.279898,-0.107969,-0.284858,-0.094105,-0.289133,-0.080014,-0.292711,-0.065730,-0.295583,-0.051289,-0.297744,-0.036723,-0.299187,-0.022069,-0.299910,-0.007362,-0.299910,0.007362,-0.299187,0.022069,-0.297744,0.036723,-0.295583,0.051289,-0.292711,0.065730,
-0.289133,0.080014,-0.284858,0.094105,-0.279898,0.107969,-0.274263,0.121572,-0.267967,0.134883,-0.261026,0.147869,-0.253456,0.160499,-0.245275,0.172742,-0.236504,0.184569,-0.227163,0.195952,-0.217274,0.206862,-0.206862,0.217274,-0.195952,0.227163,-0.184569,0.236504,-0.172742,0.245275,-0.160499,0.253456,-0.147869,0.261026,-0.134883,0.267967,-0.121572,0.274263,-0.107969,0.279898,
-0.094105,0.284858,-0.080014,0.289133,-0.065730,0.292711,-0.051289,0.295583,-0.036723,0.297744,-0.022069,0.299187,-0.007362,0.299910,0.007362,0.299910,0.022069,0.299187,0.022069,0.299187,$1*%
%AMFreePoly1*
4,1,101,0.414367,0.699775,0.421205,0.699102,0.427984,0.697982,0.434676,0.696422,0.441251,0.694428,0.447682,0.692007,0.453940,0.689172,0.460000,0.685933,0.465835,0.682304,0.471420,0.678302,0.476731,0.673943,0.481746,0.669246,0.486443,0.664231,0.490802,0.658920,0.494804,0.653335,0.498433,0.647500,0.501672,0.641440,0.504507,0.635182,0.506928,0.628751,0.508922,0.622176,
0.510482,0.615484,0.511602,0.608705,0.512275,0.601867,0.512500,0.595000,0.512500,-0.595000,0.512275,-0.601867,0.511602,-0.608705,0.510482,-0.615484,0.508922,-0.622176,0.506928,-0.628751,0.504507,-0.635182,0.501672,-0.641440,0.498433,-0.647500,0.494804,-0.653335,0.490802,-0.658920,0.486443,-0.664231,0.481746,-0.669246,0.476731,-0.673943,0.471420,-0.678302,0.465835,-0.682304,
0.460000,-0.685933,0.453940,-0.689172,0.447682,-0.692007,0.441251,-0.694428,0.434676,-0.696422,0.427984,-0.697982,0.421205,-0.699102,0.414367,-0.699775,0.407500,-0.700000,-0.407500,-0.700000,-0.414367,-0.699775,-0.421205,-0.699102,-0.427984,-0.697982,-0.434676,-0.696422,-0.441251,-0.694428,-0.447682,-0.692007,-0.453940,-0.689172,-0.460000,-0.685933,-0.465835,-0.682304,-0.471420,-0.678302,
-0.476731,-0.673943,-0.481746,-0.669246,-0.486443,-0.664231,-0.490802,-0.658920,-0.494804,-0.653335,-0.498433,-0.647500,-0.501672,-0.641440,-0.504507,-0.635182,-0.506928,-0.628751,-0.508922,-0.622176,-0.510482,-0.615484,-0.511602,-0.608705,-0.512275,-0.601867,-0.512500,-0.595000,-0.512500,0.595000,-0.512275,0.601867,-0.511602,0.608705,-0.510482,0.615484,-0.508922,0.622176,-0.506928,0.628751,
-0.504507,0.635182,-0.501672,0.641440,-0.498433,0.647500,-0.494804,0.653335,-0.490802,0.658920,-0.486443,0.664231,-0.481746,0.669246,-0.476731,0.673943,-0.471420,0.678302,-0.465835,0.682304,-0.460000,0.685933,-0.453940,0.689172,-0.447682,0.692007,-0.441251,0.694428,-0.434676,0.696422,-0.427984,0.697982,-0.421205,0.699102,-0.414367,0.699775,-0.407500,0.700000,0.407500,0.700000,
0.414367,0.699775,0.414367,0.699775,$1*%
%AMFreePoly2*
4,1,5,0.377800,-0.685000,-0.377800,-0.685000,-0.377800,0.685000,0.377800,0.685000,0.377800,-0.685000,0.377800,-0.685000,$1*%
%AMFreePoly3*
4,1,101,0.398409,0.724767,0.405488,0.724070,0.412506,0.722911,0.419434,0.721296,0.426240,0.719231,0.432898,0.716726,0.439377,0.713790,0.445650,0.710437,0.451690,0.706681,0.457472,0.702538,0.462971,0.698025,0.468163,0.693163,0.473025,0.687971,0.477538,0.682472,0.481681,0.676690,0.485437,0.670650,0.488790,0.664377,0.491726,0.657898,0.494231,0.651240,0.496296,0.644434,
0.497911,0.637506,0.499070,0.630488,0.499767,0.623409,0.500000,0.616300,0.500000,-0.616300,0.499767,-0.623409,0.499070,-0.630488,0.497911,-0.637506,0.496296,-0.644434,0.494231,-0.651240,0.491726,-0.657898,0.488790,-0.664377,0.485437,-0.670650,0.481681,-0.676690,0.477538,-0.682472,0.473025,-0.687971,0.468163,-0.693163,0.462971,-0.698025,0.457472,-0.702538,0.451690,-0.706681,
0.445650,-0.710437,0.439377,-0.713790,0.432898,-0.716726,0.426240,-0.719231,0.419434,-0.721296,0.412506,-0.722911,0.405488,-0.724070,0.398409,-0.724767,0.391300,-0.725000,-0.391300,-0.725000,-0.398409,-0.724767,-0.405488,-0.724070,-0.412506,-0.722911,-0.419434,-0.721296,-0.426240,-0.719231,-0.432898,-0.716726,-0.439377,-0.713790,-0.445650,-0.710437,-0.451690,-0.706681,-0.457472,-0.702538,
-0.462971,-0.698025,-0.468163,-0.693163,-0.473025,-0.687971,-0.477538,-0.682472,-0.481681,-0.676690,-0.485437,-0.670650,-0.488790,-0.664377,-0.491726,-0.657898,-0.494231,-0.651240,-0.496296,-0.644434,-0.497911,-0.637506,-0.499070,-0.630488,-0.499767,-0.623409,-0.500000,-0.616300,-0.500000,0.616300,-0.499767,0.623409,-0.499070,0.630488,-0.497911,0.637506,-0.496296,0.644434,-0.494231,0.651240,
-0.491726,0.657898,-0.488790,0.664377,-0.485437,0.670650,-0.481681,0.676690,-0.477538,0.682472,-0.473025,0.687971,-0.468163,0.693163,-0.462971,0.698025,-0.457472,0.702538,-0.451690,0.706681,-0.445650,0.710437,-0.439377,0.713790,-0.432898,0.716726,-0.426240,0.719231,-0.419434,0.721296,-0.412506,0.722911,-0.405488,0.724070,-0.398409,0.724767,-0.391300,0.725000,0.391300,0.725000,
0.398409,0.724767,0.398409,0.724767,$1*%
%AMFreePoly4*
4,1,101,0.389367,0.699775,0.396205,0.699102,0.402984,0.697982,0.409676,0.696422,0.416251,0.694428,0.422682,0.692007,0.428940,0.689172,0.435000,0.685933,0.440835,0.682304,0.446420,0.678302,0.451731,0.673943,0.456746,0.669246,0.461443,0.664231,0.465802,0.658920,0.469804,0.653335,0.473433,0.647500,0.476672,0.641440,0.479507,0.635182,0.481928,0.628751,0.483922,0.622176,
0.485482,0.615484,0.486602,0.608705,0.487275,0.601867,0.487500,0.595000,0.487500,-0.595000,0.487275,-0.601867,0.486602,-0.608705,0.485482,-0.615484,0.483922,-0.622176,0.481928,-0.628751,0.479507,-0.635182,0.476672,-0.641440,0.473433,-0.647500,0.469804,-0.653335,0.465802,-0.658920,0.461443,-0.664231,0.456746,-0.669246,0.451731,-0.673943,0.446420,-0.678302,0.440835,-0.682304,
0.435000,-0.685933,0.428940,-0.689172,0.422682,-0.692007,0.416251,-0.694428,0.409676,-0.696422,0.402984,-0.697982,0.396205,-0.699102,0.389367,-0.699775,0.382500,-0.700000,-0.382500,-0.700000,-0.389367,-0.699775,-0.396205,-0.699102,-0.402984,-0.697982,-0.409676,-0.696422,-0.416251,-0.694428,-0.422682,-0.692007,-0.428940,-0.689172,-0.435000,-0.685933,-0.440835,-0.682304,-0.446420,-0.678302,
-0.451731,-0.673943,-0.456746,-0.669246,-0.461443,-0.664231,-0.465802,-0.658920,-0.469804,-0.653335,-0.473433,-0.647500,-0.476672,-0.641440,-0.479507,-0.635182,-0.481928,-0.628751,-0.483922,-0.622176,-0.485482,-0.615484,-0.486602,-0.608705,-0.487275,-0.601867,-0.487500,-0.595000,-0.487500,0.595000,-0.487275,0.601867,-0.486602,0.608705,-0.485482,0.615484,-0.483922,0.622176,-0.481928,0.628751,
-0.479507,0.635182,-0.476672,0.641440,-0.473433,0.647500,-0.469804,0.653335,-0.465802,0.658920,-0.461443,0.664231,-0.456746,0.669246,-0.451731,0.673943,-0.446420,0.678302,-0.440835,0.682304,-0.435000,0.685933,-0.428940,0.689172,-0.422682,0.692007,-0.416251,0.694428,-0.409676,0.696422,-0.402984,0.697982,-0.396205,0.699102,-0.389367,0.699775,-0.382500,0.700000,0.382500,0.700000,
0.389367,0.699775,0.389367,0.699775,$1*%
%AMFreePoly5*
4,1,5,0.395000,-0.130000,-0.395000,-0.130000,-0.395000,0.130000,0.395000,0.130000,0.395000,-0.130000,0.395000,-0.130000,$1*%
%AMFreePoly6*
4,1,5,0.475000,-0.700000,-0.475000,-0.700000,-0.475000,0.700000,0.475000,0.700000,0.475000,-0.700000,0.475000,-0.700000,$1*%
%AMFreePoly7*
4,1,65,0.732057,0.890259,0.818682,0.873028,0.903201,0.847390,0.984800,0.813590,1.062692,0.771956,1.136129,0.722887,1.204403,0.666856,1.266856,0.604403,1.322887,0.536129,1.371956,0.462692,1.413590,0.384800,1.447390,0.303201,1.473028,0.218682,1.490259,0.132057,1.498916,0.044161,1.498916,-0.044161,1.490259,-0.132057,1.473028,-0.218682,1.447390,-0.303201,1.413590,-0.384800,
1.371956,-0.462692,1.322887,-0.536129,1.266856,-0.604403,1.204403,-0.666856,1.136129,-0.722887,1.062692,-0.771956,0.984800,-0.813590,0.903201,-0.847390,0.818682,-0.873028,0.732057,-0.890259,0.644161,-0.898916,-0.644161,-0.898916,-0.732057,-0.890259,-0.818682,-0.873028,-0.903201,-0.847390,-0.984800,-0.813590,-1.062692,-0.771956,-1.136129,-0.722887,-1.204403,-0.666856,-1.266856,-0.604403,
-1.322887,-0.536129,-1.371956,-0.462692,-1.413590,-0.384800,-1.447390,-0.303201,-1.473028,-0.218682,-1.490259,-0.132057,-1.498916,-0.044161,-1.498916,0.044161,-1.490259,0.132057,-1.473028,0.218682,-1.447390,0.303201,-1.413590,0.384800,-1.371956,0.462692,-1.322887,0.536129,-1.266856,0.604403,-1.204403,0.666856,-1.136129,0.722887,-1.062692,0.771956,-0.984800,0.813590,-0.903201,0.847390,
-0.818682,0.873028,-0.732057,0.890259,-0.644161,0.898916,0.644161,0.898916,0.732057,0.890259,0.732057,0.890259,$1*%
%AMFreePoly8*
4,1,5,1.500000,-0.900000,-1.500000,-0.900000,-1.500000,0.900000,1.500000,0.900000,1.500000,-0.900000,1.500000,-0.900000,$1*%
%AMFreePoly9*
4,1,5,0.800000,-0.800000,-0.800000,-0.800000,-0.800000,0.800000,0.800000,0.800000,0.800000,-0.800000,0.800000,-0.800000,$1*%
%AMFreePoly10*
4,1,101,0.477381,0.874719,0.485925,0.873878,0.494396,0.872479,0.502757,0.870529,0.510973,0.868037,0.519008,0.865013,0.526828,0.861470,0.534400,0.857423,0.541691,0.852889,0.548669,0.847888,0.555306,0.842441,0.561572,0.836572,0.567441,0.830306,0.572888,0.823669,0.577889,0.816691,0.582423,0.809400,0.586470,0.801828,0.590013,0.794008,0.593037,0.785973,0.595529,0.777757,
0.597479,0.769396,0.598878,0.760925,0.599719,0.752381,0.600000,0.743800,0.600000,-0.743800,0.599719,-0.752381,0.598878,-0.760925,0.597479,-0.769396,0.595529,-0.777757,0.593037,-0.785973,0.590013,-0.794008,0.586470,-0.801828,0.582423,-0.809400,0.577889,-0.816691,0.572888,-0.823669,0.567441,-0.830306,0.561572,-0.836572,0.555306,-0.842441,0.548669,-0.847888,0.541691,-0.852889,
0.534400,-0.857423,0.526828,-0.861470,0.519008,-0.865013,0.510973,-0.868037,0.502757,-0.870529,0.494396,-0.872479,0.485925,-0.873878,0.477381,-0.874719,0.468800,-0.875000,-0.468800,-0.875000,-0.477381,-0.874719,-0.485925,-0.873878,-0.494396,-0.872479,-0.502757,-0.870529,-0.510973,-0.868037,-0.519008,-0.865013,-0.526828,-0.861470,-0.534400,-0.857423,-0.541691,-0.852889,-0.548669,-0.847888,
-0.555306,-0.842441,-0.561572,-0.836572,-0.567441,-0.830306,-0.572888,-0.823669,-0.577889,-0.816691,-0.582423,-0.809400,-0.586470,-0.801828,-0.590013,-0.794008,-0.593037,-0.785973,-0.595529,-0.777757,-0.597479,-0.769396,-0.598878,-0.760925,-0.599719,-0.752381,-0.600000,-0.743800,-0.600000,0.743800,-0.599719,0.752381,-0.598878,0.760925,-0.597479,0.769396,-0.595529,0.777757,-0.593037,0.785973,
-0.590013,0.794008,-0.586470,0.801828,-0.582423,0.809400,-0.577889,0.816691,-0.572888,0.823669,-0.567441,0.830306,-0.561572,0.836572,-0.555306,0.842441,-0.548669,0.847888,-0.541691,0.852889,-0.534400,0.857423,-0.526828,0.861470,-0.519008,0.865013,-0.510973,0.868037,-0.502757,0.870529,-0.494396,0.872479,-0.485925,0.873878,-0.477381,0.874719,-0.468800,0.875000,0.468800,0.875000,
0.477381,0.874719,0.477381,0.874719,$1*%
%AMFreePoly11*
4,1,65,0.088038,0.868506,0.145788,0.857019,0.202134,0.839926,0.256533,0.817394,0.308462,0.789637,0.357420,0.756925,0.402935,0.719571,0.444571,0.677935,0.481925,0.632420,0.514637,0.583462,0.542394,0.531533,0.564926,0.477134,0.582019,0.420788,0.593506,0.363038,0.599277,0.304441,0.599277,-0.304441,0.593506,-0.363038,0.582019,-0.420788,0.564926,-0.477134,0.542394,-0.531533,
0.514637,-0.583462,0.481925,-0.632420,0.444571,-0.677935,0.402935,-0.719571,0.357420,-0.756925,0.308462,-0.789637,0.256533,-0.817394,0.202134,-0.839926,0.145788,-0.857019,0.088038,-0.868506,0.029441,-0.874277,-0.029441,-0.874277,-0.088038,-0.868506,-0.145788,-0.857019,-0.202134,-0.839926,-0.256533,-0.817394,-0.308462,-0.789637,-0.357420,-0.756925,-0.402935,-0.719571,-0.444571,-0.677935,
-0.481925,-0.632420,-0.514637,-0.583462,-0.542394,-0.531533,-0.564926,-0.477134,-0.582019,-0.420788,-0.593506,-0.363038,-0.599277,-0.304441,-0.599277,0.304441,-0.593506,0.363038,-0.582019,0.420788,-0.564926,0.477134,-0.542394,0.531533,-0.514637,0.583462,-0.481925,0.632420,-0.444571,0.677935,-0.402935,0.719571,-0.357420,0.756925,-0.308462,0.789637,-0.256533,0.817394,-0.202134,0.839926,
-0.145788,0.857019,-0.088038,0.868506,-0.029441,0.874277,0.029441,0.874277,0.088038,0.868506,0.088038,0.868506,$1*%
G04 Aperture macros list end*
%TA.AperFunction,ComponentPad*%
%ADD10FreePoly0,0.000000*%
%TD*%
%TA.AperFunction,SMDPad,CuDef*%
%ADD11FreePoly1,270.000000*%
%TD*%
%TA.AperFunction,SMDPad,CuDef*%
%ADD12FreePoly2,90.000000*%
%TD*%
%TA.AperFunction,SMDPad,CuDef*%
%ADD13FreePoly3,180.000000*%
%TD*%
%TA.AperFunction,SMDPad,CuDef*%
%ADD14FreePoly4,0.000000*%
%TD*%
%TA.AperFunction,SMDPad,CuDef*%
%ADD15FreePoly5,0.000000*%
%TD*%
%TA.AperFunction,SMDPad,CuDef*%
%ADD16FreePoly5,180.000000*%
%TD*%
%TA.AperFunction,SMDPad,CuDef*%
%ADD17FreePoly5,90.000000*%
%TD*%
%TA.AperFunction,SMDPad,CuDef*%
%ADD18FreePoly5,270.000000*%
%TD*%
%TA.AperFunction,SMDPad,CuDef*%
%ADD19FreePoly6,180.000000*%
%TD*%
%TA.AperFunction,ComponentPad*%
%ADD20FreePoly7,0.000000*%
%TD*%
%TA.AperFunction,ComponentPad*%
%ADD21FreePoly8,0.000000*%
%TD*%
%TA.AperFunction,SMDPad,CuDef*%
%ADD22FreePoly1,90.000000*%
%TD*%
%TA.AperFunction,SMDPad,CuDef*%
%ADD23FreePoly9,0.000000*%
%TD*%
%TA.AperFunction,ComponentPad*%
%ADD24FreePoly10,180.000000*%
%TD*%
%TA.AperFunction,ComponentPad*%
%ADD25FreePoly11,180.000000*%
%TD*%
%TA.AperFunction,Conductor*%
%ADD26C,0.150000*%
%TD*%
%TA.AperFunction,Conductor*%
%ADD27C,0.254000*%
%TD*%
%TA.AperFunction,Conductor*%
%ADD28C,0.781400*%
%TD*%
%TA.AperFunction,Conductor*%
%ADD29C,1.000000*%
%TD*%
%TA.AperFunction,Conductor*%
%ADD30C,0.300000*%
%TD*%
%TA.AperFunction,Conductor*%
%ADD31C,0.500000*%
%TD*%
G04 APERTURE END LIST*
D10*
%TO.P,,2879d660-2658-4832-ac5c-7af1d2914582.via.island.0*%
%TO.N,GND*%
X3428400Y5767700D03*
%TO.P,,2879d660-2658-4832-ac5c-7af1d2914582.via.island.1*%
X-3610900Y11642100D03*
%TO.P,,2879d660-2658-4832-ac5c-7af1d2914582.via.island.2*%
X-8298400Y6373800D03*
%TO.P,,2879d660-2658-4832-ac5c-7af1d2914582.via.island.3*%
X-798100Y11963600D03*
%TO.P,,2879d660-2658-4832-ac5c-7af1d2914582.via.island.4*%
X-8501200Y3833900D03*
%TO.P,,2879d660-2658-4832-ac5c-7af1d2914582.via.island.5*%
X-8394800Y-3738400D03*
%TO.P,,2879d660-2658-4832-ac5c-7af1d2914582.via.island.6*%
X-6197000Y10883400D03*
%TO.P,,2879d660-2658-4832-ac5c-7af1d2914582.via.island.7*%
X5695200Y-6602700D03*
%TO.P,,2879d660-2658-4832-ac5c-7af1d2914582.via.island.8*%
X-10146400Y-6615600D03*
%TO.P,,2879d660-2658-4832-ac5c-7af1d2914582.via.island.9*%
X5739500Y11761900D03*
%TO.P,,2879d660-2658-4832-ac5c-7af1d2914582.via.island.10*%
X4033400Y1293200D03*
%TO.P,,2879d660-2658-4832-ac5c-7af1d2914582.via.island.11*%
X3941400Y-3786300D03*
%TO.P,,50a0503b-35f6-4d98-9796-291507235c6f.throughHole.0-0*%
%TO.N,Net 10*%
X-8080400Y11750200D03*
%TO.P,,9b4cba6a-f6d1-43a8-b84e-405e94baeb49.throughHole.0-0*%
%TO.N,Net 22*%
X2379500Y-5746000D03*
%TO.P,,8e518140-808a-4d7d-87f2-214244d4575c.throughHole.0-0*%
%TO.N,Net 18*%
X-556900Y-5373700D03*
%TO.P,,afce4691-08ad-4f3b-b6b6-ff2e25a1addc.throughHole.0-0*%
%TO.N,Net 8*%
X3074300Y10754500D03*
%TO.P,,42bd975c-c38a-4bd3-b08f-fc2d75f61592.throughHole.0-0*%
%TO.N,Net 19*%
X-3819700Y-5398500D03*
%TO.P,,d6c34868-350d-487c-a120-8b3ea94a1bfc.throughHole.0-0*%
%TO.N,Net 14*%
X-7117900Y10898800D03*
%TO.P,,5579a2f5-bf88-4fe9-a7f0-9843aa196849.throughHole.0-0*%
%TO.N,Net 16*%
X1815000Y1694600D03*
%TO.P,,b23c2f75-fb64-488c-9996-4237e589b048.throughHole.0-0*%
%TO.N,Net 24*%
X-8030700Y-6140400D03*
%TO.P,,2ea3ef88-5f24-42b6-91d3-d2fee9787a9a.throughHole.0-0*%
%TO.N,GND*%
X-5652700Y-7218900D03*
%TO.P,,24227d66-1728-4007-8322-21b38ac3ae6a.throughHole.0-0*%
X-4103400Y7587700D03*
%TO.P,,ef5d4ddd-2daf-47e2-9060-2717122f1f51.throughHole.0-0*%
%TO.N,Net 1*%
X3624300Y12158200D03*
%TO.P,,9cc1a5d2-0bd6-4ae6-85ef-25bfbf1439c3.throughHole.0-0*%
X-2266700Y11864500D03*
%TO.P,,8ce3777b-e52d-4631-9bdf-0745aebe9555.throughHole.0-0*%
X-10100400Y12041900D03*
%TO.P,,61dfe82d-ac9d-49a2-9720-668e383ca142.throughHole.0-0*%
X3614000Y-6925100D03*
%TO.P,,32616413-0fb4-4da1-83cf-b8a3942dfa2b.throughHole.0-0*%
X-8030800Y-6990200D03*
%TO.P,,9d548815-cd83-4257-b9c8-03729dbdb276.throughHole.0-0*%
%TO.N,Net 9*%
X1815000Y12158200D03*
D11*
%TO.P,,P2*%
%TO.N,N/C*%
X-3238399Y8358600D03*
%TO.P,,P1*%
X-3238401Y10183600D03*
%TO.P,,P2*%
X-5352099Y7966000D03*
%TO.P,,P1*%
X-5352101Y9791000D03*
%TO.P,,P2*%
X-3145799Y2179800D03*
%TO.P,,P1*%
X-3145801Y4004800D03*
%TO.P,,P2*%
X865001Y7966000D03*
%TO.P,,P1*%
X864999Y9791000D03*
%TO.P,,P2*%
X-4954899Y2179800D03*
%TO.P,,P1*%
X-4954901Y4004800D03*
%TO.P,,P2*%
X-7117899Y7966000D03*
%TO.P,,P1*%
X-7117901Y9791000D03*
%TO.P,,P2*%
X2381601Y-6662300D03*
%TO.P,,P1*%
X2381599Y-4837300D03*
D12*
X-6829796Y-3271900D03*
%TO.P,,P2*%
X-6829804Y-1206300D03*
D11*
X2679401Y7966000D03*
%TO.P,,P1*%
X2679399Y9791000D03*
D12*
X-1238396Y2179800D03*
%TO.P,,P2*%
X-1238404Y4245400D03*
D13*
%TO.P,,P1*%
X415500Y-5398503D03*
%TO.P,,P2*%
X-1484500Y-5398497D03*
D14*
%TO.P,,K*%
X865000Y12158000D03*
%TO.P,,A*%
X2740000Y12158000D03*
D15*
%TO.P,,2*%
X-4204500Y-516400D03*
%TO.P,,3*%
X-4204500Y-1016400D03*
%TO.P,,4*%
X-4204500Y-1516400D03*
%TO.P,,5*%
X-4204500Y-2016400D03*
D16*
%TO.P,,14*%
X-264500Y-2016400D03*
%TO.P,,15*%
X-264500Y-1516400D03*
%TO.P,,16*%
X-264500Y-1016400D03*
%TO.P,,17*%
X-264500Y-516400D03*
D17*
%TO.P,,INT*%
X-984500Y-3236400D03*
D15*
%TO.P,,AUX_DA*%
X-4204500Y-2516400D03*
D16*
%TO.P,,GND*%
X-264500Y-16400D03*
D18*
%TO.P,,RESV*%
X-2484500Y703600D03*
%TO.P,,RESV@2*%
X-1984500Y703600D03*
D16*
%TO.P,,VDD*%
X-264500Y-2516400D03*
D17*
%TO.P,,AD0*%
X-2484500Y-3236400D03*
D15*
%TO.P,,CLKIN*%
X-4204500Y-16400D03*
D18*
%TO.P,,RESV@1*%
X-984500Y703600D03*
D17*
%TO.P,,REGOUT*%
X-1984500Y-3236400D03*
D18*
%TO.P,,SCL*%
X-2984500Y703600D03*
%TO.P,,CPOUT*%
X-1484500Y703600D03*
D17*
%TO.P,,AUX_CL*%
X-3484500Y-3236400D03*
%TO.P,,FSYNC*%
X-1484500Y-3236400D03*
D18*
%TO.P,,SDA*%
X-3484500Y703600D03*
D17*
%TO.P,,VLOGIC*%
X-2984500Y-3236400D03*
D11*
%TO.P,,P2*%
X-6602799Y-6627300D03*
%TO.P,,P1*%
X-6602801Y-4802300D03*
D13*
X-2888800Y-5398503D03*
%TO.P,,P2*%
X-4788800Y-5398497D03*
D19*
%TO.P,,K*%
X-5352100Y12157997D03*
%TO.P,,A*%
X-7252100Y12158003D03*
D11*
%TO.P,,P2*%
X2381601Y-3236400D03*
%TO.P,,P1*%
X2381599Y-1411400D03*
D20*
%TO.P,,5V*%
X5381600Y10183600D03*
%TO.P,,TOUCH6_GPIO6_SCL_A5_D5*%
X-9858400Y-2516400D03*
%TO.P,,3V3*%
X5381600Y5103600D03*
%TO.P,,TOUCH4_GPIO4_A3_D3*%
X-9858400Y2563600D03*
%TO.P,,D10_A10_MOSI_GPIO9_TOUCH9*%
X5381600Y2563600D03*
%TO.P,,D9_A9_MISO_GPIO8_TOUCH8*%
X5381600Y23600D03*
%TO.P,,D8_A8_SCK_GPIO7_TOUCH7*%
X5381600Y-2516400D03*
%TO.P,,GPIO43_TX_D6*%
X-9858400Y-5056400D03*
%TO.P,,D7_RX_GPIO44*%
X5381600Y-5056400D03*
%TO.P,,GND*%
X5381600Y7643600D03*
%TO.P,,TOUCH2_GPIO2_A1_D1*%
X-9858400Y7643600D03*
D21*
%TO.P,,TOUCH1_GPIO1_A0_D0*%
X-9858400Y10183600D03*
D20*
%TO.P,,TOUCH5_GPIO5_SDA_A4_D4*%
X-9858400Y23600D03*
%TO.P,,TOUCH3_GPIO3_A2_D2*%
X-9858400Y5103600D03*
D22*
%TO.P,,P2*%
X-1238403Y10183600D03*
%TO.P,,P1*%
X-1238397Y8358600D03*
D23*
%TO.P,,BAT +*%
X865000Y6250400D03*
%TO.P,,BAT -*%
X-5296200Y6250400D03*
%TD*%
D24*
%TO.P,,P1*%
%TO.N,N/C*%
X-3238400Y6585700D03*
D25*
%TO.P,,P2*%
X-1238400Y6585705D03*
%TD*%
D26*
%TO.N,Net 3*%
X-2984500Y703600D02*
X-2984500Y2018600D01*
X-3106500Y138800D02*
X-3078100Y138800D01*
X-9858400Y-2516400D02*
X-6944000Y398000D01*
X-3583300Y138800D02*
X-3639700Y138800D01*
X-3078100Y138800D02*
X-2984500Y232400D01*
X-6943900Y398000D02*
X-3898900Y398000D01*
X-2984500Y232400D02*
X-2984500Y703600D01*
X-3639700Y138800D02*
X-3898900Y398000D01*
X-2984500Y2018600D02*
X-3145700Y2179800D01*
X-3583300Y138800D02*
X-3106500Y138800D01*
D27*
%TO.N,Net 10*%
X-7252100Y12158000D02*
X-8080400Y11750200D01*
%TO.N,Net 11*%
X-5352100Y12158000D02*
X-5352100Y9791000D01*
X-5352100Y9791000D02*
X-5351900Y9791200D01*
%TO.N,Net 4*%
X2381800Y-3236200D02*
X2382000Y-3236000D01*
X3495000Y-2123000D02*
X2381800Y-3236200D01*
X3495000Y-1786800D02*
X3495000Y-2123000D01*
X5305400Y23600D02*
X3495000Y-1786800D01*
X5381600Y23600D02*
X5305400Y23600D01*
X2381700Y-3236400D02*
X-984500Y-3236400D01*
X-984500Y-3236400D02*
X-984300Y-3236200D01*
D26*
X2381600Y-3236400D02*
X2381800Y-3236200D01*
%TO.N,Net 22*%
X2379500Y-4839300D02*
X2381500Y-4837300D01*
X2379500Y-5746000D02*
X2379500Y-4839400D01*
X2381600Y-4837300D02*
X1891800Y-4837300D01*
D27*
%TO.N,Net 5*%
X-1484500Y703600D02*
X-1484500Y1933600D01*
X-1484500Y1933600D02*
X-1238300Y2179800D01*
D28*
%TO.N,Net 23*%
X-903000Y6250400D02*
X-902400Y6251000D01*
D29*
X-903000Y6250400D02*
X-1238400Y6585800D01*
D30*
X-1238400Y8358600D02*
X-1238400Y6585800D01*
X-1238400Y6585700D02*
X-1238200Y6585900D01*
D28*
X-903000Y6250400D02*
X-1238400Y6585800D01*
D30*
X-903000Y6250400D02*
X-1238400Y6585800D01*
D29*
X865000Y6250400D02*
X-903000Y6250400D01*
D27*
%TO.N,Net 8*%
X2679400Y9791000D02*
X2679400Y10506800D01*
X2679400Y10506700D02*
X3074300Y10754500D01*
%TO.N,Net 19*%
X5381600Y-2516400D02*
X5068600Y-2516400D01*
X5068600Y-2516400D02*
X5381600Y-2516400D01*
%TO.N,Net 7*%
X-1238400Y10183600D02*
X-1238200Y10183800D01*
X-3238400Y10183600D02*
X-4515200Y8906800D01*
X-8595200Y8906800D02*
X-9858400Y7643600D01*
X-3238400Y10183600D02*
X-1238400Y10183600D01*
X-4515100Y8906900D02*
X-8595100Y8906900D01*
D26*
%TO.N,Net 2*%
X-3484500Y703600D02*
X-4239500Y703600D01*
X-3484500Y703600D02*
X-7074900Y703600D01*
X-7754900Y23600D02*
X-9858400Y23600D01*
X-4239500Y703600D02*
X-4954900Y1419000D01*
X-7754900Y23600D02*
X-7074900Y703600D01*
X-4954900Y1419000D02*
X-4954900Y2179800D01*
D27*
%TO.N,Net 6*%
X-1984500Y-3236400D02*
X-1984500Y-3898000D01*
X-1984500Y-3884000D02*
X-1984500Y-3236400D01*
X-1984500Y-3898000D02*
X-2888800Y-4802300D01*
X-2888800Y-5398500D02*
X-2888800Y-4802300D01*
%TO.N,Net 14*%
X-7117900Y9791000D02*
X-7117900Y10898800D01*
D26*
%TO.N,Net 24*%
X-8030700Y-6140400D02*
X-8030700Y-5914500D01*
X-8030700Y-6038200D02*
X-8030700Y-6140400D01*
X-6602800Y-4802300D02*
X-6918500Y-4802300D01*
X-8030700Y-5914500D02*
X-6918500Y-4802300D01*
D28*
%TO.N,GND*%
X-6127800Y-7102300D02*
X-6602800Y-6627300D01*
X-5652700Y-7218900D02*
X-6127800Y-7102200D01*
D30*
%TO.N,Net 12*%
X865000Y12158000D02*
X865200Y12158200D01*
X865000Y9791000D02*
X865000Y12158000D01*
%TO.N,Net 1*%
X-4398700Y-3281200D02*
X-5530000Y-3281200D01*
D26*
X3624200Y6861000D02*
X5381600Y5103600D01*
D30*
X-262700Y-2514600D02*
X-264500Y-2516400D01*
D26*
X3101800Y-7437300D02*
X107800Y-7437300D01*
X-6820600Y-3281100D02*
X-6829800Y-3271900D01*
D30*
X-2540000Y4004800D02*
X-1958900Y3423700D01*
D31*
X415500Y-5398500D02*
X415500Y-5824500D01*
D26*
X-5604600Y-3507600D02*
X-5604600Y-3355800D01*
D30*
X-1958900Y3423700D02*
X2776600Y3423700D01*
X4456500Y5103600D02*
X2776600Y3423700D01*
X-5604600Y-6332700D02*
X-5114000Y-6823300D01*
X-5530000Y-3281200D02*
X-6820500Y-3281200D01*
D26*
X2381600Y-1411400D02*
X2381800Y-1411200D01*
D30*
X-2464100Y-2101300D02*
X-2984500Y-2621700D01*
X-5604600Y-3355800D02*
X-5530000Y-3281200D01*
X-264500Y-2516400D02*
X-859500Y-2516400D01*
X-3145800Y4004800D02*
X-3145600Y4005000D01*
X3043500Y3658100D02*
X3043500Y-749500D01*
X-5604600Y-5753700D02*
X-5604600Y-6332700D01*
X-583200Y-6823200D02*
X-544800Y-6784800D01*
D26*
X-2539900Y4004700D02*
X-1958900Y3423700D01*
D30*
X-5114100Y-6823300D02*
X-583300Y-6823300D01*
X-264500Y-2516400D02*
X439300Y-2516400D01*
X2381600Y-1411400D02*
X1706800Y-1411400D01*
X-3288700Y-3860100D02*
X-3819700Y-3860100D01*
X-1274600Y-2101300D02*
X-2464100Y-2101300D01*
D26*
X-2984500Y-3236400D02*
X-2984500Y-3705500D01*
X1706800Y-1411400D02*
X2381600Y-1411400D01*
D30*
X-2984500Y-3705500D02*
X-2984500Y-2621700D01*
X1706800Y-1411400D02*
X603600Y-2514600D01*
D31*
X4488900Y5103600D02*
X3043500Y3658200D01*
D30*
X-1274600Y-2101300D02*
X-859500Y-2516400D01*
X-262700Y-2514600D02*
X439200Y-2516400D01*
X-2984500Y-3236400D02*
X-2984500Y-2621700D01*
X-3145800Y4004800D02*
X-2540000Y4004800D01*
D26*
X-264500Y-2516400D02*
X265500Y-2516400D01*
X107800Y-7437400D02*
X-544800Y-6784800D01*
D30*
X603700Y-2514600D02*
X439200Y-2516400D01*
D26*
X-6820500Y-3281200D02*
X-5530000Y-3281200D01*
X-5530000Y-3507600D02*
X-5530000Y-3281200D01*
X-6829800Y-3271900D02*
X-5765700Y-3271900D01*
D30*
X-3139100Y-3860100D02*
X-2984500Y-3705500D01*
D26*
X-7490700Y-5988700D02*
X-7255700Y-5753700D01*
D31*
X5381600Y5103600D02*
X4488800Y5103600D01*
D26*
X3614000Y-6925100D02*
X3101800Y-7437300D01*
X5381600Y5103600D02*
X4456400Y5103600D01*
X3624300Y12158200D02*
X3624300Y6861000D01*
X-7490700Y-6450000D02*
X-7490700Y-5988600D01*
X-3145800Y4004800D02*
X-2540000Y4004800D01*
D30*
X-3139100Y-3860100D02*
X-3288700Y-3860100D01*
D26*
X-7255800Y-5753700D02*
X-5604600Y-5753700D01*
D30*
X-5604600Y-3507600D02*
X-5604600Y-5753700D01*
D26*
X4488800Y5103600D02*
X5381600Y5103600D01*
D30*
X-3145900Y4004800D02*
X-4954900Y4004800D01*
X-3819700Y-3860200D02*
X-4398700Y-3281200D01*
X3043400Y-749600D02*
X2381800Y-1411200D01*
D26*
X-8030800Y-6990200D02*
X-7490600Y-6450000D01*
X-5604600Y-3355800D02*
X-5530000Y-3281200D01*
D30*
X-3819600Y-3860100D02*
X-3819400Y-3859900D01*
D26*
X-2988500Y-3240400D02*
X-2984500Y-3236400D01*
X-3139100Y-3860100D02*
X-3819700Y-3860100D01*
D30*
X-5604600Y-3507600D02*
X-5604600Y-3355800D01*
D26*
X-3145800Y4004800D02*
X-2540000Y4004800D01*
X-2540000Y4004800D02*
X-2539800Y4005000D01*
D30*
X-6820500Y-3281200D02*
X-6829700Y-3271800D01*
X415500Y-5824500D02*
X-544700Y-6784700D01*
D26*
%TO.N,Net 9*%
X1815000Y12158200D02*
X2739800Y12158200D01*
X2739800Y12158200D02*
X2740000Y12158000D01*
%TD*%
%TA.AperFunction,Conductor*%
%TO.N,GND*%
G36*
X-5972400Y10401600D02*
G01*
X-6002400Y10395600D01*
X-6029400Y10386600D01*
X-6048400Y10377600D01*
X-6053400Y10374600D01*
X-6075400Y10359600D01*
X-6089400Y10346600D01*
X-6111400Y10321600D01*
X-6118400Y10313600D01*
X-6164400Y10255600D01*
X-6314400Y10259600D01*
X-6360400Y10324600D01*
X-6375400Y10341600D01*
X-6403400Y10363600D01*
X-6421400Y10377600D01*
X-6445400Y10388600D01*
X-6467400Y10395600D01*
X-6497400Y10401600D01*
X-6498400Y10402600D01*
X-6513400Y10403600D01*
X-6787400Y10403600D01*
X-6864400Y10588600D01*
X-6800400Y10652600D01*
X-6749400Y10741600D01*
X-6748400Y10742600D01*
X-6721400Y10842600D01*
X-6720400Y10846600D01*
X-6720400Y10946600D01*
X-6748400Y11051600D01*
X-6836400Y11208600D01*
X-6749400Y11357600D01*
X-6677400Y11357600D01*
X-6677400Y12906600D01*
X-6589400Y12994600D01*
X-6015400Y12994600D01*
X-5927400Y12906600D01*
X-5927400Y11357600D01*
X-5667400Y11357600D01*
X-5579400Y11269600D01*
X-5579400Y10491600D01*
X-5667400Y10403600D01*
X-5956400Y10403600D01*
X-5972400Y10401600D01*
G37*
%TD.AperFunction*%
%TA.AperFunction,Conductor*%
G36*
X4171600Y10976600D02*
G01*
X3984600Y10789600D01*
X3799600Y10866600D01*
X3799600Y11752600D01*
X3834600Y11818600D01*
X3863600Y11837600D01*
X3871600Y11843600D01*
X3940600Y11911600D01*
X3943600Y11915600D01*
X3992600Y12001600D01*
X3993600Y12003600D01*
X4021600Y12107600D01*
X4021600Y12207600D01*
X3993600Y12311600D01*
X3942600Y12401600D01*
X3940600Y12403600D01*
X3870600Y12475600D01*
X3779600Y12527600D01*
X3778600Y12528600D01*
X3675600Y12555600D01*
X3575600Y12555600D01*
X3445600Y12520600D01*
X3327600Y12610600D01*
X3327600Y12765600D01*
X3325600Y12778600D01*
X3324600Y12785600D01*
X3319600Y12810600D01*
X3304600Y12884600D01*
X3394600Y12994600D01*
X4633600Y12994600D01*
X4691600Y12993600D01*
X4693600Y12993600D01*
X4753600Y12990600D01*
X4756600Y12993600D01*
X4871600Y12979600D01*
X4873600Y12978600D01*
X4939600Y12968600D01*
X4941600Y12968600D01*
X5001600Y12958600D01*
X5004600Y12957600D01*
X5050600Y12947600D01*
X5053600Y12947600D01*
X5119600Y12930600D01*
X5120600Y12930600D01*
X5213600Y12904600D01*
X5216600Y12900600D01*
X5234600Y12894600D01*
X5236600Y12894600D01*
X5284600Y12877600D01*
X5286600Y12876600D01*
X5346600Y12852600D01*
X5348600Y12851600D01*
X5394600Y12831600D01*
X5396600Y12830600D01*
X5458600Y12801600D01*
X5460600Y12801600D01*
X5537600Y12762600D01*
X5540600Y12757600D01*
X5563600Y12744600D01*
X5565600Y12743600D01*
X5614600Y12714600D01*
X5616600Y12713600D01*
X5668600Y12679600D01*
X5671600Y12678600D01*
X5710600Y12650600D01*
X5711600Y12649600D01*
X5766600Y12609600D01*
X5769600Y12607600D01*
X5812600Y12572600D01*
X5813600Y12571600D01*
X5860600Y12532600D01*
X5862600Y12529600D01*
X5902600Y12493600D01*
X5904600Y12491600D01*
X5945600Y12451600D01*
X5947600Y12449600D01*
X5983600Y12412600D01*
X5984600Y12411600D01*
X6023600Y12368600D01*
X6026600Y12366600D01*
X6068600Y12315600D01*
X6069600Y12313600D01*
X6100600Y12275600D01*
X6101600Y12274600D01*
X6141600Y12220600D01*
X6142600Y12218600D01*
X6172600Y12176600D01*
X6174600Y12173600D01*
X6208600Y12118600D01*
X6209600Y12117600D01*
X6235600Y12073600D01*
X6236600Y12071600D01*
X6249600Y12048600D01*
X6254600Y12045600D01*
X6293600Y11968600D01*
X6293600Y11966600D01*
X6322600Y11904600D01*
X6323600Y11902600D01*
X6343600Y11857600D01*
X6344600Y11855600D01*
X6369600Y11792600D01*
X6370600Y11789600D01*
X6389600Y11736600D01*
X6390600Y11733600D01*
X6393600Y11723600D01*
X6396600Y11721600D01*
X6422600Y11628600D01*
X6422600Y11626600D01*
X6439600Y11560600D01*
X6439600Y11558600D01*
X6449600Y11513600D01*
X6450600Y11510600D01*
X6461600Y11444600D01*
X6461600Y11442600D01*
X6470600Y11380600D01*
X6471600Y11379600D01*
X6485600Y11264600D01*
X6483600Y11261600D01*
X6488600Y11207600D01*
X6368600Y11106600D01*
X6109600Y11175600D01*
X4653600Y11175600D01*
X4398600Y11106600D01*
X4171600Y10976600D01*
G37*
%TD.AperFunction*%
%TA.AperFunction,Conductor*%
G36*
X4171600Y816600D02*
G01*
X3988600Y633600D01*
X3858600Y406600D01*
X3789600Y151600D01*
X3789600Y-104400D01*
X3858600Y-359400D01*
X3988600Y-586400D01*
X4119600Y-717400D01*
X4119600Y-841400D01*
X3366600Y-1594400D01*
X3181600Y-1517400D01*
X3181600Y-997400D01*
X3204600Y-942400D01*
X3224600Y-922400D01*
X3238600Y-904400D01*
X3239600Y-903400D01*
X3246600Y-894400D01*
X3247600Y-892400D01*
X3259600Y-875400D01*
X3263600Y-868400D01*
X3267600Y-859400D01*
X3269600Y-852400D01*
X3281600Y-828400D01*
X3284600Y-818400D01*
X3284600Y-817400D01*
X3286600Y-810400D01*
X3290600Y-777400D01*
X3290600Y-775400D01*
X3293600Y-753400D01*
X3293600Y-737400D01*
X3294600Y-733400D01*
X3293600Y-722400D01*
X3293600Y3380600D01*
X3316600Y3435600D01*
X4139600Y4257600D01*
X4240600Y4270600D01*
X4398600Y4180600D01*
X4653600Y4111600D01*
X6109600Y4111600D01*
X6368600Y4181600D01*
X6486600Y4091600D01*
X6486600Y3575600D01*
X6368600Y3485600D01*
X6109600Y3555600D01*
X4653600Y3555600D01*
X4398600Y3486600D01*
X4171600Y3356600D01*
X3987600Y3172600D01*
X3858600Y2946600D01*
X3789600Y2691600D01*
X3789600Y2435600D01*
X3858600Y2180600D01*
X3988600Y1953600D01*
X4171600Y1770600D01*
X4398600Y1640600D01*
X4653600Y1571600D01*
X6109600Y1571600D01*
X6368600Y1641600D01*
X6486600Y1551600D01*
X6486600Y1035600D01*
X6368600Y945600D01*
X6109600Y1015600D01*
X4653600Y1015600D01*
X4398600Y946600D01*
X4171600Y816600D01*
G37*
%TD.AperFunction*%
%TA.AperFunction,Conductor*%
G36*
X-133400Y-7705400D02*
G01*
X-9110400Y-7705400D01*
X-9168400Y-7704400D01*
X-9170400Y-7704400D01*
X-9230400Y-7701400D01*
X-9233400Y-7704400D01*
X-9348400Y-7690400D01*
X-9350400Y-7689400D01*
X-9416400Y-7679400D01*
X-9418400Y-7679400D01*
X-9479400Y-7669400D01*
X-9482400Y-7668400D01*
X-9527400Y-7658400D01*
X-9529400Y-7658400D01*
X-9595400Y-7641400D01*
X-9597400Y-7641400D01*
X-9690400Y-7615400D01*
X-9693400Y-7611400D01*
X-9711400Y-7605400D01*
X-9713400Y-7605400D01*
X-9758400Y-7589400D01*
X-9761400Y-7588400D01*
X-9824400Y-7563400D01*
X-9826400Y-7562400D01*
X-9871400Y-7542400D01*
X-9873400Y-7541400D01*
X-9935400Y-7512400D01*
X-9937400Y-7512400D01*
X-10014400Y-7473400D01*
X-10017400Y-7468400D01*
X-10040400Y-7455400D01*
X-10042400Y-7454400D01*
X-10091400Y-7425400D01*
X-10093400Y-7424400D01*
X-10145400Y-7390400D01*
X-10148400Y-7389400D01*
X-10187400Y-7361400D01*
X-10188400Y-7360400D01*
X-10243400Y-7320400D01*
X-10246400Y-7318400D01*
X-10289400Y-7283400D01*
X-10290400Y-7282400D01*
X-10337400Y-7243400D01*
X-10339400Y-7240400D01*
X-10379400Y-7204400D01*
X-10381400Y-7202400D01*
X-10422400Y-7162400D01*
X-10424400Y-7160400D01*
X-10460400Y-7123400D01*
X-10462400Y-7121400D01*
X-10498400Y-7081400D01*
X-10501400Y-7079400D01*
X-10544400Y-7027400D01*
X-10545400Y-7026400D01*
X-10576400Y-6988400D01*
X-10578400Y-6985400D01*
X-10618400Y-6930400D01*
X-10619400Y-6929400D01*
X-10648400Y-6888400D01*
X-10648400Y-6887400D01*
X-10651400Y-6883400D01*
X-10685400Y-6829400D01*
X-10686400Y-6828400D01*
X-10712400Y-6784400D01*
X-10713400Y-6782400D01*
X-10726400Y-6759400D01*
X-10731400Y-6756400D01*
X-10770400Y-6679400D01*
X-10770400Y-6677400D01*
X-10799400Y-6615400D01*
X-10800400Y-6613400D01*
X-10820400Y-6568400D01*
X-10821400Y-6566400D01*
X-10846400Y-6503400D01*
X-10847400Y-6500400D01*
X-10866400Y-6447400D01*
X-10867400Y-6444400D01*
X-10870400Y-6434400D01*
X-10873400Y-6432400D01*
X-10899400Y-6339400D01*
X-10899400Y-6337400D01*
X-10916400Y-6271400D01*
X-10916400Y-6269400D01*
X-10926400Y-6224400D01*
X-10926400Y-6222400D01*
X-10949400Y-6094400D01*
X-10827400Y-5983400D01*
X-10586400Y-6048400D01*
X-9130400Y-6048400D01*
X-8874400Y-5979400D01*
X-8875400Y-5979400D01*
X-8648400Y-5849400D01*
X-8573400Y-5774400D01*
X-8374400Y-5890400D01*
X-8428400Y-6090400D01*
X-8428400Y-6192400D01*
X-8398400Y-6298400D01*
X-8349400Y-6383400D01*
X-8348400Y-6385400D01*
X-8230400Y-6504400D01*
X-8230400Y-6627400D01*
X-8347400Y-6744400D01*
X-8400400Y-6835400D01*
X-8402400Y-6840400D01*
X-8428400Y-6939400D01*
X-8428400Y-7042400D01*
X-8401400Y-7143400D01*
X-8349400Y-7233400D01*
X-8346400Y-7236400D01*
X-8276400Y-7307400D01*
X-8273400Y-7309400D01*
X-8187400Y-7358400D01*
X-8185400Y-7359400D01*
X-8081400Y-7387400D01*
X-7980400Y-7387400D01*
X-7876400Y-7359400D01*
X-7877400Y-7359400D01*
X-7787400Y-7308400D01*
X-7785400Y-7306400D01*
X-7715400Y-7238400D01*
X-7713400Y-7236400D01*
X-7662400Y-7148400D01*
X-7661400Y-7146400D01*
X-7633400Y-7042400D01*
X-7633400Y-6950400D01*
X-7643400Y-6930400D01*
X-7627400Y-6834400D01*
X-7373400Y-6580400D01*
X-7365400Y-6573400D01*
X-7362400Y-6571400D01*
X-7357400Y-6566400D01*
X-7345400Y-6545400D01*
X-7342400Y-6542400D01*
X-7325400Y-6516400D01*
X-7324400Y-6515400D01*
X-7316400Y-6468400D01*
X-7313400Y-6450400D01*
X-7315400Y-6432400D01*
X-7315400Y-6094400D01*
X-7293400Y-6039400D01*
X-7207400Y-5951400D01*
X-7151400Y-5928400D01*
X-5942400Y-5928400D01*
X-5854400Y-6016400D01*
X-5854400Y-6343400D01*
X-5851400Y-6358400D01*
X-5850400Y-6366400D01*
X-5849400Y-6382400D01*
X-5846400Y-6398400D01*
X-5846400Y-6399400D01*
X-5837400Y-6419400D01*
X-5835400Y-6425400D01*
X-5827400Y-6447400D01*
X-5824400Y-6453400D01*
X-5819400Y-6461400D01*
X-5816400Y-6466400D01*
X-5815400Y-6467400D01*
X-5796400Y-6491400D01*
X-5794400Y-6493400D01*
X-5783400Y-6507400D01*
X-5776400Y-6514400D01*
X-5769400Y-6522400D01*
X-5767400Y-6524400D01*
X-5762400Y-6528400D01*
X-5759400Y-6531400D01*
X-5289400Y-7002400D01*
X-5260400Y-7024400D01*
X-5253400Y-7030400D01*
X-5248400Y-7034400D01*
X-5240400Y-7038400D01*
X-5231400Y-7045400D01*
X-5215400Y-7051400D01*
X-5208400Y-7053400D01*
X-5191400Y-7061400D01*
X-5187400Y-7062400D01*
X-5169400Y-7067400D01*
X-5140400Y-7070400D01*
X-5137400Y-7070400D01*
X-5121400Y-7073400D01*
X-5101400Y-7073400D01*
X-5097400Y-7074400D01*
X-5085400Y-7073400D01*
X-536400Y-7073400D01*
X-481400Y-7096400D01*
X-56400Y-7520400D01*
X-133400Y-7705400D01*
G37*
%TD.AperFunction*%
%TA.AperFunction,Conductor*%
G36*
X4171600Y-4263400D02*
G01*
X3988600Y-4446400D01*
X3858600Y-4673400D01*
X3789600Y-4928400D01*
X3789600Y-5184400D01*
X3858600Y-5440400D01*
X3859600Y-5441400D01*
X3988600Y-5666400D01*
X4171600Y-5849400D01*
X4398600Y-5979400D01*
X4653600Y-6048400D01*
X6109600Y-6048400D01*
X6350600Y-5983400D01*
X6472600Y-6094400D01*
X6449600Y-6222400D01*
X6449600Y-6224400D01*
X6437600Y-6278400D01*
X6437600Y-6281400D01*
X6422600Y-6338400D01*
X6422600Y-6339400D01*
X6396600Y-6432400D01*
X6392600Y-6435400D01*
X6386600Y-6453400D01*
X6386600Y-6455400D01*
X6366600Y-6512400D01*
X6365600Y-6515400D01*
X6344600Y-6566400D01*
X6343600Y-6568400D01*
X6323600Y-6613400D01*
X6322600Y-6615400D01*
X6293600Y-6677400D01*
X6293600Y-6679400D01*
X6254600Y-6756400D01*
X6249600Y-6759400D01*
X6236600Y-6782400D01*
X6235600Y-6784400D01*
X6206600Y-6833400D01*
X6205600Y-6835400D01*
X6171600Y-6887400D01*
X6170600Y-6890400D01*
X6142600Y-6929400D01*
X6141600Y-6930400D01*
X6101600Y-6985400D01*
X6099600Y-6988400D01*
X6064600Y-7031400D01*
X6063600Y-7032400D01*
X6024600Y-7079400D01*
X6021600Y-7081400D01*
X5985600Y-7121400D01*
X5983600Y-7123400D01*
X5943600Y-7164400D01*
X5941600Y-7166400D01*
X5904600Y-7202400D01*
X5902600Y-7204400D01*
X5862600Y-7240400D01*
X5860600Y-7243400D01*
X5808600Y-7286400D01*
X5807600Y-7287400D01*
X5769600Y-7318400D01*
X5766600Y-7320400D01*
X5711600Y-7360400D01*
X5709600Y-7362400D01*
X5661600Y-7395400D01*
X5658600Y-7397400D01*
X5610600Y-7427400D01*
X5609600Y-7428400D01*
X5565600Y-7454400D01*
X5563600Y-7455400D01*
X5540600Y-7468400D01*
X5537600Y-7473400D01*
X5460600Y-7512400D01*
X5458600Y-7512400D01*
X5396600Y-7541400D01*
X5394600Y-7542400D01*
X5349600Y-7562400D01*
X5347600Y-7563400D01*
X5284600Y-7588400D01*
X5281600Y-7589400D01*
X5236600Y-7605400D01*
X5234600Y-7605400D01*
X5216600Y-7611400D01*
X5213600Y-7615400D01*
X5120600Y-7641400D01*
X5118600Y-7641400D01*
X5052600Y-7658400D01*
X5050600Y-7658400D01*
X5005600Y-7668400D01*
X5002600Y-7669400D01*
X4941600Y-7679400D01*
X4939600Y-7679400D01*
X4873600Y-7689400D01*
X4871600Y-7690400D01*
X4756600Y-7704400D01*
X4753600Y-7701400D01*
X4693600Y-7704400D01*
X4691600Y-7704400D01*
X4633600Y-7705400D01*
X3342600Y-7705400D01*
X3265600Y-7520400D01*
X3457600Y-7328400D01*
X3553600Y-7312400D01*
X3573600Y-7322400D01*
X3664600Y-7322400D01*
X3768600Y-7294400D01*
X3770600Y-7293400D01*
X3856600Y-7244400D01*
X3858600Y-7243400D01*
X3931600Y-7169400D01*
X3984600Y-7078400D01*
X4011600Y-6976400D01*
X4011600Y-6874400D01*
X3985600Y-6775400D01*
X3983600Y-6770400D01*
X3930600Y-6679400D01*
X3862600Y-6611400D01*
X3855600Y-6606400D01*
X3771600Y-6556400D01*
X3770600Y-6556400D01*
X3665600Y-6527400D01*
X3562600Y-6527400D01*
X3457600Y-6556400D01*
X3372600Y-6606400D01*
X3368600Y-6609400D01*
X3294600Y-6681400D01*
X3291600Y-6686400D01*
X3244600Y-6769400D01*
X3244600Y-6770400D01*
X3216600Y-6876400D01*
X3216600Y-6977400D01*
X3224600Y-7011400D01*
X3203600Y-7087400D01*
X3052600Y-7239400D01*
X2997600Y-7262400D01*
X212600Y-7262400D01*
X157600Y-7239400D01*
X-182400Y-6899400D01*
X-182400Y-6775400D01*
X346600Y-6246400D01*
X401600Y-6223400D01*
X816600Y-6223400D01*
X834600Y-6221400D01*
X836600Y-6221400D01*
X859600Y-6215400D01*
X861600Y-6215400D01*
X882600Y-6209400D01*
X909600Y-6198400D01*
X931600Y-6182400D01*
X958600Y-6158400D01*
X970600Y-6145400D01*
X986600Y-6121400D01*
X998600Y-6100400D01*
X1001600Y-6094400D01*
X1005600Y-6080400D01*
X1006600Y-6075400D01*
X1007600Y-6071400D01*
X1014600Y-6037400D01*
X1015600Y-6026400D01*
X1015600Y-4769400D01*
X1013600Y-4754400D01*
X1007600Y-4728400D01*
X1007600Y-4727400D01*
X1001600Y-4705400D01*
X985600Y-4674400D01*
X973600Y-4657400D01*
X957600Y-4637400D01*
X953600Y-4633400D01*
X939600Y-4622400D01*
X935600Y-4618400D01*
X916600Y-4604400D01*
X885600Y-4588400D01*
X866600Y-4582400D01*
X864600Y-4582400D01*
X836600Y-4575400D01*
X834600Y-4575400D01*
X816600Y-4573400D01*
X15600Y-4573400D01*
X-400Y-4574400D01*
X-32400Y-4581400D01*
X-36400Y-4582400D01*
X-37400Y-4582400D01*
X-55400Y-4587400D01*
X-57400Y-4588400D01*
X-78400Y-4600400D01*
X-101400Y-4615400D01*
X-102400Y-4616400D01*
X-106400Y-4618400D01*
X-120400Y-4631400D01*
X-143400Y-4657400D01*
X-159400Y-4680400D01*
X-171400Y-4708400D01*
X-177400Y-4731400D01*
X-182400Y-4754400D01*
X-184400Y-4769400D01*
X-184400Y-4954400D01*
X-326400Y-5042400D01*
X-397400Y-5006400D01*
X-402400Y-5004400D01*
X-506400Y-4976400D01*
X-607400Y-4976400D01*
X-710400Y-5004400D01*
X-800400Y-5055400D01*
X-802400Y-5057400D01*
X-874400Y-5127400D01*
X-926400Y-5218400D01*
X-927400Y-5219400D01*
X-954400Y-5322400D01*
X-954400Y-5424400D01*
X-926400Y-5528400D01*
X-924400Y-5532400D01*
X-876400Y-5617400D01*
X-874400Y-5619400D01*
X-802400Y-5689400D01*
X-797400Y-5693400D01*
X-713400Y-5742400D01*
X-608400Y-5771400D01*
X-505400Y-5771400D01*
X-400400Y-5742400D01*
X-393400Y-5739400D01*
X-326400Y-5705400D01*
X-184400Y-5793400D01*
X-184400Y-6039400D01*
X-207400Y-6094400D01*
X-663400Y-6550400D01*
X-718400Y-6573400D01*
X-4979400Y-6573400D01*
X-5034400Y-6550400D01*
X-5331400Y-6253400D01*
X-5354400Y-6198400D01*
X-5354400Y-5348400D01*
X-4217400Y-5348400D01*
X-4217400Y-5450400D01*
X-4187400Y-5556400D01*
X-4138400Y-5641400D01*
X-4063400Y-5716400D01*
X-4060400Y-5718400D01*
X-3976400Y-5767400D01*
X-3869400Y-5796400D01*
X-3769400Y-5796400D01*
X-3606400Y-5752400D01*
X-3488400Y-5842400D01*
X-3488400Y-6017400D01*
X-3487400Y-6042400D01*
X-3482400Y-6068400D01*
X-3471400Y-6097400D01*
X-3464400Y-6114400D01*
X-3443400Y-6144400D01*
X-3440400Y-6149400D01*
X-3431400Y-6159400D01*
X-3429400Y-6161400D01*
X-3412400Y-6177400D01*
X-3381400Y-6198400D01*
X-3379400Y-6199400D01*
X-3362400Y-6207400D01*
X-3361400Y-6207400D01*
X-3337400Y-6215400D01*
X-3308400Y-6221400D01*
X-3306400Y-6221400D01*
X-3303400Y-6222400D01*
X-3290400Y-6223400D01*
X-2487400Y-6223400D01*
X-2474400Y-6222400D01*
X-2471400Y-6221400D01*
X-2469400Y-6221400D01*
X-2440400Y-6215400D01*
X-2416400Y-6207400D01*
X-2415400Y-6207400D01*
X-2398400Y-6199400D01*
X-2396400Y-6198400D01*
X-2365400Y-6177400D01*
X-2352400Y-6165400D01*
X-2346400Y-6159400D01*
X-2337400Y-6149400D01*
X-2334400Y-6144400D01*
X-2315400Y-6117400D01*
X-2308400Y-6101400D01*
X-2306400Y-6097400D01*
X-2295400Y-6071400D01*
X-2290400Y-6045400D01*
X-2288400Y-6026400D01*
X-2288400Y-4769400D01*
X-2290400Y-4751400D01*
X-2293400Y-4736400D01*
X-2304400Y-4702400D01*
X-2331400Y-4639400D01*
X-2314400Y-4549400D01*
X-2180944Y-4415400D01*
X1581600Y-4415400D01*
X1581600Y-5257400D01*
X1582600Y-5267400D01*
X1583600Y-5270400D01*
X1584600Y-5278400D01*
X1587600Y-5293400D01*
X1588600Y-5295400D01*
X1590600Y-5303400D01*
X1595600Y-5319400D01*
X1607600Y-5346400D01*
X1626600Y-5371400D01*
X1636600Y-5385400D01*
X1662600Y-5409400D01*
X1683600Y-5422400D01*
X1711600Y-5434400D01*
X1716600Y-5437400D01*
X1727600Y-5441400D01*
X1734600Y-5443400D01*
X1757600Y-5448400D01*
X1763600Y-5449400D01*
X1925600Y-5449400D01*
X2015600Y-5567400D01*
X1981600Y-5695400D01*
X1981600Y-5798400D01*
X2010600Y-5902400D01*
X2010600Y-5903400D01*
X2057600Y-5983400D01*
X2059600Y-5985400D01*
X2059600Y-5986400D01*
X2063600Y-5991400D01*
X2135600Y-6064400D01*
X2222600Y-6114400D01*
X2224600Y-6115400D01*
X2330600Y-6143400D01*
X2428600Y-6143400D01*
X2534600Y-6115400D01*
X2536600Y-6114400D01*
X2623600Y-6064400D01*
X2697600Y-5989400D01*
X2748600Y-5898400D01*
X2776600Y-5798400D01*
X2776600Y-5695400D01*
X2742600Y-5566400D01*
X2832600Y-5449400D01*
X2999600Y-5449400D01*
X3004600Y-5448400D01*
X3027600Y-5443400D01*
X3037600Y-5440400D01*
X3059600Y-5432400D01*
X3069600Y-5427400D01*
X3074600Y-5424400D01*
X3100600Y-5408400D01*
X3119600Y-5392400D01*
X3152600Y-5350400D01*
X3154600Y-5347400D01*
X3167600Y-5319400D01*
X3172600Y-5303400D01*
X3174600Y-5297400D01*
X3175600Y-5293400D01*
X3180600Y-5267400D01*
X3181600Y-5257400D01*
X3181600Y-4415400D01*
X3180600Y-4407400D01*
X3175600Y-4381400D01*
X3164600Y-4348400D01*
X3156600Y-4330400D01*
X3138600Y-4303400D01*
X3125600Y-4288400D01*
X3099600Y-4265400D01*
X3097600Y-4264400D01*
X3081600Y-4252400D01*
X3050600Y-4238400D01*
X3049600Y-4237400D01*
X3036600Y-4233400D01*
X3026600Y-4231400D01*
X3002600Y-4225400D01*
X2986600Y-4224400D01*
X1776600Y-4224400D01*
X1762600Y-4225400D01*
X1731600Y-4232400D01*
X1716600Y-4236400D01*
X1714600Y-4237400D01*
X1681600Y-4252400D01*
X1658600Y-4269400D01*
X1641600Y-4284400D01*
X1622600Y-4306400D01*
X1621600Y-4308400D01*
X1608600Y-4327400D01*
X1606600Y-4330400D01*
X1598600Y-4348400D01*
X1587600Y-4381400D01*
X1582600Y-4407400D01*
X1581600Y-4415400D01*
X-2180944Y-4415400D01*
X-1823400Y-4056400D01*
X-1821400Y-4055400D01*
X-1809400Y-4044400D01*
X-1807400Y-4042400D01*
X-1798400Y-4025400D01*
X-1792400Y-4017400D01*
X-1782400Y-4003400D01*
X-1780400Y-4000400D01*
X-1780400Y-3999400D01*
X-1775400Y-3986400D01*
X-1772400Y-3980400D01*
X-1770400Y-3975400D01*
X-1767400Y-3962400D01*
X-1765400Y-3952400D01*
X-1759400Y-3936400D01*
X-1759400Y-3929400D01*
X-1758400Y-3920400D01*
X-1757400Y-3914400D01*
X-1757400Y-3766400D01*
X-1754400Y-3759400D01*
X-1754400Y-2741400D01*
X-2214400Y-2741400D01*
X-2214400Y-3773400D01*
X-2237400Y-3828400D01*
X-2957400Y-4550400D01*
X-3012400Y-4573400D01*
X-3290400Y-4573400D01*
X-3303400Y-4574400D01*
X-3306400Y-4575400D01*
X-3308400Y-4575400D01*
X-3336400Y-4581400D01*
X-3340400Y-4582400D01*
X-3341400Y-4582400D01*
X-3359400Y-4587400D01*
X-3361400Y-4588400D01*
X-3381400Y-4599400D01*
X-3382400Y-4600400D01*
X-3411400Y-4620400D01*
X-3413400Y-4621400D01*
X-3427400Y-4633400D01*
X-3428400Y-4634400D01*
X-3448400Y-4659400D01*
X-3451400Y-4662400D01*
X-3460400Y-4675400D01*
X-3473400Y-4702400D01*
X-3484400Y-4736400D01*
X-3486400Y-4758400D01*
X-3488400Y-4775400D01*
X-3488400Y-4954400D01*
X-3604400Y-5044400D01*
X-3768400Y-5001400D01*
X-3869400Y-5001400D01*
X-3973400Y-5029400D01*
X-4064400Y-5081400D01*
X-4138400Y-5155400D01*
X-4188400Y-5241400D01*
X-4217400Y-5348400D01*
X-5354400Y-5348400D01*
X-5354400Y-3619400D01*
X-5266400Y-3531400D01*
X-4532400Y-3531400D01*
X-4477400Y-3554400D01*
X-4010400Y-4021400D01*
X-4000400Y-4030400D01*
X-3992400Y-4039400D01*
X-3986400Y-4046400D01*
X-3968400Y-4060400D01*
X-3964400Y-4063400D01*
X-3962400Y-4065400D01*
X-3956400Y-4069400D01*
X-3948400Y-4073400D01*
X-3930400Y-4085400D01*
X-3918400Y-4089400D01*
X-3906400Y-4094400D01*
X-3896400Y-4099400D01*
X-3878400Y-4102400D01*
X-3866400Y-4105400D01*
X-3849400Y-4106400D01*
X-3834400Y-4109400D01*
X-3821400Y-4110400D01*
X-3138400Y-4110400D01*
X-3125400Y-4109400D01*
X-3119400Y-4108400D01*
X-3109400Y-4106400D01*
X-3090400Y-4105400D01*
X-3082400Y-4103400D01*
X-3070400Y-4101400D01*
X-3057400Y-4095400D01*
X-3050400Y-4092400D01*
X-3026400Y-4084400D01*
X-3018400Y-4080400D01*
X-3010400Y-4075400D01*
X-2986400Y-4056400D01*
X-2984400Y-4055400D01*
X-2972400Y-4046400D01*
X-2964400Y-4039400D01*
X-2804400Y-3879400D01*
X-2796400Y-3870400D01*
X-2795400Y-3868400D01*
X-2791400Y-3863400D01*
X-2780400Y-3850400D01*
X-2772400Y-3837400D01*
X-2767400Y-3829400D01*
X-2763400Y-3825400D01*
X-2756400Y-3805400D01*
X-2746400Y-3785400D01*
X-2743400Y-3769400D01*
X-2738400Y-3758400D01*
X-2735400Y-3725400D01*
X-2735400Y-3721400D01*
X-2734400Y-3711400D01*
X-2734400Y-3705400D01*
X-2733400Y-3688400D01*
X-2733400Y-3686400D01*
X-2734400Y-3675400D01*
X-2734400Y-2757400D01*
X-2711400Y-2702400D01*
X-2382400Y-2373400D01*
X-2327400Y-2350400D01*
X-1410400Y-2350400D01*
X-1355400Y-2373400D01*
X-1163400Y-2566400D01*
X-1163400Y-2690400D01*
X-1214400Y-2741400D01*
X-1214400Y-3731400D01*
X-754400Y-3731400D01*
X-754400Y-3551400D01*
X-666400Y-3463400D01*
X1493600Y-3463400D01*
X1581600Y-3551400D01*
X1581600Y-3656400D01*
X1582600Y-3666400D01*
X1583600Y-3669400D01*
X1584600Y-3677400D01*
X1587600Y-3692400D01*
X1588600Y-3694400D01*
X1590600Y-3702400D01*
X1595600Y-3718400D01*
X1596600Y-3719400D01*
X1598600Y-3725400D01*
X1608600Y-3746400D01*
X1621600Y-3763400D01*
X1643600Y-3791400D01*
X1660600Y-3806400D01*
X1664600Y-3809400D01*
X1682600Y-3819400D01*
X1685600Y-3820400D01*
X1708600Y-3834400D01*
X1710600Y-3835400D01*
X1726600Y-3840400D01*
X1734600Y-3842400D01*
X1760600Y-3848400D01*
X1776600Y-3849400D01*
X1779600Y-3849400D01*
X2976600Y-3848400D01*
X2998600Y-3848400D01*
X3003600Y-3847400D01*
X3024600Y-3843400D01*
X3029600Y-3842400D01*
X3056600Y-3834400D01*
X3074600Y-3823400D01*
X3082600Y-3819400D01*
X3101600Y-3807400D01*
X3126600Y-3784400D01*
X3136600Y-3770400D01*
X3152600Y-3749400D01*
X3154600Y-3746400D01*
X3164600Y-3725400D01*
X3167600Y-3719400D01*
X3167600Y-3718400D01*
X3172600Y-3702400D01*
X3174600Y-3696400D01*
X3175600Y-3692400D01*
X3178600Y-3677400D01*
X3179600Y-3673400D01*
X3180600Y-3666400D01*
X3181600Y-3656400D01*
X3181600Y-2789400D01*
X3204600Y-2734400D01*
X3604600Y-2334400D01*
X3789600Y-2411400D01*
X3789600Y-2644400D01*
X3858600Y-2900400D01*
X3859600Y-2901400D01*
X3988600Y-3126400D01*
X4171600Y-3309400D01*
X4398600Y-3439400D01*
X4653600Y-3508400D01*
X6109600Y-3508400D01*
X6368600Y-3438400D01*
X6486600Y-3528400D01*
X6486600Y-4044400D01*
X6368600Y-4134400D01*
X6109600Y-4064400D01*
X4653600Y-4064400D01*
X4398600Y-4133400D01*
X4171600Y-4263400D01*
G37*
%TD.AperFunction*%
%TA.AperFunction,Conductor*%
G36*
X-7402400Y-4371400D02*
G01*
X-7402400Y-5006400D01*
X-7425400Y-5061400D01*
X-8100400Y-5737400D01*
X-8135400Y-5757400D01*
X-8180400Y-5768400D01*
X-8311400Y-5844400D01*
X-8474400Y-5682400D01*
X-8336400Y-5441400D01*
X-8335400Y-5440400D01*
X-8266400Y-5184400D01*
X-8266400Y-4928400D01*
X-8335400Y-4673400D01*
X-8465400Y-4446400D01*
X-8648400Y-4263400D01*
X-8875400Y-4133400D01*
X-8874400Y-4133400D01*
X-9130400Y-4064400D01*
X-10586400Y-4064400D01*
X-10845400Y-4134400D01*
X-10963400Y-4044400D01*
X-10963400Y-3528400D01*
X-10845400Y-3438400D01*
X-10586400Y-3508400D01*
X-9130400Y-3508400D01*
X-8874400Y-3439400D01*
X-8875400Y-3439400D01*
X-8648400Y-3309400D01*
X-8465400Y-3126400D01*
X-8336400Y-2901400D01*
X-8335400Y-2900400D01*
X-8266400Y-2644400D01*
X-8266400Y-2389400D01*
X-8335400Y-2133400D01*
X-8465400Y-1906400D01*
X-8671400Y-1700400D01*
X-8671400Y-1576400D01*
X-6895400Y199600D01*
X-6840400Y222600D01*
X-4003400Y222600D01*
X-3948400Y199600D01*
X-3769400Y22600D01*
X-3761400Y11600D01*
X-3759400Y8600D01*
X-3686400Y-36400D01*
X-3087400Y-36400D01*
X-3076400Y-37400D01*
X-3072400Y-38400D01*
X-3068400Y-37400D01*
X-3036400Y-30400D01*
X-3035400Y-30400D01*
X-3008400Y-24400D01*
X-3002400Y-22400D01*
X-2960400Y9600D01*
X-2957400Y11600D01*
X-2952400Y15600D01*
X-2951400Y15600D01*
X-2950400Y16600D01*
X-2941400Y27600D01*
X-2875400Y94600D01*
X-2867400Y102600D01*
X-2853400Y112600D01*
X-2852400Y113600D01*
X-2817400Y170600D01*
X-2749400Y208600D01*
X-754400Y208600D01*
X-754400Y1198600D01*
X-1169400Y1198600D01*
X-1257400Y1286600D01*
X-1257400Y1613600D01*
X-1169400Y1701600D01*
X-453400Y1701600D01*
X-453400Y1742600D01*
X1417600Y1742600D01*
X1417600Y1644600D01*
X1445600Y1539600D01*
X1446600Y1537600D01*
X1495600Y1450600D01*
X1496600Y1449600D01*
X1571600Y1376600D01*
X1662600Y1325600D01*
X1764600Y1297600D01*
X1865600Y1297600D01*
X1969600Y1325600D01*
X1968600Y1325600D01*
X2058600Y1376600D01*
X2060600Y1378600D01*
X2131600Y1448600D01*
X2184600Y1539600D01*
X2186600Y1544600D01*
X2212600Y1642600D01*
X2212600Y1743600D01*
X2186600Y1844600D01*
X2184600Y1849600D01*
X2131600Y1940600D01*
X2060600Y2010600D01*
X2058600Y2012600D01*
X1968600Y2063600D01*
X1969600Y2063600D01*
X1865600Y2091600D01*
X1764600Y2091600D01*
X1662600Y2063600D01*
X1571600Y2012600D01*
X1496600Y1939600D01*
X1495600Y1938600D01*
X1446600Y1851600D01*
X1445600Y1849600D01*
X1417600Y1742600D01*
X-453400Y1742600D01*
X-453400Y2657600D01*
X-2023400Y2657600D01*
X-2023400Y1701600D01*
X-1799400Y1701600D01*
X-1711400Y1613600D01*
X-1711400Y1286600D01*
X-1799400Y1198600D01*
X-2721400Y1198600D01*
X-2809400Y1286600D01*
X-2809400Y1479600D01*
X-2721400Y1567600D01*
X-2545400Y1567600D01*
X-2522400Y1570600D01*
X-2518400Y1570600D01*
X-2499400Y1573600D01*
X-2498400Y1573600D01*
X-2471400Y1583600D01*
X-2454400Y1591600D01*
X-2452400Y1592600D01*
X-2426400Y1608600D01*
X-2407400Y1624600D01*
X-2385400Y1652600D01*
X-2371400Y1670600D01*
X-2358400Y1699600D01*
X-2353400Y1717600D01*
X-2346400Y1749600D01*
X-2345400Y1759600D01*
X-2345400Y2601600D01*
X-2346400Y2609600D01*
X-2351400Y2635600D01*
X-2362400Y2668600D01*
X-2370400Y2686600D01*
X-2388400Y2713600D01*
X-2401400Y2728600D01*
X-2427400Y2751600D01*
X-2429400Y2752600D01*
X-2444400Y2763600D01*
X-2447400Y2765600D01*
X-2468400Y2775600D01*
X-2495400Y2784600D01*
X-2525400Y2790600D01*
X-2541400Y2792600D01*
X-3750400Y2792600D01*
X-3765400Y2791600D01*
X-3766400Y2790600D01*
X-3796400Y2784600D01*
X-3818400Y2777600D01*
X-3843400Y2765600D01*
X-3860400Y2752600D01*
X-3888400Y2730600D01*
X-3904400Y2711600D01*
X-3921400Y2684600D01*
X-3923400Y2680600D01*
X-3974400Y2604600D01*
X-4147400Y2615600D01*
X-4186400Y2694600D01*
X-4194400Y2709600D01*
X-4197400Y2713600D01*
X-4212400Y2730600D01*
X-4240400Y2752600D01*
X-4257400Y2765600D01*
X-4282400Y2777600D01*
X-4304400Y2784600D01*
X-4334400Y2790600D01*
X-4350400Y2792600D01*
X-5559400Y2792600D01*
X-5574400Y2791600D01*
X-5575400Y2790600D01*
X-5605400Y2784600D01*
X-5627400Y2777600D01*
X-5652400Y2765600D01*
X-5669400Y2752600D01*
X-5697400Y2730600D01*
X-5712400Y2713600D01*
X-5715400Y2709600D01*
X-5725400Y2691600D01*
X-5726400Y2688600D01*
X-5738400Y2668600D01*
X-5749400Y2635600D01*
X-5754400Y2609600D01*
X-5754400Y1749600D01*
X-5753400Y1742600D01*
X-5748400Y1719600D01*
X-5740400Y1692600D01*
X-5731400Y1676600D01*
X-5729400Y1674600D01*
X-5725400Y1666600D01*
X-5711400Y1646600D01*
X-5695400Y1626600D01*
X-5671400Y1607600D01*
X-5651400Y1594600D01*
X-5646400Y1591600D01*
X-5632400Y1584600D01*
X-5602400Y1573600D01*
X-5600400Y1573600D01*
X-5583400Y1570600D01*
X-5577400Y1570600D01*
X-5554400Y1567600D01*
X-5224400Y1567600D01*
X-5138400Y1487600D01*
X-5132400Y1414600D01*
X-5114400Y1341600D01*
X-5087400Y1304600D01*
X-5085400Y1302600D01*
X-5077400Y1292600D01*
X-5068400Y1285600D01*
X-4847400Y1063600D01*
X-4924400Y878600D01*
X-7066400Y878600D01*
X-7077400Y879600D01*
X-7081400Y880600D01*
X-7085400Y879600D01*
X-7127400Y870600D01*
X-7129400Y869600D01*
X-7143400Y866600D01*
X-7155400Y862600D01*
X-7198400Y829600D01*
X-7201400Y827600D01*
X-7212400Y814600D01*
X-7804400Y221600D01*
X-7859400Y198600D01*
X-8214400Y198600D01*
X-8294400Y259600D01*
X-8335400Y407600D01*
X-8465400Y633600D01*
X-8648400Y816600D01*
X-8875400Y946600D01*
X-8874400Y946600D01*
X-9130400Y1015600D01*
X-10586400Y1015600D01*
X-10845400Y945600D01*
X-10963400Y1035600D01*
X-10963400Y1551600D01*
X-10845400Y1641600D01*
X-10586400Y1571600D01*
X-9130400Y1571600D01*
X-8874400Y1640600D01*
X-8875400Y1640600D01*
X-8648400Y1770600D01*
X-8465400Y1953600D01*
X-8335400Y2180600D01*
X-8266400Y2435600D01*
X-8266400Y2691600D01*
X-8335400Y2946600D01*
X-8464400Y3172600D01*
X-8648400Y3356600D01*
X-8875400Y3486600D01*
X-8874400Y3486600D01*
X-9130400Y3555600D01*
X-10586400Y3555600D01*
X-10845400Y3485600D01*
X-10963400Y3575600D01*
X-10963400Y4091600D01*
X-10845400Y4181600D01*
X-10586400Y4111600D01*
X-9130400Y4111600D01*
X-8874400Y4180600D01*
X-8875400Y4180600D01*
X-8648400Y4310600D01*
X-8465400Y4493600D01*
X-8336400Y4718600D01*
X-8335400Y4719600D01*
X-8266400Y4975600D01*
X-8266400Y5231600D01*
X-8335400Y5486600D01*
X-8465400Y5713600D01*
X-8648400Y5896600D01*
X-8875400Y6026600D01*
X-8874400Y6026600D01*
X-9130400Y6095600D01*
X-10586400Y6095600D01*
X-10845400Y6025600D01*
X-10963400Y6115600D01*
X-10963400Y6631600D01*
X-10958156Y6635600D01*
X-3635400Y6635600D01*
X-3635400Y6534600D01*
X-3608400Y6434600D01*
X-3556400Y6343600D01*
X-3554400Y6341600D01*
X-3487400Y6273600D01*
X-3478400Y6266600D01*
X-3392400Y6217600D01*
X-3287400Y6189600D01*
X-3189400Y6189600D01*
X-3083400Y6217600D01*
X-3084400Y6217600D01*
X-2998400Y6266600D01*
X-2989400Y6273600D01*
X-2922400Y6341600D01*
X-2920400Y6343600D01*
X-2868400Y6434600D01*
X-2841400Y6534600D01*
X-2841400Y6635600D01*
X-2868400Y6736600D01*
X-2869400Y6739600D01*
X-2922400Y6830600D01*
X-2993400Y6901600D01*
X-3084400Y6954600D01*
X-3188400Y6982600D01*
X-3288400Y6982600D01*
X-3392400Y6954600D01*
X-3483400Y6901600D01*
X-3554400Y6830600D01*
X-3607400Y6739600D01*
X-3608400Y6736600D01*
X-3635400Y6635600D01*
X-10958156Y6635600D01*
X-10845400Y6721600D01*
X-10586400Y6651600D01*
X-9130400Y6651600D01*
X-8874400Y6720600D01*
X-8875400Y6720600D01*
X-8648400Y6850600D01*
X-8465400Y7033600D01*
X-8335400Y7260600D01*
X-8266400Y7515600D01*
X-8266400Y7771600D01*
X-8335400Y8026600D01*
X-8465400Y8253600D01*
X-8634400Y8422600D01*
X-8634400Y8546600D01*
X-8524400Y8656600D01*
X-8469400Y8679600D01*
X-4504400Y8679600D01*
X-4493400Y8680600D01*
X-4489400Y8680600D01*
X-4474400Y8684600D01*
X-4471400Y8684600D01*
X-4454400Y8687600D01*
X-4443400Y8691600D01*
X-4439400Y8693600D01*
X-4432400Y8695600D01*
X-4420400Y8700600D01*
X-4413400Y8705600D01*
X-4404400Y8710600D01*
X-4384400Y8719600D01*
X-4374400Y8730600D01*
X-4359400Y8741600D01*
X-4356400Y8743600D01*
X-4321400Y8778600D01*
X-2038400Y8778600D01*
X-2038400Y7938600D01*
X-2037400Y7928600D01*
X-2036400Y7925600D01*
X-2035400Y7917600D01*
X-2032400Y7902600D01*
X-2031400Y7901600D01*
X-2031400Y7900600D01*
X-2029400Y7892600D01*
X-2024400Y7876600D01*
X-2012400Y7849600D01*
X-1998400Y7831600D01*
X-1976400Y7803600D01*
X-1959400Y7788600D01*
X-1955400Y7785600D01*
X-1937400Y7775600D01*
X-1934400Y7774600D01*
X-1911400Y7760600D01*
X-1909400Y7759600D01*
X-1893400Y7754600D01*
X-1885400Y7752600D01*
X-1859400Y7746600D01*
X-1843400Y7745600D01*
X-1540400Y7745600D01*
X-1480400Y7523600D01*
X-1663400Y7417600D01*
X-1795400Y7285600D01*
X-1884400Y7131600D01*
X-1933400Y6948600D01*
X-1933400Y6219600D01*
X-1884400Y6039600D01*
X-1795400Y5885600D01*
X-1663400Y5753600D01*
X-1509400Y5664600D01*
X-1327400Y5615600D01*
X-1148400Y5615600D01*
X-1003400Y5653600D01*
X-977400Y5656600D01*
X-911400Y5649600D01*
X-888400Y5650600D01*
X-123400Y5650600D01*
X-35400Y5562600D01*
X-35400Y5350600D01*
X1764600Y5350600D01*
X1764600Y7150600D01*
X-35400Y7150600D01*
X-35400Y6938600D01*
X-123400Y6850600D01*
X-452400Y6850600D01*
X-533400Y6912600D01*
X-592400Y7131600D01*
X-681400Y7285600D01*
X-813400Y7417600D01*
X-998400Y7524600D01*
X-938400Y7746600D01*
X-621400Y7746600D01*
X-616400Y7747600D01*
X-595400Y7751600D01*
X-590400Y7752600D01*
X-563400Y7760600D01*
X-545400Y7771600D01*
X-537400Y7775600D01*
X-518400Y7787600D01*
X-493400Y7810600D01*
X-483400Y7824600D01*
X-467400Y7845600D01*
X-465400Y7848600D01*
X-452400Y7876600D01*
X-447400Y7892600D01*
X-445400Y7900600D01*
X-444400Y7901600D01*
X-444400Y7902600D01*
X-441400Y7917600D01*
X-440400Y7921600D01*
X-439400Y7928600D01*
X-438400Y7938600D01*
X-438400Y8780600D01*
X-439400Y8788600D01*
X-444400Y8814600D01*
X-452400Y8840600D01*
X-464400Y8867600D01*
X-479400Y8887600D01*
X-493400Y8906600D01*
X-518400Y8929600D01*
X-537400Y8941600D01*
X-545400Y8945600D01*
X-562400Y8955600D01*
X-590400Y8964600D01*
X-619400Y8970600D01*
X-633400Y8971600D01*
X-636400Y8971600D01*
X-1833400Y8970600D01*
X-1855400Y8970600D01*
X-1885400Y8964600D01*
X-1893400Y8962600D01*
X-1909400Y8957600D01*
X-1911400Y8956600D01*
X-1936400Y8941600D01*
X-1939400Y8940600D01*
X-1959400Y8928600D01*
X-1976400Y8913600D01*
X-1998400Y8885600D01*
X-1999400Y8884600D01*
X-2012400Y8867600D01*
X-2024400Y8840600D01*
X-2032400Y8814600D01*
X-2037400Y8788600D01*
X-2038400Y8778600D01*
X-4321400Y8778600D01*
X-3552400Y9547600D01*
X-3497400Y9570600D01*
X-2643400Y9571600D01*
X-2621400Y9571600D01*
X-2591400Y9577600D01*
X-2583400Y9579600D01*
X-2567400Y9584600D01*
X-2565400Y9585600D01*
X-2542400Y9599600D01*
X-2539400Y9600600D01*
X-2521400Y9610600D01*
X-2517400Y9613600D01*
X-2500400Y9628600D01*
X-2467400Y9670600D01*
X-2465400Y9673600D01*
X-2452400Y9701600D01*
X-2447400Y9717600D01*
X-2445400Y9723600D01*
X-2444400Y9727600D01*
X-2441400Y9742600D01*
X-2440400Y9746600D01*
X-2439400Y9753600D01*
X-2438400Y9763600D01*
X-2438400Y9868600D01*
X-2350400Y9956600D01*
X-2126400Y9956600D01*
X-2038400Y9868600D01*
X-2038400Y9763600D01*
X-2037400Y9753600D01*
X-2036400Y9750600D01*
X-2035400Y9742600D01*
X-2032400Y9727600D01*
X-2031400Y9725600D01*
X-2029400Y9717600D01*
X-2024400Y9701600D01*
X-2012400Y9674600D01*
X-1993400Y9649600D01*
X-1983400Y9635600D01*
X-1958400Y9612600D01*
X-1939400Y9600600D01*
X-1931400Y9596600D01*
X-1914400Y9586600D01*
X-1886400Y9577600D01*
X-1857400Y9571600D01*
X-1843400Y9570600D01*
X-1840400Y9570600D01*
X-643400Y9571600D01*
X-621400Y9571600D01*
X-591400Y9577600D01*
X-583400Y9579600D01*
X-567400Y9584600D01*
X-565400Y9585600D01*
X-542400Y9599600D01*
X-539400Y9600600D01*
X-521400Y9610600D01*
X-517400Y9613600D01*
X-500400Y9628600D01*
X-467400Y9670600D01*
X-465400Y9673600D01*
X-452400Y9701600D01*
X-447400Y9717600D01*
X-445400Y9723600D01*
X-444400Y9727600D01*
X-441400Y9742600D01*
X-440400Y9746600D01*
X-439400Y9753600D01*
X-438400Y9763600D01*
X-438400Y10605600D01*
X-439400Y10613600D01*
X-444400Y10639600D01*
X-452400Y10665600D01*
X-464400Y10692600D01*
X-477400Y10709600D01*
X-478400Y10710600D01*
X-500400Y10738600D01*
X-517400Y10753600D01*
X-521400Y10756600D01*
X-539400Y10766600D01*
X-542400Y10767600D01*
X-565400Y10781600D01*
X-567400Y10782600D01*
X-583400Y10787600D01*
X-593400Y10789600D01*
X-617400Y10795600D01*
X-633400Y10796600D01*
X-636400Y10796600D01*
X-1833400Y10795600D01*
X-1855400Y10795600D01*
X-1860400Y10794600D01*
X-1886400Y10789600D01*
X-1913400Y10781600D01*
X-1931400Y10770600D01*
X-1939400Y10766600D01*
X-1958400Y10754600D01*
X-1983400Y10731600D01*
X-1997400Y10712600D01*
X-2012400Y10692600D01*
X-2024400Y10665600D01*
X-2032400Y10639600D01*
X-2037400Y10613600D01*
X-2038400Y10603600D01*
X-2038400Y10498600D01*
X-2126400Y10410600D01*
X-2350400Y10410600D01*
X-2438400Y10498600D01*
X-2438400Y10605600D01*
X-2439400Y10613600D01*
X-2444400Y10639600D01*
X-2452400Y10665600D01*
X-2464400Y10692600D01*
X-2477400Y10709600D01*
X-2478400Y10710600D01*
X-2500400Y10738600D01*
X-2517400Y10753600D01*
X-2521400Y10756600D01*
X-2539400Y10766600D01*
X-2542400Y10767600D01*
X-2565400Y10781600D01*
X-2567400Y10782600D01*
X-2583400Y10787600D01*
X-2593400Y10789600D01*
X-2617400Y10795600D01*
X-2633400Y10796600D01*
X-2636400Y10796600D01*
X-3833400Y10795600D01*
X-3855400Y10795600D01*
X-3860400Y10794600D01*
X-3886400Y10789600D01*
X-3913400Y10781600D01*
X-3931400Y10770600D01*
X-3939400Y10766600D01*
X-3958400Y10754600D01*
X-3983400Y10731600D01*
X-3997400Y10712600D01*
X-4012400Y10692600D01*
X-4024400Y10665600D01*
X-4032400Y10639600D01*
X-4037400Y10613600D01*
X-4038400Y10603600D01*
X-4038400Y9736600D01*
X-4061400Y9681600D01*
X-4367400Y9375600D01*
X-4552400Y9452600D01*
X-4552400Y10204600D01*
X-4555400Y10226600D01*
X-4555400Y10230600D01*
X-4557400Y10244600D01*
X-4558400Y10250600D01*
X-4569400Y10280600D01*
X-4574400Y10291600D01*
X-4577400Y10296600D01*
X-4593400Y10322600D01*
X-4609400Y10341600D01*
X-4637400Y10363600D01*
X-4639400Y10365600D01*
X-4656400Y10378600D01*
X-4684400Y10390600D01*
X-4702400Y10395600D01*
X-4733400Y10402600D01*
X-4747400Y10403600D01*
X-5037400Y10403600D01*
X-5125400Y10491600D01*
X-5125400Y11269600D01*
X-5037400Y11357600D01*
X-4777400Y11357600D01*
X-4777400Y11914600D01*
X-2664400Y11914600D01*
X-2664400Y11812600D01*
X-2634400Y11706600D01*
X-2585400Y11621600D01*
X-2509400Y11545600D01*
X-2423400Y11495600D01*
X-2316400Y11466600D01*
X-2216400Y11466600D01*
X-2112400Y11494600D01*
X-2024400Y11545600D01*
X-2022400Y11547600D01*
X-1948400Y11619600D01*
X-1947400Y11620600D01*
X-1898400Y11706600D01*
X-1869400Y11814600D01*
X-1869400Y11914600D01*
X-1897400Y12019600D01*
X-1898400Y12021600D01*
X-1944400Y12103600D01*
X-1948400Y12109600D01*
X-2021400Y12180600D01*
X-2027400Y12185600D01*
X-2106400Y12231600D01*
X-2113400Y12234600D01*
X-2215400Y12261600D01*
X-2316400Y12261600D01*
X-2420400Y12233600D01*
X-2511400Y12181600D01*
X-2585400Y12107600D01*
X-2635400Y12021600D01*
X-2664400Y11914600D01*
X-4777400Y11914600D01*
X-4777400Y12906600D01*
X-4689400Y12994600D01*
X209600Y12994600D01*
X299600Y12884600D01*
X283600Y12805600D01*
X280600Y12783600D01*
X280600Y12780600D01*
X277600Y12758600D01*
X277600Y11557600D01*
X280600Y11534600D01*
X280600Y11529600D01*
X283600Y11510600D01*
X294600Y11480600D01*
X303600Y11462600D01*
X304600Y11462600D01*
X324600Y11431600D01*
X333600Y11421600D01*
X359600Y11398600D01*
X379600Y11384600D01*
X382600Y11382600D01*
X409600Y11370600D01*
X427600Y11365600D01*
X457600Y11359600D01*
X537600Y11350600D01*
X614600Y11264600D01*
X614600Y10491600D01*
X526600Y10403600D01*
X260600Y10403600D01*
X244600Y10401600D01*
X214600Y10395600D01*
X187600Y10386600D01*
X168600Y10377600D01*
X163600Y10374600D01*
X141600Y10359600D01*
X127600Y10346600D01*
X105600Y10321600D01*
X104600Y10319600D01*
X92600Y10302600D01*
X78600Y10272600D01*
X75600Y10266600D01*
X71600Y10250600D01*
X65600Y10222600D01*
X64600Y10211600D01*
X64600Y9370600D01*
X65600Y9360600D01*
X72600Y9328600D01*
X77600Y9311600D01*
X91600Y9280600D01*
X106600Y9258600D01*
X124600Y9238600D01*
X143600Y9221600D01*
X169600Y9205600D01*
X169600Y9204600D01*
X187600Y9195600D01*
X217600Y9184600D01*
X219600Y9184600D01*
X237600Y9181600D01*
X241600Y9181600D01*
X264600Y9178600D01*
X1464600Y9178600D01*
X1487600Y9181600D01*
X1493600Y9181600D01*
X1510600Y9184600D01*
X1512600Y9184600D01*
X1542600Y9195600D01*
X1561600Y9205600D01*
X1568600Y9209600D01*
X1574600Y9213600D01*
X1581600Y9219600D01*
X1601600Y9234600D01*
X1620600Y9254600D01*
X1641600Y9287600D01*
X1642600Y9289600D01*
X1695600Y9368600D01*
X1868600Y9357600D01*
X1904600Y9283600D01*
X1921600Y9258600D01*
X1941600Y9236600D01*
X1961600Y9219600D01*
X1964600Y9216600D01*
X1978600Y9206600D01*
X2007600Y9193600D01*
X2027600Y9185600D01*
X2037600Y9183600D01*
X2050600Y9181600D01*
X2056600Y9181600D01*
X2079600Y9178600D01*
X3283600Y9178600D01*
X3350600Y9185600D01*
X3449600Y9096600D01*
X3449600Y6877600D01*
X3448600Y6866600D01*
X3446600Y6854600D01*
X3447600Y6850600D01*
X3464600Y6783600D01*
X3488600Y6749600D01*
X3491600Y6747600D01*
X3502600Y6732600D01*
X3514600Y6722600D01*
X4194600Y6043600D01*
X4194600Y5919600D01*
X3988600Y5713600D01*
X3858600Y5486600D01*
X3789600Y5231600D01*
X3789600Y4930600D01*
X3766600Y4875600D01*
X2793600Y3903600D01*
X2790600Y3899600D01*
X2746600Y3844600D01*
X2713600Y3777600D01*
X2691600Y3723600D01*
X2615600Y3673600D01*
X-1823400Y3673600D01*
X-1878400Y3696600D01*
X-2322400Y4140600D01*
X-2345400Y4195600D01*
X-2345400Y4426600D01*
X-2346400Y4434600D01*
X-2351400Y4460600D01*
X-2362400Y4493600D01*
X-2370400Y4511600D01*
X-2388400Y4538600D01*
X-2401400Y4553600D01*
X-2427400Y4576600D01*
X-2429400Y4577600D01*
X-2444400Y4588600D01*
X-2447400Y4590600D01*
X-2468400Y4600600D01*
X-2495400Y4609600D01*
X-2525400Y4615600D01*
X-2541400Y4617600D01*
X-3750400Y4617600D01*
X-3765400Y4616600D01*
X-3766400Y4615600D01*
X-3796400Y4609600D01*
X-3818400Y4602600D01*
X-3843400Y4590600D01*
X-3860400Y4577600D01*
X-3888400Y4555600D01*
X-3904400Y4536600D01*
X-3921400Y4509600D01*
X-3923400Y4505600D01*
X-3974400Y4429600D01*
X-4147400Y4440600D01*
X-4186400Y4519600D01*
X-4194400Y4534600D01*
X-4197400Y4538600D01*
X-4212400Y4555600D01*
X-4240400Y4577600D01*
X-4257400Y4590600D01*
X-4282400Y4602600D01*
X-4304400Y4609600D01*
X-4334400Y4615600D01*
X-4335400Y4616600D01*
X-4350400Y4617600D01*
X-5559400Y4617600D01*
X-5575400Y4615600D01*
X-5605400Y4609600D01*
X-5627400Y4602600D01*
X-5652400Y4590600D01*
X-5669400Y4577600D01*
X-5697400Y4555600D01*
X-5712400Y4538600D01*
X-5715400Y4534600D01*
X-5725400Y4516600D01*
X-5726400Y4513600D01*
X-5738400Y4493600D01*
X-5749400Y4460600D01*
X-5754400Y4434600D01*
X-5755400Y4426600D01*
X-5755400Y3584600D01*
X-5754400Y3574600D01*
X-5748400Y3546600D01*
X-5739400Y3516600D01*
X-5731400Y3501600D01*
X-5729400Y3498600D01*
X-5728400Y3496600D01*
X-5711400Y3471600D01*
X-5695400Y3451600D01*
X-5671400Y3432600D01*
X-5651400Y3419600D01*
X-5646400Y3416600D01*
X-5632400Y3409600D01*
X-5602400Y3398600D01*
X-5600400Y3398600D01*
X-5582400Y3395600D01*
X-5578400Y3395600D01*
X-5555400Y3392600D01*
X-4355400Y3392600D01*
X-4332400Y3395600D01*
X-4326400Y3395600D01*
X-4309400Y3398600D01*
X-4307400Y3398600D01*
X-4277400Y3409600D01*
X-4263400Y3416600D01*
X-4258400Y3419600D01*
X-4238400Y3432600D01*
X-4214400Y3451600D01*
X-4198400Y3471600D01*
X-4182400Y3495600D01*
X-4136400Y3571600D01*
X-3971400Y3575600D01*
X-3923400Y3502600D01*
X-3921400Y3500600D01*
X-3906400Y3475600D01*
X-3886400Y3451600D01*
X-3862400Y3432600D01*
X-3842400Y3419600D01*
X-3837400Y3416600D01*
X-3823400Y3409600D01*
X-3793400Y3398600D01*
X-3791400Y3398600D01*
X-3774400Y3395600D01*
X-3768400Y3395600D01*
X-3745400Y3392600D01*
X-2545400Y3392600D01*
X-2522400Y3395600D01*
X-2518400Y3395600D01*
X-2499400Y3398600D01*
X-2498400Y3398600D01*
X-2468400Y3409600D01*
X-2406400Y3439600D01*
X-2312400Y3423600D01*
X-2133400Y3244600D01*
X-2113400Y3229600D01*
X-2107400Y3224600D01*
X-2098400Y3215600D01*
X-2091400Y3211600D01*
X-2082400Y3206600D01*
X-2079400Y3204600D01*
X-2061400Y3197600D01*
X-2054400Y3194600D01*
X-2036400Y3185600D01*
X-2030400Y3184600D01*
X-2015400Y3179600D01*
X-1987400Y3176600D01*
X-1985400Y3176600D01*
X-1962400Y3173600D01*
X-1945400Y3173600D01*
X-1941400Y3172600D01*
X-1929400Y3173600D01*
X2705600Y3173600D01*
X2793600Y3085600D01*
X2793600Y-614400D01*
X2770600Y-669400D01*
X2664600Y-775400D01*
X2609600Y-798400D01*
X1786600Y-799400D01*
X1764600Y-799400D01*
X1759600Y-800400D01*
X1733600Y-805400D01*
X1706600Y-813400D01*
X1688600Y-824400D01*
X1680600Y-828400D01*
X1661600Y-840400D01*
X1636600Y-863400D01*
X1622600Y-882400D01*
X1607600Y-903400D01*
X1595600Y-929400D01*
X1587600Y-955400D01*
X1582600Y-981400D01*
X1581600Y-991400D01*
X1581600Y-1152400D01*
X1558600Y-1207400D01*
X1526600Y-1239400D01*
X1517600Y-1246400D01*
X1508600Y-1257400D01*
X522600Y-2243400D01*
X467600Y-2266400D01*
X318600Y-2266400D01*
X230600Y-2178400D01*
X230600Y-286400D01*
X-759400Y-286400D01*
X-759400Y-2001400D01*
X-944400Y-2078400D01*
X-1074400Y-1948400D01*
X-1077400Y-1944400D01*
X-1080400Y-1941400D01*
X-1084400Y-1938400D01*
X-1100400Y-1922400D01*
X-1106400Y-1917400D01*
X-1110400Y-1914400D01*
X-1132400Y-1894400D01*
X-1137400Y-1892400D01*
X-1153400Y-1882400D01*
X-1160400Y-1879400D01*
X-1165400Y-1877400D01*
X-1197400Y-1861400D01*
X-1198400Y-1861400D01*
X-1220400Y-1857400D01*
X-1223400Y-1857400D01*
X-1229400Y-1856400D01*
X-1267400Y-1850400D01*
X-2470400Y-1850400D01*
X-2495400Y-1854400D01*
X-2507400Y-1855400D01*
X-2509400Y-1855400D01*
X-2514400Y-1856400D01*
X-2518400Y-1857400D01*
X-2534400Y-1859400D01*
X-2541400Y-1861400D01*
X-2561400Y-1870400D01*
X-2575400Y-1877400D01*
X-2581400Y-1879400D01*
X-2596400Y-1887400D01*
X-2656400Y-1938400D01*
X-2665400Y-1949400D01*
X-3162400Y-2445400D01*
X-3175400Y-2463400D01*
X-3181400Y-2470400D01*
X-3192400Y-2481400D01*
X-3196400Y-2488400D01*
X-3201400Y-2497400D01*
X-3203400Y-2499400D01*
X-3204400Y-2502400D01*
X-3213400Y-2524400D01*
X-3215400Y-2529400D01*
X-3222400Y-2543400D01*
X-3223400Y-2549400D01*
X-3228400Y-2566400D01*
X-3231400Y-2595400D01*
X-3232400Y-2600400D01*
X-3246400Y-2672400D01*
X-3329400Y-2741400D01*
X-3621400Y-2741400D01*
X-3709400Y-2653400D01*
X-3709400Y-286400D01*
X-4699400Y-286400D01*
X-4699400Y-2746400D01*
X-4599400Y-2846400D01*
X-4676400Y-3031400D01*
X-5956400Y-3031400D01*
X-6044400Y-2943400D01*
X-6044400Y-2794400D01*
X-7614400Y-2794400D01*
X-7614400Y-3749400D01*
X-5942400Y-3749400D01*
X-5854400Y-3837400D01*
X-5854400Y-4101400D01*
X-5942400Y-4189400D01*
X-7207400Y-4189400D01*
X-7222400Y-4190400D01*
X-7223400Y-4191400D01*
X-7253400Y-4197400D01*
X-7275400Y-4204400D01*
X-7299400Y-4215400D01*
X-7317400Y-4229400D01*
X-7345400Y-4251400D01*
X-7361400Y-4270400D01*
X-7377400Y-4296400D01*
X-7380400Y-4301400D01*
X-7385400Y-4311400D01*
X-7393400Y-4331400D01*
X-7395400Y-4340400D01*
X-7402400Y-4371400D01*
G37*
%TD.AperFunction*%
%TD*%
M02*
