%TF.GenerationSoftware,Flux,Pcbnew,7.0.11-7.0.11~ubuntu20.04.1*%
%TF.CreationDate,2025-02-07T02:19:34+00:00*%
%TF.ProjectId,input,696e7075-742e-46b6-9963-61645f706362,rev?*%
%TF.SameCoordinates,Original*%
%TF.FileFunction,Copper,L2,Inr*%
%TF.FilePolarity,Positive*%
%FSLAX46Y46*%
G04 Gerber Fmt 4.6, Leading zero omitted, Abs format (unit mm)*
G04 Filename: imu-plus-motor-driver-2*
G04 Build it with Flux! Visit our site at: https://www.flux.ai (PCBNEW 7.0.11-7.0.11~ubuntu20.04.1) date 2025-02-07 02:19:34*
%MOMM*%
%LPD*%
G01*
G04 APERTURE LIST*
G04 Aperture macros list*
%AMFreePoly0*
4,1,129,0.022069,0.299187,0.036723,0.297744,0.051289,0.295583,0.065730,0.292711,0.080014,0.289133,0.094105,0.284858,0.107969,0.279898,0.121572,0.274263,0.134883,0.267967,0.147869,0.261026,0.160499,0.253456,0.172742,0.245275,0.184569,0.236504,0.195952,0.227163,0.206862,0.217274,0.217274,0.206862,0.227163,0.195952,0.236504,0.184569,0.245275,0.172742,0.253456,0.160499,
0.261026,0.147869,0.267967,0.134883,0.274263,0.121572,0.279898,0.107969,0.284858,0.094105,0.289133,0.080014,0.292711,0.065730,0.295583,0.051289,0.297744,0.036723,0.299187,0.022069,0.299910,0.007362,0.299910,-0.007362,0.299187,-0.022069,0.297744,-0.036723,0.295583,-0.051289,0.292711,-0.065730,0.289133,-0.080014,0.284858,-0.094105,0.279898,-0.107969,0.274263,-0.121572,
0.267967,-0.134883,0.261026,-0.147869,0.253456,-0.160499,0.245275,-0.172742,0.236504,-0.184569,0.227163,-0.195952,0.217274,-0.206862,0.206862,-0.217274,0.195952,-0.227163,0.184569,-0.236504,0.172742,-0.245275,0.160499,-0.253456,0.147869,-0.261026,0.134883,-0.267967,0.121572,-0.274263,0.107969,-0.279898,0.094105,-0.284858,0.080014,-0.289133,0.065730,-0.292711,0.051289,-0.295583,
0.036723,-0.297744,0.022069,-0.299187,0.007362,-0.299910,-0.007362,-0.299910,-0.022069,-0.299187,-0.036723,-0.297744,-0.051289,-0.295583,-0.065730,-0.292711,-0.080014,-0.289133,-0.094105,-0.284858,-0.107969,-0.279898,-0.121572,-0.274263,-0.134883,-0.267967,-0.147869,-0.261026,-0.160499,-0.253456,-0.172742,-0.245275,-0.184569,-0.236504,-0.195952,-0.227163,-0.206862,-0.217274,-0.217274,-0.206862,
-0.227163,-0.195952,-0.236504,-0.184569,-0.245275,-0.172742,-0.253456,-0.160499,-0.261026,-0.147869,-0.267967,-0.134883,-0.274263,-0.121572,-0.279898,-0.107969,-0.284858,-0.094105,-0.289133,-0.080014,-0.292711,-0.065730,-0.295583,-0.051289,-0.297744,-0.036723,-0.299187,-0.022069,-0.299910,-0.007362,-0.299910,0.007362,-0.299187,0.022069,-0.297744,0.036723,-0.295583,0.051289,-0.292711,0.065730,
-0.289133,0.080014,-0.284858,0.094105,-0.279898,0.107969,-0.274263,0.121572,-0.267967,0.134883,-0.261026,0.147869,-0.253456,0.160499,-0.245275,0.172742,-0.236504,0.184569,-0.227163,0.195952,-0.217274,0.206862,-0.206862,0.217274,-0.195952,0.227163,-0.184569,0.236504,-0.172742,0.245275,-0.160499,0.253456,-0.147869,0.261026,-0.134883,0.267967,-0.121572,0.274263,-0.107969,0.279898,
-0.094105,0.284858,-0.080014,0.289133,-0.065730,0.292711,-0.051289,0.295583,-0.036723,0.297744,-0.022069,0.299187,-0.007362,0.299910,0.007362,0.299910,0.022069,0.299187,0.022069,0.299187,$1*%
%AMFreePoly1*
4,1,65,0.732057,0.890259,0.818682,0.873028,0.903201,0.847390,0.984800,0.813590,1.062692,0.771956,1.136129,0.722887,1.204403,0.666856,1.266856,0.604403,1.322887,0.536129,1.371956,0.462692,1.413590,0.384800,1.447390,0.303201,1.473028,0.218682,1.490259,0.132057,1.498916,0.044161,1.498916,-0.044161,1.490259,-0.132057,1.473028,-0.218682,1.447390,-0.303201,1.413590,-0.384800,
1.371956,-0.462692,1.322887,-0.536129,1.266856,-0.604403,1.204403,-0.666856,1.136129,-0.722887,1.062692,-0.771956,0.984800,-0.813590,0.903201,-0.847390,0.818682,-0.873028,0.732057,-0.890259,0.644161,-0.898916,-0.644161,-0.898916,-0.732057,-0.890259,-0.818682,-0.873028,-0.903201,-0.847390,-0.984800,-0.813590,-1.062692,-0.771956,-1.136129,-0.722887,-1.204403,-0.666856,-1.266856,-0.604403,
-1.322887,-0.536129,-1.371956,-0.462692,-1.413590,-0.384800,-1.447390,-0.303201,-1.473028,-0.218682,-1.490259,-0.132057,-1.498916,-0.044161,-1.498916,0.044161,-1.490259,0.132057,-1.473028,0.218682,-1.447390,0.303201,-1.413590,0.384800,-1.371956,0.462692,-1.322887,0.536129,-1.266856,0.604403,-1.204403,0.666856,-1.136129,0.722887,-1.062692,0.771956,-0.984800,0.813590,-0.903201,0.847390,
-0.818682,0.873028,-0.732057,0.890259,-0.644161,0.898916,0.644161,0.898916,0.732057,0.890259,0.732057,0.890259,$1*%
%AMFreePoly2*
4,1,5,1.500000,-0.900000,-1.500000,-0.900000,-1.500000,0.900000,1.500000,0.900000,1.500000,-0.900000,1.500000,-0.900000,$1*%
%AMFreePoly3*
4,1,101,0.477381,0.874719,0.485925,0.873878,0.494396,0.872479,0.502757,0.870529,0.510973,0.868037,0.519008,0.865013,0.526828,0.861470,0.534400,0.857423,0.541691,0.852889,0.548669,0.847888,0.555306,0.842441,0.561572,0.836572,0.567441,0.830306,0.572888,0.823669,0.577889,0.816691,0.582423,0.809400,0.586470,0.801828,0.590013,0.794008,0.593037,0.785973,0.595529,0.777757,
0.597479,0.769396,0.598878,0.760925,0.599719,0.752381,0.600000,0.743800,0.600000,-0.743800,0.599719,-0.752381,0.598878,-0.760925,0.597479,-0.769396,0.595529,-0.777757,0.593037,-0.785973,0.590013,-0.794008,0.586470,-0.801828,0.582423,-0.809400,0.577889,-0.816691,0.572888,-0.823669,0.567441,-0.830306,0.561572,-0.836572,0.555306,-0.842441,0.548669,-0.847888,0.541691,-0.852889,
0.534400,-0.857423,0.526828,-0.861470,0.519008,-0.865013,0.510973,-0.868037,0.502757,-0.870529,0.494396,-0.872479,0.485925,-0.873878,0.477381,-0.874719,0.468800,-0.875000,-0.468800,-0.875000,-0.477381,-0.874719,-0.485925,-0.873878,-0.494396,-0.872479,-0.502757,-0.870529,-0.510973,-0.868037,-0.519008,-0.865013,-0.526828,-0.861470,-0.534400,-0.857423,-0.541691,-0.852889,-0.548669,-0.847888,
-0.555306,-0.842441,-0.561572,-0.836572,-0.567441,-0.830306,-0.572888,-0.823669,-0.577889,-0.816691,-0.582423,-0.809400,-0.586470,-0.801828,-0.590013,-0.794008,-0.593037,-0.785973,-0.595529,-0.777757,-0.597479,-0.769396,-0.598878,-0.760925,-0.599719,-0.752381,-0.600000,-0.743800,-0.600000,0.743800,-0.599719,0.752381,-0.598878,0.760925,-0.597479,0.769396,-0.595529,0.777757,-0.593037,0.785973,
-0.590013,0.794008,-0.586470,0.801828,-0.582423,0.809400,-0.577889,0.816691,-0.572888,0.823669,-0.567441,0.830306,-0.561572,0.836572,-0.555306,0.842441,-0.548669,0.847888,-0.541691,0.852889,-0.534400,0.857423,-0.526828,0.861470,-0.519008,0.865013,-0.510973,0.868037,-0.502757,0.870529,-0.494396,0.872479,-0.485925,0.873878,-0.477381,0.874719,-0.468800,0.875000,0.468800,0.875000,
0.477381,0.874719,0.477381,0.874719,$1*%
%AMFreePoly4*
4,1,65,0.088038,0.868506,0.145788,0.857019,0.202134,0.839926,0.256533,0.817394,0.308462,0.789637,0.357420,0.756925,0.402935,0.719571,0.444571,0.677935,0.481925,0.632420,0.514637,0.583462,0.542394,0.531533,0.564926,0.477134,0.582019,0.420788,0.593506,0.363038,0.599277,0.304441,0.599277,-0.304441,0.593506,-0.363038,0.582019,-0.420788,0.564926,-0.477134,0.542394,-0.531533,
0.514637,-0.583462,0.481925,-0.632420,0.444571,-0.677935,0.402935,-0.719571,0.357420,-0.756925,0.308462,-0.789637,0.256533,-0.817394,0.202134,-0.839926,0.145788,-0.857019,0.088038,-0.868506,0.029441,-0.874277,-0.029441,-0.874277,-0.088038,-0.868506,-0.145788,-0.857019,-0.202134,-0.839926,-0.256533,-0.817394,-0.308462,-0.789637,-0.357420,-0.756925,-0.402935,-0.719571,-0.444571,-0.677935,
-0.481925,-0.632420,-0.514637,-0.583462,-0.542394,-0.531533,-0.564926,-0.477134,-0.582019,-0.420788,-0.593506,-0.363038,-0.599277,-0.304441,-0.599277,0.304441,-0.593506,0.363038,-0.582019,0.420788,-0.564926,0.477134,-0.542394,0.531533,-0.514637,0.583462,-0.481925,0.632420,-0.444571,0.677935,-0.402935,0.719571,-0.357420,0.756925,-0.308462,0.789637,-0.256533,0.817394,-0.202134,0.839926,
-0.145788,0.857019,-0.088038,0.868506,-0.029441,0.874277,0.029441,0.874277,0.088038,0.868506,0.088038,0.868506,$1*%
G04 Aperture macros list end*
%TA.AperFunction,ComponentPad*%
%ADD10FreePoly0,0.000000*%
%TD*%
%TA.AperFunction,ComponentPad*%
%ADD11FreePoly1,0.000000*%
%TD*%
%TA.AperFunction,ComponentPad*%
%ADD12FreePoly2,0.000000*%
%TD*%
%TA.AperFunction,ComponentPad*%
%ADD13FreePoly3,180.000000*%
%TD*%
%TA.AperFunction,ComponentPad*%
%ADD14FreePoly4,180.000000*%
%TD*%
G04 APERTURE END LIST*
D10*
%TO.N,GND*%
%TO.C,*%
X3428400Y5767700D03*
X-3610900Y11642100D03*
X-8298400Y6373800D03*
X-798100Y11963600D03*
X-8501200Y3833900D03*
X-8394800Y-3738400D03*
X-6197000Y10883400D03*
X5695200Y-6602700D03*
X-10146400Y-6615600D03*
X5739500Y11761900D03*
X4033400Y1293200D03*
X3941400Y-3786300D03*
%TO.N,Net 10*%
X-8080400Y11750200D03*
%TO.N,Net 22*%
X2379500Y-5746000D03*
%TO.N,Net 18*%
X-556900Y-5373700D03*
%TO.N,Net 8*%
X3074300Y10754500D03*
%TO.N,Net 19*%
X-3819700Y-5398500D03*
%TO.N,Net 14*%
X-7117900Y10898800D03*
%TO.N,Net 16*%
X1815000Y1694600D03*
%TO.N,Net 24*%
X-8030700Y-6140400D03*
%TO.N,GND*%
X-5652700Y-7218900D03*
X-4103400Y7587700D03*
%TO.N,Net 1*%
X3624300Y12158200D03*
X-2266700Y11864500D03*
X-10100400Y12041900D03*
X3614000Y-6925100D03*
X-8030800Y-6990200D03*
%TO.N,Net 9*%
X1815000Y12158200D03*
D11*
%TO.N,N/C*%
X5381600Y10183600D03*
X-9858400Y-2516400D03*
X5381600Y5103600D03*
X-9858400Y2563600D03*
X5381600Y2563600D03*
X5381600Y23600D03*
X5381600Y-2516400D03*
X-9858400Y-5056400D03*
X5381600Y-5056400D03*
X5381600Y7643600D03*
X-9858400Y7643600D03*
D12*
X-9858400Y10183600D03*
D11*
X-9858400Y23600D03*
X-9858400Y5103600D03*
%TD*%
D13*
%TO.N,N/C*%
%TO.C,*%
X-3238400Y6585700D03*
D14*
X-1238400Y6585705D03*
%TD*%
%TA.AperFunction,Conductor*%
%TO.N,GND*%
G36*
X4171600Y10976600D02*
G01*
X3988600Y10793600D01*
X3858600Y10566600D01*
X3789600Y10311600D01*
X3789600Y10055600D01*
X3858600Y9800600D01*
X3988600Y9573600D01*
X4171600Y9390600D01*
X4398600Y9260600D01*
X4653600Y9191600D01*
X6109600Y9191600D01*
X6368600Y9261600D01*
X6486600Y9171600D01*
X6486600Y6115600D01*
X6368600Y6025600D01*
X6109600Y6095600D01*
X4653600Y6095600D01*
X4398600Y6026600D01*
X4171600Y5896600D01*
X3988600Y5713600D01*
X3858600Y5486600D01*
X3789600Y5231600D01*
X3789600Y4975600D01*
X3858600Y4720600D01*
X3988600Y4493600D01*
X4171600Y4310600D01*
X4398600Y4180600D01*
X4653600Y4111600D01*
X6109600Y4111600D01*
X6368600Y4181600D01*
X6486600Y4091600D01*
X6486600Y3575600D01*
X6368600Y3485600D01*
X6109600Y3555600D01*
X4653600Y3555600D01*
X4398600Y3486600D01*
X4171600Y3356600D01*
X3988600Y3173600D01*
X3858600Y2946600D01*
X3789600Y2691600D01*
X3789600Y2435600D01*
X3858600Y2180600D01*
X3988600Y1953600D01*
X4171600Y1770600D01*
X4398600Y1640600D01*
X4653600Y1571600D01*
X6109600Y1571600D01*
X6368600Y1641600D01*
X6486600Y1551600D01*
X6486600Y1035600D01*
X6368600Y945600D01*
X6109600Y1015600D01*
X4653600Y1015600D01*
X4398600Y946600D01*
X4171600Y816600D01*
X3988600Y633600D01*
X3858600Y406600D01*
X3789600Y151600D01*
X3789600Y-104400D01*
X3858600Y-359400D01*
X3988600Y-586400D01*
X4171600Y-769400D01*
X4398600Y-899400D01*
X4653600Y-968400D01*
X6109600Y-968400D01*
X6368600Y-898400D01*
X6486600Y-988400D01*
X6486600Y-1504400D01*
X6368600Y-1594400D01*
X6109600Y-1524400D01*
X4653600Y-1524400D01*
X4398600Y-1593400D01*
X4171600Y-1723400D01*
X3988600Y-1906400D01*
X3858600Y-2133400D01*
X3789600Y-2388400D01*
X3789600Y-2644400D01*
X3858600Y-2899400D01*
X3988600Y-3126400D01*
X4171600Y-3309400D01*
X4398600Y-3439400D01*
X4653600Y-3508400D01*
X6109600Y-3508400D01*
X6368600Y-3438400D01*
X6486600Y-3528400D01*
X6486600Y-4044400D01*
X6368600Y-4134400D01*
X6109600Y-4064400D01*
X4653600Y-4064400D01*
X4398600Y-4133400D01*
X4171600Y-4263400D01*
X3988600Y-4446400D01*
X3858600Y-4673400D01*
X3789600Y-4928400D01*
X3789600Y-5184400D01*
X3858600Y-5440400D01*
X3859600Y-5441400D01*
X3988600Y-5666400D01*
X4171600Y-5849400D01*
X4398600Y-5979400D01*
X4653600Y-6048400D01*
X6109600Y-6048400D01*
X6350600Y-5983400D01*
X6472600Y-6094400D01*
X6449600Y-6222400D01*
X6449600Y-6224400D01*
X6437600Y-6278400D01*
X6437600Y-6281400D01*
X6422600Y-6338400D01*
X6422600Y-6339400D01*
X6396600Y-6432400D01*
X6392600Y-6435400D01*
X6386600Y-6453400D01*
X6386600Y-6455400D01*
X6366600Y-6512400D01*
X6365600Y-6515400D01*
X6344600Y-6566400D01*
X6343600Y-6568400D01*
X6323600Y-6613400D01*
X6322600Y-6615400D01*
X6293600Y-6677400D01*
X6293600Y-6679400D01*
X6254600Y-6756400D01*
X6249600Y-6759400D01*
X6236600Y-6782400D01*
X6235600Y-6784400D01*
X6206600Y-6833400D01*
X6205600Y-6835400D01*
X6171600Y-6887400D01*
X6170600Y-6890400D01*
X6142600Y-6929400D01*
X6141600Y-6930400D01*
X6101600Y-6985400D01*
X6099600Y-6988400D01*
X6064600Y-7031400D01*
X6063600Y-7032400D01*
X6024600Y-7079400D01*
X6021600Y-7081400D01*
X5985600Y-7121400D01*
X5983600Y-7123400D01*
X5943600Y-7164400D01*
X5941600Y-7166400D01*
X5904600Y-7202400D01*
X5902600Y-7204400D01*
X5862600Y-7240400D01*
X5860600Y-7243400D01*
X5808600Y-7286400D01*
X5807600Y-7287400D01*
X5769600Y-7318400D01*
X5766600Y-7320400D01*
X5711600Y-7360400D01*
X5709600Y-7362400D01*
X5661600Y-7395400D01*
X5658600Y-7397400D01*
X5610600Y-7427400D01*
X5609600Y-7428400D01*
X5565600Y-7454400D01*
X5563600Y-7455400D01*
X5540600Y-7468400D01*
X5537600Y-7473400D01*
X5460600Y-7512400D01*
X5458600Y-7512400D01*
X5396600Y-7541400D01*
X5394600Y-7542400D01*
X5349600Y-7562400D01*
X5347600Y-7563400D01*
X5284600Y-7588400D01*
X5281600Y-7589400D01*
X5236600Y-7605400D01*
X5234600Y-7605400D01*
X5216600Y-7611400D01*
X5213600Y-7615400D01*
X5120600Y-7641400D01*
X5118600Y-7641400D01*
X5052600Y-7658400D01*
X5050600Y-7658400D01*
X5005600Y-7668400D01*
X5002600Y-7669400D01*
X4941600Y-7679400D01*
X4939600Y-7679400D01*
X4873600Y-7689400D01*
X4871600Y-7690400D01*
X4756600Y-7704400D01*
X4753600Y-7701400D01*
X4693600Y-7704400D01*
X4691600Y-7704400D01*
X4633600Y-7705400D01*
X-9110400Y-7705400D01*
X-9168400Y-7704400D01*
X-9170400Y-7704400D01*
X-9230400Y-7701400D01*
X-9233400Y-7704400D01*
X-9348400Y-7690400D01*
X-9350400Y-7689400D01*
X-9416400Y-7679400D01*
X-9418400Y-7679400D01*
X-9479400Y-7669400D01*
X-9482400Y-7668400D01*
X-9527400Y-7658400D01*
X-9529400Y-7658400D01*
X-9595400Y-7641400D01*
X-9597400Y-7641400D01*
X-9690400Y-7615400D01*
X-9693400Y-7611400D01*
X-9711400Y-7605400D01*
X-9713400Y-7605400D01*
X-9758400Y-7589400D01*
X-9761400Y-7588400D01*
X-9824400Y-7563400D01*
X-9826400Y-7562400D01*
X-9871400Y-7542400D01*
X-9873400Y-7541400D01*
X-9935400Y-7512400D01*
X-9937400Y-7512400D01*
X-10014400Y-7473400D01*
X-10017400Y-7468400D01*
X-10040400Y-7455400D01*
X-10042400Y-7454400D01*
X-10091400Y-7425400D01*
X-10093400Y-7424400D01*
X-10145400Y-7390400D01*
X-10148400Y-7389400D01*
X-10187400Y-7361400D01*
X-10188400Y-7360400D01*
X-10243400Y-7320400D01*
X-10246400Y-7318400D01*
X-10289400Y-7283400D01*
X-10290400Y-7282400D01*
X-10337400Y-7243400D01*
X-10339400Y-7240400D01*
X-10379400Y-7204400D01*
X-10381400Y-7202400D01*
X-10422400Y-7162400D01*
X-10424400Y-7160400D01*
X-10460400Y-7123400D01*
X-10462400Y-7121400D01*
X-10498400Y-7081400D01*
X-10501400Y-7079400D01*
X-10544400Y-7027400D01*
X-10545400Y-7026400D01*
X-10576400Y-6988400D01*
X-10578400Y-6985400D01*
X-10618400Y-6930400D01*
X-10619400Y-6929400D01*
X-10648400Y-6888400D01*
X-10648400Y-6887400D01*
X-10651400Y-6883400D01*
X-10685400Y-6829400D01*
X-10686400Y-6828400D01*
X-10712400Y-6784400D01*
X-10713400Y-6782400D01*
X-10726400Y-6759400D01*
X-10731400Y-6756400D01*
X-10770400Y-6679400D01*
X-10770400Y-6677400D01*
X-10799400Y-6615400D01*
X-10800400Y-6613400D01*
X-10820400Y-6568400D01*
X-10821400Y-6566400D01*
X-10846400Y-6503400D01*
X-10847400Y-6500400D01*
X-10866400Y-6447400D01*
X-10867400Y-6444400D01*
X-10870400Y-6434400D01*
X-10873400Y-6432400D01*
X-10899400Y-6339400D01*
X-10899400Y-6337400D01*
X-10916400Y-6271400D01*
X-10916400Y-6269400D01*
X-10926400Y-6224400D01*
X-10926400Y-6222400D01*
X-10949400Y-6094400D01*
X-10827400Y-5983400D01*
X-10586400Y-6048400D01*
X-9130400Y-6048400D01*
X-8874400Y-5979400D01*
X-8875400Y-5979400D01*
X-8648400Y-5849400D01*
X-8573400Y-5774400D01*
X-8374400Y-5890400D01*
X-8428400Y-6090400D01*
X-8428400Y-6190400D01*
X-8399400Y-6297400D01*
X-8349400Y-6383400D01*
X-8348400Y-6385400D01*
X-8230400Y-6504400D01*
X-8230400Y-6627400D01*
X-8347400Y-6744400D01*
X-8400400Y-6835400D01*
X-8402400Y-6840400D01*
X-8428400Y-6939400D01*
X-8428400Y-7041400D01*
X-8400400Y-7145400D01*
X-8349400Y-7233400D01*
X-8346400Y-7236400D01*
X-8276400Y-7307400D01*
X-8273400Y-7309400D01*
X-8187400Y-7358400D01*
X-8185400Y-7359400D01*
X-8081400Y-7387400D01*
X-7980400Y-7387400D01*
X-7876400Y-7359400D01*
X-7877400Y-7359400D01*
X-7787400Y-7308400D01*
X-7785400Y-7306400D01*
X-7715400Y-7238400D01*
X-7713400Y-7236400D01*
X-7661400Y-7146400D01*
X-7633400Y-7041400D01*
X-7633400Y-6941400D01*
X-7650570Y-6876400D01*
X3216600Y-6876400D01*
X3216600Y-6976400D01*
X3244600Y-7081400D01*
X3296600Y-7171400D01*
X3368600Y-7241400D01*
X3372600Y-7244400D01*
X3460600Y-7294400D01*
X3563600Y-7322400D01*
X3664600Y-7322400D01*
X3768600Y-7294400D01*
X3770600Y-7293400D01*
X3856600Y-7244400D01*
X3858600Y-7243400D01*
X3931600Y-7169400D01*
X3932600Y-7168400D01*
X3984600Y-7078400D01*
X4011600Y-6976400D01*
X4011600Y-6874400D01*
X3985600Y-6775400D01*
X3984600Y-6771400D01*
X3930600Y-6679400D01*
X3862600Y-6611400D01*
X3855600Y-6606400D01*
X3771600Y-6556400D01*
X3770600Y-6556400D01*
X3665600Y-6527400D01*
X3562600Y-6527400D01*
X3457600Y-6556400D01*
X3372600Y-6606400D01*
X3368600Y-6609400D01*
X3295600Y-6680400D01*
X3291600Y-6686400D01*
X3244600Y-6769400D01*
X3244600Y-6771400D01*
X3216600Y-6876400D01*
X-7650570Y-6876400D01*
X-7661400Y-6835400D01*
X-7708400Y-6751400D01*
X-7712400Y-6745400D01*
X-7832400Y-6628400D01*
X-7832400Y-6502400D01*
X-7712400Y-6385400D01*
X-7711400Y-6384400D01*
X-7662400Y-6297400D01*
X-7661400Y-6295400D01*
X-7634400Y-6195400D01*
X-7633400Y-6192400D01*
X-7633400Y-6091400D01*
X-7661400Y-5985400D01*
X-7711400Y-5896400D01*
X-7712400Y-5895400D01*
X-7786400Y-5823400D01*
X-7791400Y-5819400D01*
X-7870400Y-5773400D01*
X-7877400Y-5770400D01*
X-7979400Y-5743400D01*
X-8080400Y-5743400D01*
X-8184400Y-5771400D01*
X-8311400Y-5844400D01*
X-8474400Y-5682400D01*
X-8336400Y-5441400D01*
X-8335400Y-5440400D01*
X-8310873Y-5349400D01*
X-4217400Y-5349400D01*
X-4217400Y-5450400D01*
X-4188400Y-5555400D01*
X-4138400Y-5641400D01*
X-4063400Y-5716400D01*
X-4060400Y-5718400D01*
X-3976400Y-5767400D01*
X-3869400Y-5796400D01*
X-3769400Y-5796400D01*
X-3665400Y-5768400D01*
X-3579400Y-5718400D01*
X-3575400Y-5715400D01*
X-3501400Y-5643400D01*
X-3500400Y-5642400D01*
X-3451400Y-5555400D01*
X-3450400Y-5553400D01*
X-3422400Y-5448400D01*
X-3422400Y-5349400D01*
X-3429532Y-5322400D01*
X-954400Y-5322400D01*
X-954400Y-5423400D01*
X-926400Y-5528400D01*
X-925400Y-5530400D01*
X-876400Y-5617400D01*
X-874400Y-5619400D01*
X-802400Y-5689400D01*
X-797400Y-5693400D01*
X-713400Y-5742400D01*
X-608400Y-5771400D01*
X-505400Y-5771400D01*
X-400400Y-5742400D01*
X-399400Y-5742400D01*
X-319788Y-5695400D01*
X1981600Y-5695400D01*
X1981600Y-5798400D01*
X2010600Y-5902400D01*
X2010600Y-5903400D01*
X2057600Y-5983400D01*
X2059600Y-5985400D01*
X2059600Y-5986400D01*
X2063600Y-5991400D01*
X2134600Y-6064400D01*
X2135600Y-6065400D01*
X2222600Y-6114400D01*
X2224600Y-6115400D01*
X2330600Y-6143400D01*
X2428600Y-6143400D01*
X2534600Y-6115400D01*
X2536600Y-6114400D01*
X2623600Y-6065400D01*
X2624600Y-6064400D01*
X2697600Y-5989400D01*
X2748600Y-5898400D01*
X2776600Y-5798400D01*
X2776600Y-5695400D01*
X2748600Y-5592400D01*
X2698600Y-5504400D01*
X2695600Y-5500400D01*
X2625600Y-5429400D01*
X2626600Y-5429400D01*
X2534600Y-5376400D01*
X2532600Y-5375400D01*
X2430600Y-5348400D01*
X2328600Y-5348400D01*
X2226600Y-5375400D01*
X2224600Y-5376400D01*
X2133600Y-5429400D01*
X2064600Y-5498400D01*
X2060600Y-5504400D01*
X2010600Y-5588400D01*
X2009600Y-5592400D01*
X1981600Y-5695400D01*
X-319788Y-5695400D01*
X-316400Y-5693400D01*
X-311400Y-5689400D01*
X-239400Y-5619400D01*
X-237400Y-5617400D01*
X-188400Y-5530400D01*
X-187400Y-5528400D01*
X-159400Y-5423400D01*
X-159400Y-5322400D01*
X-186400Y-5219400D01*
X-187400Y-5218400D01*
X-239400Y-5127400D01*
X-311400Y-5057400D01*
X-313400Y-5055400D01*
X-403400Y-5004400D01*
X-402400Y-5004400D01*
X-506400Y-4976400D01*
X-607400Y-4976400D01*
X-710400Y-5004400D01*
X-800400Y-5055400D01*
X-802400Y-5057400D01*
X-874400Y-5127400D01*
X-926400Y-5218400D01*
X-927400Y-5219400D01*
X-954400Y-5322400D01*
X-3429532Y-5322400D01*
X-3450400Y-5243400D01*
X-3451400Y-5241400D01*
X-3500400Y-5154400D01*
X-3501400Y-5153400D01*
X-3575400Y-5081400D01*
X-3580400Y-5077400D01*
X-3659400Y-5031400D01*
X-3666400Y-5028400D01*
X-3768400Y-5001400D01*
X-3869400Y-5001400D01*
X-3973400Y-5029400D01*
X-4064400Y-5081400D01*
X-4138400Y-5155400D01*
X-4188400Y-5241400D01*
X-4217400Y-5349400D01*
X-8310873Y-5349400D01*
X-8266400Y-5184400D01*
X-8266400Y-4928400D01*
X-8335400Y-4673400D01*
X-8465400Y-4446400D01*
X-8648400Y-4263400D01*
X-8875400Y-4133400D01*
X-8874400Y-4133400D01*
X-9130400Y-4064400D01*
X-10586400Y-4064400D01*
X-10845400Y-4134400D01*
X-10963400Y-4044400D01*
X-10963400Y-3528400D01*
X-10845400Y-3438400D01*
X-10586400Y-3508400D01*
X-9130400Y-3508400D01*
X-8874400Y-3439400D01*
X-8875400Y-3439400D01*
X-8648400Y-3309400D01*
X-8465400Y-3126400D01*
X-8335400Y-2899400D01*
X-8266400Y-2644400D01*
X-8266400Y-2388400D01*
X-8335400Y-2133400D01*
X-8465400Y-1906400D01*
X-8648400Y-1723400D01*
X-8875400Y-1593400D01*
X-8874400Y-1593400D01*
X-9130400Y-1524400D01*
X-10586400Y-1524400D01*
X-10845400Y-1594400D01*
X-10963400Y-1504400D01*
X-10963400Y-988400D01*
X-10845400Y-898400D01*
X-10586400Y-968400D01*
X-9130400Y-968400D01*
X-8874400Y-899400D01*
X-8875400Y-899400D01*
X-8648400Y-769400D01*
X-8465400Y-586400D01*
X-8335400Y-359400D01*
X-8266400Y-104400D01*
X-8266400Y151600D01*
X-8335400Y406600D01*
X-8465400Y633600D01*
X-8648400Y816600D01*
X-8875400Y946600D01*
X-8874400Y946600D01*
X-9130400Y1015600D01*
X-10586400Y1015600D01*
X-10845400Y945600D01*
X-10963400Y1035600D01*
X-10963400Y1551600D01*
X-10845400Y1641600D01*
X-10586400Y1571600D01*
X-9130400Y1571600D01*
X-8874400Y1640600D01*
X-8875400Y1640600D01*
X-8695546Y1743600D01*
X1417600Y1743600D01*
X1417600Y1644600D01*
X1445600Y1539600D01*
X1446600Y1537600D01*
X1495600Y1450600D01*
X1496600Y1449600D01*
X1571600Y1376600D01*
X1662600Y1325600D01*
X1764600Y1297600D01*
X1865600Y1297600D01*
X1969600Y1325600D01*
X1968600Y1325600D01*
X2058600Y1376600D01*
X2060600Y1378600D01*
X2131600Y1448600D01*
X2184600Y1539600D01*
X2186600Y1544600D01*
X2212600Y1642600D01*
X2212600Y1745600D01*
X2186600Y1844600D01*
X2184600Y1849600D01*
X2131600Y1940600D01*
X2060600Y2010600D01*
X2058600Y2012600D01*
X1968600Y2063600D01*
X1969600Y2063600D01*
X1865600Y2091600D01*
X1764600Y2091600D01*
X1662600Y2063600D01*
X1571600Y2012600D01*
X1496600Y1939600D01*
X1495600Y1938600D01*
X1446600Y1851600D01*
X1445600Y1849600D01*
X1417600Y1743600D01*
X-8695546Y1743600D01*
X-8648400Y1770600D01*
X-8465400Y1953600D01*
X-8335400Y2180600D01*
X-8266400Y2435600D01*
X-8266400Y2691600D01*
X-8335400Y2946600D01*
X-8465400Y3173600D01*
X-8648400Y3356600D01*
X-8875400Y3486600D01*
X-8874400Y3486600D01*
X-9130400Y3555600D01*
X-10586400Y3555600D01*
X-10845400Y3485600D01*
X-10963400Y3575600D01*
X-10963400Y4091600D01*
X-10845400Y4181600D01*
X-10586400Y4111600D01*
X-9130400Y4111600D01*
X-8874400Y4180600D01*
X-8875400Y4180600D01*
X-8648400Y4310600D01*
X-8465400Y4493600D01*
X-8335400Y4720600D01*
X-8266400Y4975600D01*
X-8266400Y5231600D01*
X-8335400Y5486600D01*
X-8465400Y5713600D01*
X-8648400Y5896600D01*
X-8875400Y6026600D01*
X-8874400Y6026600D01*
X-9130400Y6095600D01*
X-10586400Y6095600D01*
X-10845400Y6025600D01*
X-10963400Y6115600D01*
X-10963400Y6631600D01*
X-10958156Y6635600D01*
X-3635400Y6635600D01*
X-3635400Y6534600D01*
X-3608400Y6434600D01*
X-3556400Y6343600D01*
X-3554400Y6341600D01*
X-3487400Y6273600D01*
X-3478400Y6266600D01*
X-3392400Y6217600D01*
X-3287400Y6189600D01*
X-3189400Y6189600D01*
X-3083400Y6217600D01*
X-3084400Y6217600D01*
X-2998400Y6266600D01*
X-2989400Y6273600D01*
X-2922400Y6341600D01*
X-2920400Y6343600D01*
X-2868400Y6434600D01*
X-2841400Y6534600D01*
X-2841400Y6635600D01*
X-2868400Y6736600D01*
X-2869400Y6739600D01*
X-2922400Y6830600D01*
X-2993400Y6901600D01*
X-3074098Y6948600D01*
X-1933400Y6948600D01*
X-1933400Y6219600D01*
X-1884400Y6039600D01*
X-1795400Y5885600D01*
X-1663400Y5753600D01*
X-1509400Y5664600D01*
X-1327400Y5615600D01*
X-1149400Y5615600D01*
X-966400Y5664600D01*
X-967400Y5664600D01*
X-813400Y5753600D01*
X-681400Y5885600D01*
X-592400Y6039600D01*
X-543400Y6219600D01*
X-543400Y6948600D01*
X-592400Y7131600D01*
X-681400Y7285600D01*
X-813400Y7417600D01*
X-967400Y7506600D01*
X-966400Y7506600D01*
X-1149400Y7555600D01*
X-1327400Y7555600D01*
X-1509400Y7506600D01*
X-1663400Y7417600D01*
X-1795400Y7285600D01*
X-1884400Y7131600D01*
X-1933400Y6948600D01*
X-3074098Y6948600D01*
X-3084400Y6954600D01*
X-3188400Y6982600D01*
X-3288400Y6982600D01*
X-3392400Y6954600D01*
X-3483400Y6901600D01*
X-3554400Y6830600D01*
X-3607400Y6739600D01*
X-3608400Y6736600D01*
X-3635400Y6635600D01*
X-10958156Y6635600D01*
X-10845400Y6721600D01*
X-10586400Y6651600D01*
X-9130400Y6651600D01*
X-8874400Y6720600D01*
X-8875400Y6720600D01*
X-8648400Y6850600D01*
X-8465400Y7033600D01*
X-8335400Y7260600D01*
X-8266400Y7515600D01*
X-8266400Y7712600D01*
X4836600Y7712600D01*
X4836600Y7574600D01*
X4874600Y7432600D01*
X4946600Y7307600D01*
X5045600Y7208600D01*
X5170600Y7136600D01*
X5312600Y7098600D01*
X5450600Y7098600D01*
X5593600Y7136600D01*
X5592600Y7136600D01*
X5717600Y7208600D01*
X5816600Y7307600D01*
X5888600Y7432600D01*
X5926600Y7574600D01*
X5926600Y7712600D01*
X5888600Y7854600D01*
X5816600Y7979600D01*
X5717600Y8078600D01*
X5592600Y8150600D01*
X5593600Y8150600D01*
X5450600Y8188600D01*
X5312600Y8188600D01*
X5170600Y8150600D01*
X5045600Y8078600D01*
X4946600Y7979600D01*
X4874600Y7854600D01*
X4836600Y7712600D01*
X-8266400Y7712600D01*
X-8266400Y7771600D01*
X-8335400Y8026600D01*
X-8465400Y8253600D01*
X-8648400Y8436600D01*
X-8875400Y8566600D01*
X-8874400Y8566600D01*
X-9130400Y8635600D01*
X-10586400Y8635600D01*
X-10845400Y8565600D01*
X-10963400Y8655600D01*
X-10963400Y9095600D01*
X-10875400Y9183600D01*
X-8258400Y9183600D01*
X-8258400Y10948600D01*
X-7515400Y10948600D01*
X-7515400Y10847600D01*
X-7488400Y10744600D01*
X-7487400Y10743600D01*
X-7435400Y10652600D01*
X-7363400Y10582600D01*
X-7361400Y10580600D01*
X-7271400Y10529600D01*
X-7168400Y10501600D01*
X-7067400Y10501600D01*
X-6963400Y10529600D01*
X-6964400Y10529600D01*
X-6874400Y10580600D01*
X-6872400Y10582600D01*
X-6800400Y10652600D01*
X-6748400Y10743600D01*
X-6747400Y10744600D01*
X-6731672Y10804600D01*
X2676600Y10804600D01*
X2676600Y10704600D01*
X2705600Y10597600D01*
X2755600Y10511600D01*
X2831600Y10435600D01*
X2917600Y10385600D01*
X3024600Y10356600D01*
X3124600Y10356600D01*
X3228600Y10384600D01*
X3316600Y10435600D01*
X3318600Y10437600D01*
X3392600Y10509600D01*
X3393600Y10510600D01*
X3442600Y10597600D01*
X3443600Y10599600D01*
X3471600Y10705600D01*
X3471600Y10804600D01*
X3443600Y10909600D01*
X3442600Y10911600D01*
X3393600Y10998600D01*
X3392600Y10999600D01*
X3318600Y11071600D01*
X3313600Y11075600D01*
X3234600Y11121600D01*
X3227600Y11124600D01*
X3125600Y11151600D01*
X3024600Y11151600D01*
X2920600Y11123600D01*
X2829600Y11071600D01*
X2755600Y10997600D01*
X2705600Y10911600D01*
X2676600Y10804600D01*
X-6731672Y10804600D01*
X-6720400Y10847600D01*
X-6720400Y10948600D01*
X-6748400Y11053600D01*
X-6749400Y11055600D01*
X-6798400Y11142600D01*
X-6799400Y11143600D01*
X-6872400Y11214600D01*
X-6877400Y11218600D01*
X-6959400Y11266600D01*
X-6961400Y11267600D01*
X-7066400Y11296600D01*
X-7169400Y11296600D01*
X-7274400Y11267600D01*
X-7276400Y11266600D01*
X-7358400Y11218600D01*
X-7363400Y11214600D01*
X-7436400Y11143600D01*
X-7437400Y11142600D01*
X-7486400Y11055600D01*
X-7487400Y11053600D01*
X-7515400Y10948600D01*
X-8258400Y10948600D01*
X-8258400Y11264600D01*
X-8170400Y11352600D01*
X-8029400Y11352600D01*
X-7927400Y11379600D01*
X-7925400Y11380600D01*
X-7834400Y11433600D01*
X-7764400Y11504600D01*
X-7762400Y11506600D01*
X-7711400Y11596600D01*
X-7683400Y11697600D01*
X-7683400Y11800600D01*
X-7711400Y11902600D01*
X-7718125Y11914600D01*
X-2664400Y11914600D01*
X-2664400Y11812600D01*
X-2634400Y11706600D01*
X-2585400Y11621600D01*
X-2509400Y11545600D01*
X-2423400Y11495600D01*
X-2316400Y11466600D01*
X-2216400Y11466600D01*
X-2112400Y11494600D01*
X-2024400Y11545600D01*
X-2022400Y11547600D01*
X-1948400Y11619600D01*
X-1947400Y11620600D01*
X-1898400Y11706600D01*
X-1869400Y11813600D01*
X-1869400Y11914600D01*
X-1897400Y12019600D01*
X-1898400Y12021600D01*
X-1944400Y12103600D01*
X-1948400Y12109600D01*
X-2021400Y12180600D01*
X-2027400Y12185600D01*
X-2065183Y12207600D01*
X1417600Y12207600D01*
X1417600Y12107600D01*
X1445600Y12003600D01*
X1446600Y12001600D01*
X1495600Y11914600D01*
X1498600Y11911600D01*
X1572600Y11839600D01*
X1663600Y11787600D01*
X1763600Y11760600D01*
X1864600Y11760600D01*
X1969600Y11788600D01*
X2060600Y11841600D01*
X2130600Y11911600D01*
X2131600Y11911600D01*
X2184600Y12002600D01*
X2212600Y12108600D01*
X2212600Y12207600D01*
X2212080Y12209600D01*
X3226600Y12209600D01*
X3226600Y12106600D01*
X3255600Y12001600D01*
X3305600Y11916600D01*
X3311600Y11908600D01*
X3378600Y11841600D01*
X3469600Y11788600D01*
X3471600Y11787600D01*
X3573600Y11760600D01*
X3675600Y11760600D01*
X3777600Y11787600D01*
X3867600Y11839600D01*
X3940600Y11911600D01*
X3943600Y11915600D01*
X3992600Y12001600D01*
X3993600Y12003600D01*
X4021600Y12107600D01*
X4021600Y12207600D01*
X3993600Y12311600D01*
X3942600Y12401600D01*
X3940600Y12403600D01*
X3870600Y12475600D01*
X3779600Y12527600D01*
X3778600Y12528600D01*
X3675600Y12555600D01*
X3574600Y12555600D01*
X3469600Y12527600D01*
X3467600Y12526600D01*
X3380600Y12477600D01*
X3379600Y12476600D01*
X3308600Y12403600D01*
X3302600Y12395600D01*
X3255600Y12315600D01*
X3255600Y12313600D01*
X3226600Y12209600D01*
X2212080Y12209600D01*
X2186600Y12307600D01*
X2186600Y12309600D01*
X2133600Y12400600D01*
X2131600Y12402600D01*
X2059600Y12476600D01*
X2058600Y12477600D01*
X1971600Y12526600D01*
X1969600Y12527600D01*
X1865600Y12555600D01*
X1764600Y12555600D01*
X1661600Y12527600D01*
X1570600Y12475600D01*
X1497600Y12402600D01*
X1445600Y12311600D01*
X1417600Y12207600D01*
X-2065183Y12207600D01*
X-2106400Y12231600D01*
X-2113400Y12234600D01*
X-2215400Y12261600D01*
X-2316400Y12261600D01*
X-2420400Y12233600D01*
X-2511400Y12181600D01*
X-2585400Y12107600D01*
X-2635400Y12021600D01*
X-2664400Y11914600D01*
X-7718125Y11914600D01*
X-7762400Y11993600D01*
X-7834400Y12067600D01*
X-7836400Y12069600D01*
X-7923400Y12118600D01*
X-7925400Y12119600D01*
X-8030400Y12147600D01*
X-8130400Y12147600D01*
X-8235400Y12119600D01*
X-8237400Y12118600D01*
X-8324400Y12069600D01*
X-8326400Y12067600D01*
X-8398400Y11993600D01*
X-8449400Y11902600D01*
X-8477400Y11800600D01*
X-8477400Y11697600D01*
X-8449400Y11596600D01*
X-8398400Y11506600D01*
X-8396400Y11504600D01*
X-8261400Y11367600D01*
X-8338400Y11183600D01*
X-10869400Y11183600D01*
X-10959400Y11283600D01*
X-10948400Y11377600D01*
X-10948400Y11380600D01*
X-10938400Y11442600D01*
X-10938400Y11444600D01*
X-10927400Y11510600D01*
X-10926400Y11513600D01*
X-10916400Y11558600D01*
X-10916400Y11560600D01*
X-10899400Y11626600D01*
X-10899400Y11628600D01*
X-10873400Y11721600D01*
X-10870400Y11723600D01*
X-10867400Y11733600D01*
X-10866400Y11736600D01*
X-10847400Y11789600D01*
X-10846400Y11792600D01*
X-10821400Y11855600D01*
X-10820400Y11857600D01*
X-10800400Y11902600D01*
X-10799400Y11904600D01*
X-10770400Y11966600D01*
X-10770400Y11968600D01*
X-10719400Y12070600D01*
X-10513400Y12049600D01*
X-10469400Y11886600D01*
X-10467400Y11881600D01*
X-10420400Y11801600D01*
X-10417400Y11797600D01*
X-10345400Y11723600D01*
X-10342400Y11721600D01*
X-10257400Y11673600D01*
X-10255400Y11672600D01*
X-10149400Y11644600D01*
X-10051400Y11644600D01*
X-9945400Y11672600D01*
X-9943400Y11673600D01*
X-9858400Y11721600D01*
X-9855400Y11723600D01*
X-9783400Y11797600D01*
X-9780400Y11801600D01*
X-9733400Y11881600D01*
X-9729400Y11891600D01*
X-9704400Y11986600D01*
X-9703400Y11989600D01*
X-9703400Y12090600D01*
X-9730400Y12192600D01*
X-9730400Y12193600D01*
X-9783400Y12286600D01*
X-9857400Y12360600D01*
X-9943400Y12410600D01*
X-10137400Y12463600D01*
X-10181400Y12630600D01*
X-10112400Y12699600D01*
X-10098400Y12710600D01*
X-10042400Y12743600D01*
X-10040400Y12744600D01*
X-10017400Y12757600D01*
X-10014400Y12762600D01*
X-9937400Y12801600D01*
X-9935400Y12801600D01*
X-9873400Y12830600D01*
X-9871400Y12831600D01*
X-9825400Y12851600D01*
X-9823400Y12852600D01*
X-9763400Y12876600D01*
X-9761400Y12877600D01*
X-9713400Y12894600D01*
X-9711400Y12894600D01*
X-9693400Y12900600D01*
X-9690400Y12904600D01*
X-9597400Y12930600D01*
X-9596400Y12930600D01*
X-9530400Y12947600D01*
X-9527400Y12947600D01*
X-9481400Y12957600D01*
X-9478400Y12958600D01*
X-9418400Y12968600D01*
X-9416400Y12968600D01*
X-9350400Y12978600D01*
X-9348400Y12979600D01*
X-9233400Y12993600D01*
X-9230400Y12990600D01*
X-9170400Y12993600D01*
X-9168400Y12993600D01*
X-9110400Y12994600D01*
X4633600Y12994600D01*
X4691600Y12993600D01*
X4693600Y12993600D01*
X4753600Y12990600D01*
X4756600Y12993600D01*
X4871600Y12979600D01*
X4873600Y12978600D01*
X4939600Y12968600D01*
X4941600Y12968600D01*
X5001600Y12958600D01*
X5004600Y12957600D01*
X5050600Y12947600D01*
X5053600Y12947600D01*
X5119600Y12930600D01*
X5120600Y12930600D01*
X5213600Y12904600D01*
X5216600Y12900600D01*
X5234600Y12894600D01*
X5236600Y12894600D01*
X5284600Y12877600D01*
X5286600Y12876600D01*
X5346600Y12852600D01*
X5348600Y12851600D01*
X5394600Y12831600D01*
X5396600Y12830600D01*
X5458600Y12801600D01*
X5460600Y12801600D01*
X5537600Y12762600D01*
X5540600Y12757600D01*
X5563600Y12744600D01*
X5565600Y12743600D01*
X5614600Y12714600D01*
X5616600Y12713600D01*
X5668600Y12679600D01*
X5671600Y12678600D01*
X5710600Y12650600D01*
X5711600Y12649600D01*
X5766600Y12609600D01*
X5769600Y12607600D01*
X5812600Y12572600D01*
X5813600Y12571600D01*
X5860600Y12532600D01*
X5862600Y12529600D01*
X5902600Y12493600D01*
X5904600Y12491600D01*
X5945600Y12451600D01*
X5947600Y12449600D01*
X5983600Y12412600D01*
X5984600Y12411600D01*
X6023600Y12368600D01*
X6026600Y12366600D01*
X6068600Y12315600D01*
X6069600Y12313600D01*
X6100600Y12275600D01*
X6101600Y12274600D01*
X6141600Y12220600D01*
X6142600Y12218600D01*
X6172600Y12176600D01*
X6174600Y12173600D01*
X6208600Y12118600D01*
X6209600Y12117600D01*
X6235600Y12073600D01*
X6236600Y12071600D01*
X6249600Y12048600D01*
X6254600Y12045600D01*
X6293600Y11968600D01*
X6293600Y11966600D01*
X6322600Y11904600D01*
X6323600Y11902600D01*
X6343600Y11857600D01*
X6344600Y11855600D01*
X6369600Y11792600D01*
X6370600Y11789600D01*
X6389600Y11736600D01*
X6390600Y11733600D01*
X6393600Y11723600D01*
X6396600Y11721600D01*
X6422600Y11628600D01*
X6422600Y11626600D01*
X6439600Y11560600D01*
X6439600Y11558600D01*
X6449600Y11513600D01*
X6450600Y11510600D01*
X6461600Y11444600D01*
X6461600Y11442600D01*
X6470600Y11380600D01*
X6471600Y11379600D01*
X6485600Y11264600D01*
X6483600Y11261600D01*
X6488600Y11207600D01*
X6368600Y11106600D01*
X6109600Y11175600D01*
X4653600Y11175600D01*
X4398600Y11106600D01*
X4171600Y10976600D01*
G37*
%TD.AperFunction*%
%TD*%
M02*
