M48
; DRILL file {KiCad 7.0.11-7.0.11~ubuntu20.04.1} date Fri Feb  7 02:19:33 2025
; FORMAT={-:-/ absolute / metric / decimal}
; #@! TF.CreationDate,2025-02-07T02:19:33+00:00
; #@! TF.GenerationSoftware,Kicad,Pcbnew,7.0.11-7.0.11~ubuntu20.04.1
; #@! TF.FileFunction,MixedPlating,1,4
FMAT,2
METRIC
; #@! TA.AperFunction,Plated,PTH,ComponentDrill
T1C0.300
; #@! TA.AperFunction,Plated,PTH,ComponentDrill
T2C0.750
; #@! TA.AperFunction,Plated,PTH,ComponentDrill
T3C0.800
; #@! TA.AperFunction,Plated,PTH,ComponentDrill
T4C1.100
%
G90
G05
T1
X-10.146Y-6.616
X-10.1Y12.042
X-8.501Y3.834
X-8.395Y-3.738
X-8.298Y6.374
X-8.08Y11.75
X-8.031Y-6.99
X-8.031Y-6.14
X-7.118Y10.899
X-6.197Y10.883
X-5.653Y-7.219
X-4.103Y7.588
X-3.82Y-5.398
X-3.611Y11.642
X-2.267Y11.864
X-0.798Y11.964
X-0.557Y-5.374
X1.815Y12.158
X1.815Y1.695
X2.379Y-5.746
X3.074Y10.755
X3.428Y5.768
X3.614Y-6.925
X3.624Y12.158
X3.941Y-3.786
X4.033Y1.293
X5.695Y-6.603
X5.739Y11.762
T2
X-1.238Y6.586
T3
X-3.238Y6.586
T4
X-9.858Y10.184
X-9.858Y7.644
X-9.858Y5.104
X-9.858Y2.564
X-9.858Y0.024
X-9.858Y-2.516
X-9.858Y-5.056
X5.382Y10.184
X5.382Y7.644
X5.382Y5.104
X5.382Y2.564
X5.382Y0.024
X5.382Y-2.516
X5.382Y-5.056
M30
