%TF.GenerationSoftware,Flux,Pcbnew,7.0.11-7.0.11~ubuntu20.04.1*%
%TF.CreationDate,2025-02-07T02:19:33+00:00*%
%TF.ProjectId,input,696e7075-742e-46b6-9963-61645f706362,rev?*%
%TF.SameCoordinates,Original*%
%TF.FileFunction,Soldermask,Bot*%
%TF.FilePolarity,Negative*%
%FSLAX46Y46*%
G04 Gerber Fmt 4.6, Leading zero omitted, Abs format (unit mm)*
G04 Filename: imu-plus-motor-driver-2*
G04 Build it with Flux! Visit our site at: https://www.flux.ai (PCBNEW 7.0.11-7.0.11~ubuntu20.04.1) date 2025-02-07 02:19:33*
%MOMM*%
%LPD*%
G01*
G04 APERTURE LIST*
G04 APERTURE END LIST*
%TO.C,*%
G36*
X6326015Y11015091D02*
G01*
X6529485Y10897618D01*
X6695618Y10731485D01*
X6813091Y10528015D01*
X6873900Y10301073D01*
X6873900Y10066126D01*
X6813091Y9839184D01*
X6695618Y9635714D01*
X6529485Y9469581D01*
X6326015Y9352108D01*
X6099073Y9291299D01*
X4664126Y9291299D01*
X4437184Y9352108D01*
X4233714Y9469581D01*
X4067581Y9635714D01*
X3950108Y9839184D01*
X3889299Y10066126D01*
X3889299Y10301073D01*
X3950108Y10528015D01*
X4067581Y10731485D01*
X4233714Y10897618D01*
X4437184Y11015091D01*
X4664126Y11075900D01*
X6099073Y11075900D01*
X6326015Y11015091D01*
G37*
G36*
X-8913984Y-1684908D02*
G01*
X-8710514Y-1802381D01*
X-8544381Y-1968514D01*
X-8426908Y-2171984D01*
X-8366099Y-2398926D01*
X-8366099Y-2633873D01*
X-8426908Y-2860815D01*
X-8544381Y-3064285D01*
X-8710514Y-3230418D01*
X-8913984Y-3347891D01*
X-9140926Y-3408700D01*
X-10575873Y-3408700D01*
X-10802815Y-3347891D01*
X-11006285Y-3230418D01*
X-11172418Y-3064285D01*
X-11289891Y-2860815D01*
X-11350700Y-2633873D01*
X-11350700Y-2398926D01*
X-11289891Y-2171984D01*
X-11172418Y-1968514D01*
X-11006285Y-1802381D01*
X-10802815Y-1684908D01*
X-10575873Y-1624099D01*
X-9140926Y-1624099D01*
X-8913984Y-1684908D01*
G37*
G36*
X6326015Y5935091D02*
G01*
X6529485Y5817618D01*
X6695618Y5651485D01*
X6813091Y5448015D01*
X6873900Y5221073D01*
X6873900Y4986126D01*
X6813091Y4759184D01*
X6695618Y4555714D01*
X6529485Y4389581D01*
X6326015Y4272108D01*
X6099073Y4211299D01*
X4664126Y4211299D01*
X4437184Y4272108D01*
X4233714Y4389581D01*
X4067581Y4555714D01*
X3950108Y4759184D01*
X3889299Y4986126D01*
X3889299Y5221073D01*
X3950108Y5448015D01*
X4067581Y5651485D01*
X4233714Y5817618D01*
X4437184Y5935091D01*
X4664126Y5995900D01*
X6099073Y5995900D01*
X6326015Y5935091D01*
G37*
G36*
X-8913984Y3395091D02*
G01*
X-8710514Y3277618D01*
X-8544381Y3111485D01*
X-8426908Y2908015D01*
X-8366099Y2681073D01*
X-8366099Y2446126D01*
X-8426908Y2219184D01*
X-8544381Y2015714D01*
X-8710514Y1849581D01*
X-8913984Y1732108D01*
X-9140926Y1671299D01*
X-10575873Y1671299D01*
X-10802815Y1732108D01*
X-11006285Y1849581D01*
X-11172418Y2015714D01*
X-11289891Y2219184D01*
X-11350700Y2446126D01*
X-11350700Y2681073D01*
X-11289891Y2908015D01*
X-11172418Y3111485D01*
X-11006285Y3277618D01*
X-10802815Y3395091D01*
X-10575873Y3455900D01*
X-9140926Y3455900D01*
X-8913984Y3395091D01*
G37*
G36*
X6326015Y3395091D02*
G01*
X6529485Y3277618D01*
X6695618Y3111485D01*
X6813091Y2908015D01*
X6873900Y2681073D01*
X6873900Y2446126D01*
X6813091Y2219184D01*
X6695618Y2015714D01*
X6529485Y1849581D01*
X6326015Y1732108D01*
X6099073Y1671299D01*
X4664126Y1671299D01*
X4437184Y1732108D01*
X4233714Y1849581D01*
X4067581Y2015714D01*
X3950108Y2219184D01*
X3889299Y2446126D01*
X3889299Y2681073D01*
X3950108Y2908015D01*
X4067581Y3111485D01*
X4233714Y3277618D01*
X4437184Y3395091D01*
X4664126Y3455900D01*
X6099073Y3455900D01*
X6326015Y3395091D01*
G37*
G36*
X6326015Y855091D02*
G01*
X6529485Y737618D01*
X6695618Y571485D01*
X6813091Y368015D01*
X6873900Y141073D01*
X6873900Y-93873D01*
X6813091Y-320815D01*
X6695618Y-524285D01*
X6529485Y-690418D01*
X6326015Y-807891D01*
X6099073Y-868700D01*
X4664126Y-868700D01*
X4437184Y-807891D01*
X4233714Y-690418D01*
X4067581Y-524285D01*
X3950108Y-320815D01*
X3889299Y-93873D01*
X3889299Y141073D01*
X3950108Y368015D01*
X4067581Y571485D01*
X4233714Y737618D01*
X4437184Y855091D01*
X4664126Y915900D01*
X6099073Y915900D01*
X6326015Y855091D01*
G37*
G36*
X6326015Y-1684908D02*
G01*
X6529485Y-1802381D01*
X6695618Y-1968514D01*
X6813091Y-2171984D01*
X6873900Y-2398926D01*
X6873900Y-2633873D01*
X6813091Y-2860815D01*
X6695618Y-3064285D01*
X6529485Y-3230418D01*
X6326015Y-3347891D01*
X6099073Y-3408700D01*
X4664126Y-3408700D01*
X4437184Y-3347891D01*
X4233714Y-3230418D01*
X4067581Y-3064285D01*
X3950108Y-2860815D01*
X3889299Y-2633873D01*
X3889299Y-2398926D01*
X3950108Y-2171984D01*
X4067581Y-1968514D01*
X4233714Y-1802381D01*
X4437184Y-1684908D01*
X4664126Y-1624099D01*
X6099073Y-1624099D01*
X6326015Y-1684908D01*
G37*
G36*
X-8913984Y-4224908D02*
G01*
X-8710514Y-4342381D01*
X-8544381Y-4508514D01*
X-8426908Y-4711984D01*
X-8366099Y-4938926D01*
X-8366099Y-5173873D01*
X-8426908Y-5400815D01*
X-8544381Y-5604285D01*
X-8710514Y-5770418D01*
X-8913984Y-5887891D01*
X-9140926Y-5948700D01*
X-10575873Y-5948700D01*
X-10802815Y-5887891D01*
X-11006285Y-5770418D01*
X-11172418Y-5604285D01*
X-11289891Y-5400815D01*
X-11350700Y-5173873D01*
X-11350700Y-4938926D01*
X-11289891Y-4711984D01*
X-11172418Y-4508514D01*
X-11006285Y-4342381D01*
X-10802815Y-4224908D01*
X-10575873Y-4164099D01*
X-9140926Y-4164099D01*
X-8913984Y-4224908D01*
G37*
G36*
X6326015Y-4224908D02*
G01*
X6529485Y-4342381D01*
X6695618Y-4508514D01*
X6813091Y-4711984D01*
X6873900Y-4938926D01*
X6873900Y-5173873D01*
X6813091Y-5400815D01*
X6695618Y-5604285D01*
X6529485Y-5770418D01*
X6326015Y-5887891D01*
X6099073Y-5948700D01*
X4664126Y-5948700D01*
X4437184Y-5887891D01*
X4233714Y-5770418D01*
X4067581Y-5604285D01*
X3950108Y-5400815D01*
X3889299Y-5173873D01*
X3889299Y-4938926D01*
X3950108Y-4711984D01*
X4067581Y-4508514D01*
X4233714Y-4342381D01*
X4437184Y-4224908D01*
X4664126Y-4164099D01*
X6099073Y-4164099D01*
X6326015Y-4224908D01*
G37*
G36*
X6326015Y8475091D02*
G01*
X6529485Y8357618D01*
X6695618Y8191485D01*
X6813091Y7988015D01*
X6873900Y7761073D01*
X6873900Y7526126D01*
X6813091Y7299184D01*
X6695618Y7095714D01*
X6529485Y6929581D01*
X6326015Y6812108D01*
X6099073Y6751299D01*
X4664126Y6751299D01*
X4437184Y6812108D01*
X4233714Y6929581D01*
X4067581Y7095714D01*
X3950108Y7299184D01*
X3889299Y7526126D01*
X3889299Y7761073D01*
X3950108Y7988015D01*
X4067581Y8191485D01*
X4233714Y8357618D01*
X4437184Y8475091D01*
X4664126Y8535900D01*
X6099073Y8535900D01*
X6326015Y8475091D01*
G37*
G36*
X-8913984Y8475091D02*
G01*
X-8710514Y8357618D01*
X-8544381Y8191485D01*
X-8426908Y7988015D01*
X-8366099Y7761073D01*
X-8366099Y7526126D01*
X-8426908Y7299184D01*
X-8544381Y7095714D01*
X-8710514Y6929581D01*
X-8913984Y6812108D01*
X-9140926Y6751299D01*
X-10575873Y6751299D01*
X-10802815Y6812108D01*
X-11006285Y6929581D01*
X-11172418Y7095714D01*
X-11289891Y7299184D01*
X-11350700Y7526126D01*
X-11350700Y7761073D01*
X-11289891Y7988015D01*
X-11172418Y8191485D01*
X-11006285Y8357618D01*
X-10802815Y8475091D01*
X-10575873Y8535900D01*
X-9140926Y8535900D01*
X-8913984Y8475091D01*
G37*
G36*
X-8358400Y9283600D02*
G01*
X-11358400Y9283600D01*
X-11358400Y11083600D01*
X-8358400Y11083600D01*
X-8358400Y9283600D01*
G37*
G36*
X-8913984Y855091D02*
G01*
X-8710514Y737618D01*
X-8544381Y571485D01*
X-8426908Y368015D01*
X-8366099Y141073D01*
X-8366099Y-93873D01*
X-8426908Y-320815D01*
X-8544381Y-524285D01*
X-8710514Y-690418D01*
X-8913984Y-807891D01*
X-9140926Y-868700D01*
X-10575873Y-868700D01*
X-10802815Y-807891D01*
X-11006285Y-690418D01*
X-11172418Y-524285D01*
X-11289891Y-320815D01*
X-11350700Y-93873D01*
X-11350700Y141073D01*
X-11289891Y368015D01*
X-11172418Y571485D01*
X-11006285Y737618D01*
X-10802815Y855091D01*
X-10575873Y915900D01*
X-9140926Y915900D01*
X-8913984Y855091D01*
G37*
G36*
X-8913984Y5935091D02*
G01*
X-8710514Y5817618D01*
X-8544381Y5651485D01*
X-8426908Y5448015D01*
X-8366099Y5221073D01*
X-8366099Y4986126D01*
X-8426908Y4759184D01*
X-8544381Y4555714D01*
X-8710514Y4389581D01*
X-8913984Y4272108D01*
X-9140926Y4211299D01*
X-10575873Y4211299D01*
X-10802815Y4272108D01*
X-11006285Y4389581D01*
X-11172418Y4555714D01*
X-11289891Y4759184D01*
X-11350700Y4986126D01*
X-11350700Y5221073D01*
X-11289891Y5448015D01*
X-11172418Y5651485D01*
X-11006285Y5817618D01*
X-10802815Y5935091D01*
X-10575873Y5995900D01*
X-9140926Y5995900D01*
X-8913984Y5935091D01*
G37*
G36*
X-2294496Y710999D02*
G01*
X-3674496Y710999D01*
X-3674496Y1810999D01*
X-2294496Y1810999D01*
X-2294496Y710999D01*
G37*
G36*
X-2294503Y-1014999D02*
G01*
X-3674503Y-1014999D01*
X-3674503Y85000D01*
X-2294503Y85000D01*
X-2294503Y-1014999D01*
G37*
G36*
X-3391896Y-3848500D02*
G01*
X-4191896Y-3848500D01*
X-4191896Y-2948500D01*
X-3391896Y-2948500D01*
X-3391896Y-3848500D01*
G37*
G36*
X-4341903Y-5848496D02*
G01*
X-5141903Y-5848496D01*
X-5141903Y-4948496D01*
X-4341903Y-4948496D01*
X-4341903Y-5848496D01*
G37*
G36*
X-2441903Y-5848503D02*
G01*
X-3241903Y-5848503D01*
X-3241903Y-4948503D01*
X-2441903Y-4948503D01*
X-2441903Y-5848503D01*
G37*
G36*
X-1077464Y-6225156D02*
G01*
X-1074032Y-6225324D01*
X-1070608Y-6225605D01*
X-1067194Y-6225998D01*
X-1063795Y-6226502D01*
X-1060415Y-6227117D01*
X-1057056Y-6227842D01*
X-1053724Y-6228677D01*
X-1050420Y-6229621D01*
X-1047148Y-6230672D01*
X-1043913Y-6231829D01*
X-1040718Y-6233092D01*
X-1037565Y-6234459D01*
X-1034459Y-6235928D01*
X-1031403Y-6237498D01*
X-1028400Y-6239167D01*
X-1025452Y-6240933D01*
X-1022565Y-6242795D01*
X-1019739Y-6244751D01*
X-1016980Y-6246797D01*
X-1014288Y-6248933D01*
X-1011668Y-6251156D01*
X-1009122Y-6253464D01*
X-1006653Y-6255853D01*
X-1004264Y-6258322D01*
X-1001956Y-6260868D01*
X-999733Y-6263488D01*
X-997597Y-6266180D01*
X-995551Y-6268939D01*
X-993595Y-6271765D01*
X-991733Y-6274652D01*
X-989967Y-6277600D01*
X-988298Y-6280603D01*
X-986728Y-6283659D01*
X-985259Y-6286765D01*
X-983892Y-6289918D01*
X-982629Y-6293113D01*
X-981472Y-6296348D01*
X-980421Y-6299620D01*
X-979477Y-6302924D01*
X-978642Y-6306256D01*
X-977917Y-6309615D01*
X-977302Y-6312995D01*
X-976798Y-6316394D01*
X-976405Y-6319808D01*
X-976124Y-6323232D01*
X-975956Y-6326664D01*
X-975900Y-6330100D01*
X-975900Y-7520099D01*
X-975956Y-7523535D01*
X-976124Y-7526967D01*
X-976405Y-7530391D01*
X-976798Y-7533805D01*
X-977302Y-7537204D01*
X-977917Y-7540584D01*
X-978642Y-7543943D01*
X-979477Y-7547275D01*
X-980421Y-7550579D01*
X-981472Y-7553851D01*
X-982629Y-7557086D01*
X-983892Y-7560281D01*
X-985259Y-7563434D01*
X-986728Y-7566540D01*
X-988298Y-7569596D01*
X-989967Y-7572600D01*
X-991733Y-7575547D01*
X-993595Y-7578434D01*
X-995551Y-7581260D01*
X-997597Y-7584019D01*
X-999733Y-7586711D01*
X-1001956Y-7589331D01*
X-1004264Y-7591877D01*
X-1006653Y-7594346D01*
X-1009122Y-7596735D01*
X-1011668Y-7599043D01*
X-1014288Y-7601266D01*
X-1016980Y-7603402D01*
X-1019739Y-7605448D01*
X-1022565Y-7607404D01*
X-1025452Y-7609266D01*
X-1028400Y-7611032D01*
X-1031403Y-7612701D01*
X-1034459Y-7614271D01*
X-1037565Y-7615740D01*
X-1040718Y-7617107D01*
X-1043913Y-7618370D01*
X-1047148Y-7619527D01*
X-1050420Y-7620578D01*
X-1053724Y-7621522D01*
X-1057056Y-7622357D01*
X-1060415Y-7623082D01*
X-1063795Y-7623697D01*
X-1067194Y-7624201D01*
X-1070608Y-7624594D01*
X-1074032Y-7624875D01*
X-1077464Y-7625043D01*
X-1080900Y-7625100D01*
X-1895900Y-7625100D01*
X-1899335Y-7625043D01*
X-1902767Y-7624875D01*
X-1906191Y-7624594D01*
X-1909605Y-7624201D01*
X-1913004Y-7623697D01*
X-1916384Y-7623082D01*
X-1919743Y-7622357D01*
X-1923075Y-7621522D01*
X-1926379Y-7620578D01*
X-1929651Y-7619527D01*
X-1932886Y-7618370D01*
X-1936081Y-7617107D01*
X-1939234Y-7615740D01*
X-1942340Y-7614271D01*
X-1945396Y-7612701D01*
X-1948400Y-7611032D01*
X-1951347Y-7609266D01*
X-1954234Y-7607404D01*
X-1957060Y-7605448D01*
X-1959819Y-7603402D01*
X-1962511Y-7601266D01*
X-1965131Y-7599043D01*
X-1967677Y-7596735D01*
X-1970146Y-7594346D01*
X-1972535Y-7591877D01*
X-1974843Y-7589331D01*
X-1977066Y-7586711D01*
X-1979202Y-7584019D01*
X-1981248Y-7581260D01*
X-1983204Y-7578434D01*
X-1985066Y-7575547D01*
X-1986832Y-7572600D01*
X-1988501Y-7569596D01*
X-1990071Y-7566540D01*
X-1991540Y-7563434D01*
X-1992907Y-7560281D01*
X-1994170Y-7557086D01*
X-1995327Y-7553851D01*
X-1996378Y-7550579D01*
X-1997322Y-7547275D01*
X-1998157Y-7543943D01*
X-1998882Y-7540584D01*
X-1999497Y-7537204D01*
X-2000001Y-7533805D01*
X-2000394Y-7530391D01*
X-2000675Y-7526967D01*
X-2000843Y-7523535D01*
X-2000899Y-7520099D01*
X-2000899Y-6330100D01*
X-2000843Y-6326664D01*
X-2000675Y-6323232D01*
X-2000394Y-6319808D01*
X-2000001Y-6316394D01*
X-1999497Y-6312995D01*
X-1998882Y-6309615D01*
X-1998157Y-6306256D01*
X-1997322Y-6302924D01*
X-1996378Y-6299620D01*
X-1995327Y-6296348D01*
X-1994170Y-6293113D01*
X-1992907Y-6289918D01*
X-1991540Y-6286765D01*
X-1990071Y-6283659D01*
X-1988501Y-6280603D01*
X-1986832Y-6277600D01*
X-1985066Y-6274652D01*
X-1983204Y-6271765D01*
X-1981248Y-6268939D01*
X-1979202Y-6266180D01*
X-1977066Y-6263488D01*
X-1974843Y-6260868D01*
X-1972535Y-6258322D01*
X-1970146Y-6255853D01*
X-1967677Y-6253464D01*
X-1965131Y-6251156D01*
X-1962511Y-6248933D01*
X-1959819Y-6246797D01*
X-1957060Y-6244751D01*
X-1954234Y-6242795D01*
X-1951347Y-6240933D01*
X-1948400Y-6239167D01*
X-1945396Y-6237498D01*
X-1942340Y-6235928D01*
X-1939234Y-6234459D01*
X-1936081Y-6233092D01*
X-1932886Y-6231829D01*
X-1929651Y-6230672D01*
X-1926379Y-6229621D01*
X-1923075Y-6228677D01*
X-1919743Y-6227842D01*
X-1916384Y-6227117D01*
X-1913004Y-6226502D01*
X-1909605Y-6225998D01*
X-1906191Y-6225605D01*
X-1902767Y-6225324D01*
X-1899335Y-6225156D01*
X-1895900Y-6225099D01*
X-1080900Y-6225099D01*
X-1077464Y-6225156D01*
G37*
G36*
X747535Y-6225156D02*
G01*
X750967Y-6225324D01*
X754391Y-6225605D01*
X757805Y-6225998D01*
X761204Y-6226502D01*
X764584Y-6227117D01*
X767943Y-6227842D01*
X771275Y-6228677D01*
X774579Y-6229621D01*
X777851Y-6230672D01*
X781086Y-6231829D01*
X784281Y-6233092D01*
X787434Y-6234459D01*
X790540Y-6235928D01*
X793596Y-6237498D01*
X796600Y-6239167D01*
X799547Y-6240933D01*
X802434Y-6242795D01*
X805260Y-6244751D01*
X808019Y-6246797D01*
X810711Y-6248933D01*
X813331Y-6251156D01*
X815877Y-6253464D01*
X818346Y-6255853D01*
X820735Y-6258322D01*
X823043Y-6260868D01*
X825266Y-6263488D01*
X827402Y-6266180D01*
X829448Y-6268939D01*
X831404Y-6271765D01*
X833266Y-6274652D01*
X835032Y-6277600D01*
X836701Y-6280603D01*
X838271Y-6283659D01*
X839740Y-6286765D01*
X841107Y-6289918D01*
X842370Y-6293113D01*
X843527Y-6296348D01*
X844578Y-6299620D01*
X845522Y-6302924D01*
X846357Y-6306256D01*
X847082Y-6309615D01*
X847697Y-6312995D01*
X848201Y-6316394D01*
X848594Y-6319808D01*
X848875Y-6323232D01*
X849043Y-6326664D01*
X849100Y-6330100D01*
X849100Y-7520099D01*
X849043Y-7523535D01*
X848875Y-7526967D01*
X848594Y-7530391D01*
X848201Y-7533805D01*
X847697Y-7537204D01*
X847082Y-7540584D01*
X846357Y-7543943D01*
X845522Y-7547275D01*
X844578Y-7550579D01*
X843527Y-7553851D01*
X842370Y-7557086D01*
X841107Y-7560281D01*
X839740Y-7563434D01*
X838271Y-7566540D01*
X836701Y-7569596D01*
X835032Y-7572600D01*
X833266Y-7575547D01*
X831404Y-7578434D01*
X829448Y-7581260D01*
X827402Y-7584019D01*
X825266Y-7586711D01*
X823043Y-7589331D01*
X820735Y-7591877D01*
X818346Y-7594346D01*
X815877Y-7596735D01*
X813331Y-7599043D01*
X810711Y-7601266D01*
X808019Y-7603402D01*
X805260Y-7605448D01*
X802434Y-7607404D01*
X799547Y-7609266D01*
X796600Y-7611032D01*
X793596Y-7612701D01*
X790540Y-7614271D01*
X787434Y-7615740D01*
X784281Y-7617107D01*
X781086Y-7618370D01*
X777851Y-7619527D01*
X774579Y-7620578D01*
X771275Y-7621522D01*
X767943Y-7622357D01*
X764584Y-7623082D01*
X761204Y-7623697D01*
X757805Y-7624201D01*
X754391Y-7624594D01*
X750967Y-7624875D01*
X747535Y-7625043D01*
X744100Y-7625100D01*
X-70899Y-7625100D01*
X-74335Y-7625043D01*
X-77767Y-7624875D01*
X-81191Y-7624594D01*
X-84605Y-7624201D01*
X-88004Y-7623697D01*
X-91384Y-7623082D01*
X-94743Y-7622357D01*
X-98075Y-7621522D01*
X-101379Y-7620578D01*
X-104651Y-7619527D01*
X-107886Y-7618370D01*
X-111081Y-7617107D01*
X-114234Y-7615740D01*
X-117340Y-7614271D01*
X-120396Y-7612701D01*
X-123400Y-7611032D01*
X-126347Y-7609266D01*
X-129234Y-7607404D01*
X-132060Y-7605448D01*
X-134819Y-7603402D01*
X-137511Y-7601266D01*
X-140131Y-7599043D01*
X-142677Y-7596735D01*
X-145146Y-7594346D01*
X-147535Y-7591877D01*
X-149843Y-7589331D01*
X-152066Y-7586711D01*
X-154202Y-7584019D01*
X-156248Y-7581260D01*
X-158204Y-7578434D01*
X-160066Y-7575547D01*
X-161832Y-7572600D01*
X-163501Y-7569596D01*
X-165071Y-7566540D01*
X-166540Y-7563434D01*
X-167907Y-7560281D01*
X-169170Y-7557086D01*
X-170327Y-7553851D01*
X-171378Y-7550579D01*
X-172322Y-7547275D01*
X-173157Y-7543943D01*
X-173882Y-7540584D01*
X-174497Y-7537204D01*
X-175001Y-7533805D01*
X-175394Y-7530391D01*
X-175675Y-7526967D01*
X-175843Y-7523535D01*
X-175899Y-7520099D01*
X-175899Y-6330100D01*
X-175843Y-6326664D01*
X-175675Y-6323232D01*
X-175394Y-6319808D01*
X-175001Y-6316394D01*
X-174497Y-6312995D01*
X-173882Y-6309615D01*
X-173157Y-6306256D01*
X-172322Y-6302924D01*
X-171378Y-6299620D01*
X-170327Y-6296348D01*
X-169170Y-6293113D01*
X-167907Y-6289918D01*
X-166540Y-6286765D01*
X-165071Y-6283659D01*
X-163501Y-6280603D01*
X-161832Y-6277600D01*
X-160066Y-6274652D01*
X-158204Y-6271765D01*
X-156248Y-6268939D01*
X-154202Y-6266180D01*
X-152066Y-6263488D01*
X-149843Y-6260868D01*
X-147535Y-6258322D01*
X-145146Y-6255853D01*
X-142677Y-6253464D01*
X-140131Y-6251156D01*
X-137511Y-6248933D01*
X-134819Y-6246797D01*
X-132060Y-6244751D01*
X-129234Y-6242795D01*
X-126347Y-6240933D01*
X-123400Y-6239167D01*
X-120396Y-6237498D01*
X-117340Y-6235928D01*
X-114234Y-6234459D01*
X-111081Y-6233092D01*
X-107886Y-6231829D01*
X-104651Y-6230672D01*
X-101379Y-6229621D01*
X-98075Y-6228677D01*
X-94743Y-6227842D01*
X-91384Y-6227117D01*
X-88004Y-6226502D01*
X-84605Y-6225998D01*
X-81191Y-6225605D01*
X-77767Y-6225324D01*
X-74335Y-6225156D01*
X-70899Y-6225099D01*
X744100Y-6225099D01*
X747535Y-6225156D01*
G37*
G36*
X-2911200Y2281600D02*
G01*
X-4291200Y2281600D01*
X-4291200Y3381600D01*
X-2911200Y3381600D01*
X-2911200Y2281600D01*
G37*
G36*
X-2911199Y4007599D02*
G01*
X-4291199Y4007599D01*
X-4291199Y5107599D01*
X-2911199Y5107599D01*
X-2911199Y4007599D01*
G37*
G36*
X-5846196Y3244599D02*
G01*
X-6646196Y3244599D01*
X-6646196Y4144599D01*
X-5846196Y4144599D01*
X-5846196Y3244599D01*
G37*
G36*
X-6796203Y1244603D02*
G01*
X-7596203Y1244603D01*
X-7596203Y2144603D01*
X-6796203Y2144603D01*
X-6796203Y1244603D01*
G37*
G36*
X-4896203Y1244596D02*
G01*
X-5696203Y1244596D01*
X-5696203Y2144596D01*
X-4896203Y2144596D01*
X-4896203Y1244596D01*
G37*
G36*
X-6785264Y907143D02*
G01*
X-6781832Y906975D01*
X-6778408Y906694D01*
X-6774994Y906301D01*
X-6771595Y905797D01*
X-6768215Y905182D01*
X-6764856Y904457D01*
X-6761524Y903622D01*
X-6758220Y902678D01*
X-6754948Y901627D01*
X-6751713Y900470D01*
X-6748518Y899207D01*
X-6745365Y897840D01*
X-6742259Y896371D01*
X-6739203Y894801D01*
X-6736200Y893132D01*
X-6733252Y891366D01*
X-6730365Y889504D01*
X-6727539Y887548D01*
X-6724780Y885502D01*
X-6722088Y883366D01*
X-6719468Y881143D01*
X-6716922Y878835D01*
X-6714453Y876446D01*
X-6712064Y873977D01*
X-6709756Y871431D01*
X-6707533Y868811D01*
X-6705397Y866119D01*
X-6703351Y863360D01*
X-6701395Y860534D01*
X-6699533Y857647D01*
X-6697767Y854700D01*
X-6696098Y851696D01*
X-6694528Y848640D01*
X-6693059Y845534D01*
X-6691692Y842381D01*
X-6690429Y839186D01*
X-6689272Y835951D01*
X-6688221Y832679D01*
X-6687277Y829375D01*
X-6686442Y826043D01*
X-6685717Y822684D01*
X-6685102Y819304D01*
X-6684598Y815905D01*
X-6684205Y812491D01*
X-6683924Y809067D01*
X-6683756Y805635D01*
X-6683700Y802200D01*
X-6683700Y-387800D01*
X-6683756Y-391235D01*
X-6683924Y-394667D01*
X-6684205Y-398091D01*
X-6684598Y-401505D01*
X-6685102Y-404904D01*
X-6685717Y-408284D01*
X-6686442Y-411643D01*
X-6687277Y-414975D01*
X-6688221Y-418279D01*
X-6689272Y-421551D01*
X-6690429Y-424786D01*
X-6691692Y-427981D01*
X-6693059Y-431134D01*
X-6694528Y-434240D01*
X-6696098Y-437296D01*
X-6697767Y-440299D01*
X-6699533Y-443247D01*
X-6701395Y-446134D01*
X-6703351Y-448960D01*
X-6705397Y-451719D01*
X-6707533Y-454411D01*
X-6709756Y-457031D01*
X-6712064Y-459577D01*
X-6714453Y-462046D01*
X-6716922Y-464435D01*
X-6719468Y-466743D01*
X-6722088Y-468966D01*
X-6724780Y-471102D01*
X-6727539Y-473148D01*
X-6730365Y-475104D01*
X-6733252Y-476966D01*
X-6736200Y-478732D01*
X-6739203Y-480401D01*
X-6742259Y-481971D01*
X-6745365Y-483440D01*
X-6748518Y-484807D01*
X-6751713Y-486070D01*
X-6754948Y-487227D01*
X-6758220Y-488278D01*
X-6761524Y-489222D01*
X-6764856Y-490057D01*
X-6768215Y-490782D01*
X-6771595Y-491397D01*
X-6774994Y-491901D01*
X-6778408Y-492294D01*
X-6781832Y-492575D01*
X-6785264Y-492743D01*
X-6788700Y-492799D01*
X-7603700Y-492799D01*
X-7607135Y-492743D01*
X-7610567Y-492575D01*
X-7613991Y-492294D01*
X-7617405Y-491901D01*
X-7620804Y-491397D01*
X-7624184Y-490782D01*
X-7627543Y-490057D01*
X-7630875Y-489222D01*
X-7634179Y-488278D01*
X-7637451Y-487227D01*
X-7640686Y-486070D01*
X-7643881Y-484807D01*
X-7647034Y-483440D01*
X-7650140Y-481971D01*
X-7653196Y-480401D01*
X-7656200Y-478732D01*
X-7659147Y-476966D01*
X-7662034Y-475104D01*
X-7664860Y-473148D01*
X-7667619Y-471102D01*
X-7670311Y-468966D01*
X-7672931Y-466743D01*
X-7675477Y-464435D01*
X-7677946Y-462046D01*
X-7680335Y-459577D01*
X-7682643Y-457031D01*
X-7684866Y-454411D01*
X-7687002Y-451719D01*
X-7689048Y-448960D01*
X-7691004Y-446134D01*
X-7692866Y-443247D01*
X-7694632Y-440299D01*
X-7696301Y-437296D01*
X-7697871Y-434240D01*
X-7699340Y-431134D01*
X-7700707Y-427981D01*
X-7701970Y-424786D01*
X-7703127Y-421551D01*
X-7704178Y-418279D01*
X-7705122Y-414975D01*
X-7705957Y-411643D01*
X-7706682Y-408284D01*
X-7707297Y-404904D01*
X-7707801Y-401505D01*
X-7708194Y-398091D01*
X-7708475Y-394667D01*
X-7708643Y-391235D01*
X-7708700Y-387800D01*
X-7708700Y802200D01*
X-7708643Y805635D01*
X-7708475Y809067D01*
X-7708194Y812491D01*
X-7707801Y815905D01*
X-7707297Y819304D01*
X-7706682Y822684D01*
X-7705957Y826043D01*
X-7705122Y829375D01*
X-7704178Y832679D01*
X-7703127Y835951D01*
X-7701970Y839186D01*
X-7700707Y842381D01*
X-7699340Y845534D01*
X-7697871Y848640D01*
X-7696301Y851696D01*
X-7694632Y854700D01*
X-7692866Y857647D01*
X-7691004Y860534D01*
X-7689048Y863360D01*
X-7687002Y866119D01*
X-7684866Y868811D01*
X-7682643Y871431D01*
X-7680335Y873977D01*
X-7677946Y876446D01*
X-7675477Y878835D01*
X-7672931Y881143D01*
X-7670311Y883366D01*
X-7667619Y885502D01*
X-7664860Y887548D01*
X-7662034Y889504D01*
X-7659147Y891366D01*
X-7656200Y893132D01*
X-7653196Y894801D01*
X-7650140Y896371D01*
X-7647034Y897840D01*
X-7643881Y899207D01*
X-7640686Y900470D01*
X-7637451Y901627D01*
X-7634179Y902678D01*
X-7630875Y903622D01*
X-7627543Y904457D01*
X-7624184Y905182D01*
X-7620804Y905797D01*
X-7617405Y906301D01*
X-7613991Y906694D01*
X-7610567Y906975D01*
X-7607135Y907143D01*
X-7603700Y907200D01*
X-6788700Y907200D01*
X-6785264Y907143D01*
G37*
G36*
X-4960264Y907143D02*
G01*
X-4956832Y906975D01*
X-4953408Y906694D01*
X-4949994Y906301D01*
X-4946595Y905797D01*
X-4943215Y905182D01*
X-4939856Y904457D01*
X-4936524Y903622D01*
X-4933220Y902678D01*
X-4929948Y901627D01*
X-4926713Y900470D01*
X-4923518Y899207D01*
X-4920365Y897840D01*
X-4917259Y896371D01*
X-4914203Y894801D01*
X-4911200Y893132D01*
X-4908252Y891366D01*
X-4905365Y889504D01*
X-4902539Y887548D01*
X-4899780Y885502D01*
X-4897088Y883366D01*
X-4894468Y881143D01*
X-4891922Y878835D01*
X-4889453Y876446D01*
X-4887064Y873977D01*
X-4884756Y871431D01*
X-4882533Y868811D01*
X-4880397Y866119D01*
X-4878351Y863360D01*
X-4876395Y860534D01*
X-4874533Y857647D01*
X-4872767Y854700D01*
X-4871098Y851696D01*
X-4869528Y848640D01*
X-4868059Y845534D01*
X-4866692Y842381D01*
X-4865429Y839186D01*
X-4864272Y835951D01*
X-4863221Y832679D01*
X-4862277Y829375D01*
X-4861442Y826043D01*
X-4860717Y822684D01*
X-4860102Y819304D01*
X-4859598Y815905D01*
X-4859205Y812491D01*
X-4858924Y809067D01*
X-4858756Y805635D01*
X-4858700Y802200D01*
X-4858700Y-387800D01*
X-4858756Y-391235D01*
X-4858924Y-394667D01*
X-4859205Y-398091D01*
X-4859598Y-401505D01*
X-4860102Y-404904D01*
X-4860717Y-408284D01*
X-4861442Y-411643D01*
X-4862277Y-414975D01*
X-4863221Y-418279D01*
X-4864272Y-421551D01*
X-4865429Y-424786D01*
X-4866692Y-427981D01*
X-4868059Y-431134D01*
X-4869528Y-434240D01*
X-4871098Y-437296D01*
X-4872767Y-440299D01*
X-4874533Y-443247D01*
X-4876395Y-446134D01*
X-4878351Y-448960D01*
X-4880397Y-451719D01*
X-4882533Y-454411D01*
X-4884756Y-457031D01*
X-4887064Y-459577D01*
X-4889453Y-462046D01*
X-4891922Y-464435D01*
X-4894468Y-466743D01*
X-4897088Y-468966D01*
X-4899780Y-471102D01*
X-4902539Y-473148D01*
X-4905365Y-475104D01*
X-4908252Y-476966D01*
X-4911200Y-478732D01*
X-4914203Y-480401D01*
X-4917259Y-481971D01*
X-4920365Y-483440D01*
X-4923518Y-484807D01*
X-4926713Y-486070D01*
X-4929948Y-487227D01*
X-4933220Y-488278D01*
X-4936524Y-489222D01*
X-4939856Y-490057D01*
X-4943215Y-490782D01*
X-4946595Y-491397D01*
X-4949994Y-491901D01*
X-4953408Y-492294D01*
X-4956832Y-492575D01*
X-4960264Y-492743D01*
X-4963700Y-492799D01*
X-5778700Y-492799D01*
X-5782135Y-492743D01*
X-5785567Y-492575D01*
X-5788991Y-492294D01*
X-5792405Y-491901D01*
X-5795804Y-491397D01*
X-5799184Y-490782D01*
X-5802543Y-490057D01*
X-5805875Y-489222D01*
X-5809179Y-488278D01*
X-5812451Y-487227D01*
X-5815686Y-486070D01*
X-5818881Y-484807D01*
X-5822034Y-483440D01*
X-5825140Y-481971D01*
X-5828196Y-480401D01*
X-5831200Y-478732D01*
X-5834147Y-476966D01*
X-5837034Y-475104D01*
X-5839860Y-473148D01*
X-5842619Y-471102D01*
X-5845311Y-468966D01*
X-5847931Y-466743D01*
X-5850477Y-464435D01*
X-5852946Y-462046D01*
X-5855335Y-459577D01*
X-5857643Y-457031D01*
X-5859866Y-454411D01*
X-5862002Y-451719D01*
X-5864048Y-448960D01*
X-5866004Y-446134D01*
X-5867866Y-443247D01*
X-5869632Y-440299D01*
X-5871301Y-437296D01*
X-5872871Y-434240D01*
X-5874340Y-431134D01*
X-5875707Y-427981D01*
X-5876970Y-424786D01*
X-5878127Y-421551D01*
X-5879178Y-418279D01*
X-5880122Y-414975D01*
X-5880957Y-411643D01*
X-5881682Y-408284D01*
X-5882297Y-404904D01*
X-5882801Y-401505D01*
X-5883194Y-398091D01*
X-5883475Y-394667D01*
X-5883643Y-391235D01*
X-5883700Y-387800D01*
X-5883700Y802200D01*
X-5883643Y805635D01*
X-5883475Y809067D01*
X-5883194Y812491D01*
X-5882801Y815905D01*
X-5882297Y819304D01*
X-5881682Y822684D01*
X-5880957Y826043D01*
X-5880122Y829375D01*
X-5879178Y832679D01*
X-5878127Y835951D01*
X-5876970Y839186D01*
X-5875707Y842381D01*
X-5874340Y845534D01*
X-5872871Y848640D01*
X-5871301Y851696D01*
X-5869632Y854700D01*
X-5867866Y857647D01*
X-5866004Y860534D01*
X-5864048Y863360D01*
X-5862002Y866119D01*
X-5859866Y868811D01*
X-5857643Y871431D01*
X-5855335Y873977D01*
X-5852946Y876446D01*
X-5850477Y878835D01*
X-5847931Y881143D01*
X-5845311Y883366D01*
X-5842619Y885502D01*
X-5839860Y887548D01*
X-5837034Y889504D01*
X-5834147Y891366D01*
X-5831200Y893132D01*
X-5828196Y894801D01*
X-5825140Y896371D01*
X-5822034Y897840D01*
X-5818881Y899207D01*
X-5815686Y900470D01*
X-5812451Y901627D01*
X-5809179Y902678D01*
X-5805875Y903622D01*
X-5802543Y904457D01*
X-5799184Y905182D01*
X-5795804Y905797D01*
X-5792405Y906301D01*
X-5788991Y906694D01*
X-5785567Y906975D01*
X-5782135Y907143D01*
X-5778700Y907200D01*
X-4963700Y907200D01*
X-4960264Y907143D01*
G37*
G36*
X-6642900Y11458000D02*
G01*
X-7592899Y11458000D01*
X-7592899Y12857999D01*
X-6642900Y12857999D01*
X-6642900Y11458000D01*
G37*
G36*
X-8542900Y11458000D02*
G01*
X-9492899Y11458000D01*
X-9492899Y12857999D01*
X-8542900Y12857999D01*
X-8542900Y11458000D01*
G37*
G36*
X5054399Y11458000D02*
G01*
X4104400Y11458000D01*
X4104400Y12857999D01*
X5054399Y12857999D01*
X5054399Y11458000D01*
G37*
G36*
X3154400Y11458000D02*
G01*
X2204399Y11458000D01*
X2204399Y12857999D01*
X3154400Y12857999D01*
X3154400Y11458000D01*
G37*
G36*
X-138296Y-3848500D02*
G01*
X-938296Y-3848500D01*
X-938296Y-2948500D01*
X-138296Y-2948500D01*
X-138296Y-3848500D01*
G37*
G36*
X-1088403Y-5848496D02*
G01*
X-1888403Y-5848496D01*
X-1888403Y-4948496D01*
X-1088403Y-4948496D01*
X-1088403Y-5848496D01*
G37*
G36*
X811696Y-5848503D02*
G01*
X11696Y-5848503D01*
X11696Y-4948503D01*
X811696Y-4948503D01*
X811696Y-5848503D01*
G37*
G36*
X-5314200Y4704102D02*
G01*
X-5914200Y4704102D01*
X-5914200Y5154102D01*
X-5314200Y5154102D01*
X-5314200Y4704102D01*
G37*
G36*
X-7414199Y4704097D02*
G01*
X-8014199Y4704097D01*
X-8014199Y5154097D01*
X-7414199Y5154097D01*
X-7414199Y4704097D01*
G37*
G36*
X-654896Y711599D02*
G01*
X-2034896Y711599D01*
X-2034896Y1811599D01*
X-654896Y1811599D01*
X-654896Y711599D01*
G37*
G36*
X-654903Y-1014399D02*
G01*
X-2034903Y-1014399D01*
X-2034903Y85600D01*
X-654903Y85600D01*
X-654903Y-1014399D01*
G37*
G36*
X2215003Y3244599D02*
G01*
X1415003Y3244599D01*
X1415003Y4144599D01*
X2215003Y4144599D01*
X2215003Y3244599D01*
G37*
G36*
X1264996Y1244603D02*
G01*
X464996Y1244603D01*
X464996Y2144603D01*
X1264996Y2144603D01*
X1264996Y1244603D01*
G37*
G36*
X3164996Y1244596D02*
G01*
X2364996Y1244596D01*
X2364996Y2144596D01*
X3164996Y2144596D01*
X3164996Y1244596D01*
G37*
G36*
X1375935Y907143D02*
G01*
X1379367Y906975D01*
X1382791Y906694D01*
X1386205Y906301D01*
X1389604Y905797D01*
X1392984Y905182D01*
X1396343Y904457D01*
X1399675Y903622D01*
X1402979Y902678D01*
X1406251Y901627D01*
X1409486Y900470D01*
X1412681Y899207D01*
X1415834Y897840D01*
X1418940Y896371D01*
X1421996Y894801D01*
X1425000Y893132D01*
X1427947Y891366D01*
X1430834Y889504D01*
X1433660Y887548D01*
X1436419Y885502D01*
X1439111Y883366D01*
X1441731Y881143D01*
X1444277Y878835D01*
X1446746Y876446D01*
X1449135Y873977D01*
X1451443Y871431D01*
X1453666Y868811D01*
X1455802Y866119D01*
X1457848Y863360D01*
X1459804Y860534D01*
X1461666Y857647D01*
X1463432Y854700D01*
X1465101Y851696D01*
X1466671Y848640D01*
X1468140Y845534D01*
X1469507Y842381D01*
X1470770Y839186D01*
X1471927Y835951D01*
X1472978Y832679D01*
X1473922Y829375D01*
X1474757Y826043D01*
X1475482Y822684D01*
X1476097Y819304D01*
X1476601Y815905D01*
X1476994Y812491D01*
X1477275Y809067D01*
X1477443Y805635D01*
X1477500Y802200D01*
X1477500Y-387800D01*
X1477443Y-391235D01*
X1477275Y-394667D01*
X1476994Y-398091D01*
X1476601Y-401505D01*
X1476097Y-404904D01*
X1475482Y-408284D01*
X1474757Y-411643D01*
X1473922Y-414975D01*
X1472978Y-418279D01*
X1471927Y-421551D01*
X1470770Y-424786D01*
X1469507Y-427981D01*
X1468140Y-431134D01*
X1466671Y-434240D01*
X1465101Y-437296D01*
X1463432Y-440299D01*
X1461666Y-443247D01*
X1459804Y-446134D01*
X1457848Y-448960D01*
X1455802Y-451719D01*
X1453666Y-454411D01*
X1451443Y-457031D01*
X1449135Y-459577D01*
X1446746Y-462046D01*
X1444277Y-464435D01*
X1441731Y-466743D01*
X1439111Y-468966D01*
X1436419Y-471102D01*
X1433660Y-473148D01*
X1430834Y-475104D01*
X1427947Y-476966D01*
X1425000Y-478732D01*
X1421996Y-480401D01*
X1418940Y-481971D01*
X1415834Y-483440D01*
X1412681Y-484807D01*
X1409486Y-486070D01*
X1406251Y-487227D01*
X1402979Y-488278D01*
X1399675Y-489222D01*
X1396343Y-490057D01*
X1392984Y-490782D01*
X1389604Y-491397D01*
X1386205Y-491901D01*
X1382791Y-492294D01*
X1379367Y-492575D01*
X1375935Y-492743D01*
X1372500Y-492799D01*
X557500Y-492799D01*
X554064Y-492743D01*
X550632Y-492575D01*
X547208Y-492294D01*
X543794Y-491901D01*
X540395Y-491397D01*
X537015Y-490782D01*
X533656Y-490057D01*
X530324Y-489222D01*
X527020Y-488278D01*
X523748Y-487227D01*
X520513Y-486070D01*
X517318Y-484807D01*
X514165Y-483440D01*
X511059Y-481971D01*
X508003Y-480401D01*
X504999Y-478732D01*
X502052Y-476966D01*
X499165Y-475104D01*
X496339Y-473148D01*
X493580Y-471102D01*
X490888Y-468966D01*
X488268Y-466743D01*
X485722Y-464435D01*
X483253Y-462046D01*
X480864Y-459577D01*
X478556Y-457031D01*
X476333Y-454411D01*
X474197Y-451719D01*
X472151Y-448960D01*
X470195Y-446134D01*
X468333Y-443247D01*
X466567Y-440299D01*
X464898Y-437296D01*
X463328Y-434240D01*
X461859Y-431134D01*
X460492Y-427981D01*
X459229Y-424786D01*
X458072Y-421551D01*
X457021Y-418279D01*
X456077Y-414975D01*
X455242Y-411643D01*
X454517Y-408284D01*
X453902Y-404904D01*
X453398Y-401505D01*
X453005Y-398091D01*
X452724Y-394667D01*
X452556Y-391235D01*
X452500Y-387800D01*
X452500Y802200D01*
X452556Y805635D01*
X452724Y809067D01*
X453005Y812491D01*
X453398Y815905D01*
X453902Y819304D01*
X454517Y822684D01*
X455242Y826043D01*
X456077Y829375D01*
X457021Y832679D01*
X458072Y835951D01*
X459229Y839186D01*
X460492Y842381D01*
X461859Y845534D01*
X463328Y848640D01*
X464898Y851696D01*
X466567Y854700D01*
X468333Y857647D01*
X470195Y860534D01*
X472151Y863360D01*
X474197Y866119D01*
X476333Y868811D01*
X478556Y871431D01*
X480864Y873977D01*
X483253Y876446D01*
X485722Y878835D01*
X488268Y881143D01*
X490888Y883366D01*
X493580Y885502D01*
X496339Y887548D01*
X499165Y889504D01*
X502052Y891366D01*
X504999Y893132D01*
X508003Y894801D01*
X511059Y896371D01*
X514165Y897840D01*
X517318Y899207D01*
X520513Y900470D01*
X523748Y901627D01*
X527020Y902678D01*
X530324Y903622D01*
X533656Y904457D01*
X537015Y905182D01*
X540395Y905797D01*
X543794Y906301D01*
X547208Y906694D01*
X550632Y906975D01*
X554064Y907143D01*
X557500Y907200D01*
X1372500Y907200D01*
X1375935Y907143D01*
G37*
G36*
X3200935Y907143D02*
G01*
X3204367Y906975D01*
X3207791Y906694D01*
X3211205Y906301D01*
X3214604Y905797D01*
X3217984Y905182D01*
X3221343Y904457D01*
X3224675Y903622D01*
X3227979Y902678D01*
X3231251Y901627D01*
X3234486Y900470D01*
X3237681Y899207D01*
X3240834Y897840D01*
X3243940Y896371D01*
X3246996Y894801D01*
X3250000Y893132D01*
X3252947Y891366D01*
X3255834Y889504D01*
X3258660Y887548D01*
X3261419Y885502D01*
X3264111Y883366D01*
X3266731Y881143D01*
X3269277Y878835D01*
X3271746Y876446D01*
X3274135Y873977D01*
X3276443Y871431D01*
X3278666Y868811D01*
X3280802Y866119D01*
X3282848Y863360D01*
X3284804Y860534D01*
X3286666Y857647D01*
X3288432Y854700D01*
X3290101Y851696D01*
X3291671Y848640D01*
X3293140Y845534D01*
X3294507Y842381D01*
X3295770Y839186D01*
X3296927Y835951D01*
X3297978Y832679D01*
X3298922Y829375D01*
X3299757Y826043D01*
X3300482Y822684D01*
X3301097Y819304D01*
X3301601Y815905D01*
X3301994Y812491D01*
X3302275Y809067D01*
X3302443Y805635D01*
X3302500Y802200D01*
X3302500Y-387800D01*
X3302443Y-391235D01*
X3302275Y-394667D01*
X3301994Y-398091D01*
X3301601Y-401505D01*
X3301097Y-404904D01*
X3300482Y-408284D01*
X3299757Y-411643D01*
X3298922Y-414975D01*
X3297978Y-418279D01*
X3296927Y-421551D01*
X3295770Y-424786D01*
X3294507Y-427981D01*
X3293140Y-431134D01*
X3291671Y-434240D01*
X3290101Y-437296D01*
X3288432Y-440299D01*
X3286666Y-443247D01*
X3284804Y-446134D01*
X3282848Y-448960D01*
X3280802Y-451719D01*
X3278666Y-454411D01*
X3276443Y-457031D01*
X3274135Y-459577D01*
X3271746Y-462046D01*
X3269277Y-464435D01*
X3266731Y-466743D01*
X3264111Y-468966D01*
X3261419Y-471102D01*
X3258660Y-473148D01*
X3255834Y-475104D01*
X3252947Y-476966D01*
X3250000Y-478732D01*
X3246996Y-480401D01*
X3243940Y-481971D01*
X3240834Y-483440D01*
X3237681Y-484807D01*
X3234486Y-486070D01*
X3231251Y-487227D01*
X3227979Y-488278D01*
X3224675Y-489222D01*
X3221343Y-490057D01*
X3217984Y-490782D01*
X3214604Y-491397D01*
X3211205Y-491901D01*
X3207791Y-492294D01*
X3204367Y-492575D01*
X3200935Y-492743D01*
X3197500Y-492799D01*
X2382500Y-492799D01*
X2379064Y-492743D01*
X2375632Y-492575D01*
X2372208Y-492294D01*
X2368794Y-491901D01*
X2365395Y-491397D01*
X2362015Y-490782D01*
X2358656Y-490057D01*
X2355324Y-489222D01*
X2352020Y-488278D01*
X2348748Y-487227D01*
X2345513Y-486070D01*
X2342318Y-484807D01*
X2339165Y-483440D01*
X2336059Y-481971D01*
X2333003Y-480401D01*
X2330000Y-478732D01*
X2327052Y-476966D01*
X2324165Y-475104D01*
X2321339Y-473148D01*
X2318580Y-471102D01*
X2315888Y-468966D01*
X2313268Y-466743D01*
X2310722Y-464435D01*
X2308253Y-462046D01*
X2305864Y-459577D01*
X2303556Y-457031D01*
X2301333Y-454411D01*
X2299197Y-451719D01*
X2297151Y-448960D01*
X2295195Y-446134D01*
X2293333Y-443247D01*
X2291567Y-440299D01*
X2289898Y-437296D01*
X2288328Y-434240D01*
X2286859Y-431134D01*
X2285492Y-427981D01*
X2284229Y-424786D01*
X2283072Y-421551D01*
X2282021Y-418279D01*
X2281077Y-414975D01*
X2280242Y-411643D01*
X2279517Y-408284D01*
X2278902Y-404904D01*
X2278398Y-401505D01*
X2278005Y-398091D01*
X2277724Y-394667D01*
X2277556Y-391235D01*
X2277500Y-387800D01*
X2277500Y802200D01*
X2277556Y805635D01*
X2277724Y809067D01*
X2278005Y812491D01*
X2278398Y815905D01*
X2278902Y819304D01*
X2279517Y822684D01*
X2280242Y826043D01*
X2281077Y829375D01*
X2282021Y832679D01*
X2283072Y835951D01*
X2284229Y839186D01*
X2285492Y842381D01*
X2286859Y845534D01*
X2288328Y848640D01*
X2289898Y851696D01*
X2291567Y854700D01*
X2293333Y857647D01*
X2295195Y860534D01*
X2297151Y863360D01*
X2299197Y866119D01*
X2301333Y868811D01*
X2303556Y871431D01*
X2305864Y873977D01*
X2308253Y876446D01*
X2310722Y878835D01*
X2313268Y881143D01*
X2315888Y883366D01*
X2318580Y885502D01*
X2321339Y887548D01*
X2324165Y889504D01*
X2327052Y891366D01*
X2330000Y893132D01*
X2333003Y894801D01*
X2336059Y896371D01*
X2339165Y897840D01*
X2342318Y899207D01*
X2345513Y900470D01*
X2348748Y901627D01*
X2352020Y902678D01*
X2355324Y903622D01*
X2358656Y904457D01*
X2362015Y905182D01*
X2365395Y905797D01*
X2368794Y906301D01*
X2372208Y906694D01*
X2375632Y906975D01*
X2379064Y907143D01*
X2382500Y907200D01*
X3197500Y907200D01*
X3200935Y907143D01*
G37*
G36*
X-2441900Y-2241397D02*
G01*
X-3041900Y-2241397D01*
X-3041900Y-1791397D01*
X-2441900Y-1791397D01*
X-2441900Y-2241397D01*
G37*
G36*
X-4541899Y-2241402D02*
G01*
X-5141899Y-2241402D01*
X-5141899Y-1791402D01*
X-4541899Y-1791402D01*
X-4541899Y-2241402D01*
G37*
G36*
X-4255964Y-6225156D02*
G01*
X-4252532Y-6225324D01*
X-4249108Y-6225605D01*
X-4245694Y-6225998D01*
X-4242295Y-6226502D01*
X-4238915Y-6227117D01*
X-4235556Y-6227842D01*
X-4232224Y-6228677D01*
X-4228920Y-6229621D01*
X-4225648Y-6230672D01*
X-4222413Y-6231829D01*
X-4219218Y-6233092D01*
X-4216065Y-6234459D01*
X-4212959Y-6235928D01*
X-4209903Y-6237498D01*
X-4206900Y-6239167D01*
X-4203952Y-6240933D01*
X-4201065Y-6242795D01*
X-4198239Y-6244751D01*
X-4195480Y-6246797D01*
X-4192788Y-6248933D01*
X-4190168Y-6251156D01*
X-4187622Y-6253464D01*
X-4185153Y-6255853D01*
X-4182764Y-6258322D01*
X-4180456Y-6260868D01*
X-4178233Y-6263488D01*
X-4176097Y-6266180D01*
X-4174051Y-6268939D01*
X-4172095Y-6271765D01*
X-4170233Y-6274652D01*
X-4168467Y-6277600D01*
X-4166798Y-6280603D01*
X-4165228Y-6283659D01*
X-4163759Y-6286765D01*
X-4162392Y-6289918D01*
X-4161129Y-6293113D01*
X-4159972Y-6296348D01*
X-4158921Y-6299620D01*
X-4157977Y-6302924D01*
X-4157142Y-6306256D01*
X-4156417Y-6309615D01*
X-4155802Y-6312995D01*
X-4155298Y-6316394D01*
X-4154905Y-6319808D01*
X-4154624Y-6323232D01*
X-4154456Y-6326664D01*
X-4154400Y-6330100D01*
X-4154400Y-7520099D01*
X-4154456Y-7523535D01*
X-4154624Y-7526967D01*
X-4154905Y-7530391D01*
X-4155298Y-7533805D01*
X-4155802Y-7537204D01*
X-4156417Y-7540584D01*
X-4157142Y-7543943D01*
X-4157977Y-7547275D01*
X-4158921Y-7550579D01*
X-4159972Y-7553851D01*
X-4161129Y-7557086D01*
X-4162392Y-7560281D01*
X-4163759Y-7563434D01*
X-4165228Y-7566540D01*
X-4166798Y-7569596D01*
X-4168467Y-7572600D01*
X-4170233Y-7575547D01*
X-4172095Y-7578434D01*
X-4174051Y-7581260D01*
X-4176097Y-7584019D01*
X-4178233Y-7586711D01*
X-4180456Y-7589331D01*
X-4182764Y-7591877D01*
X-4185153Y-7594346D01*
X-4187622Y-7596735D01*
X-4190168Y-7599043D01*
X-4192788Y-7601266D01*
X-4195480Y-7603402D01*
X-4198239Y-7605448D01*
X-4201065Y-7607404D01*
X-4203952Y-7609266D01*
X-4206900Y-7611032D01*
X-4209903Y-7612701D01*
X-4212959Y-7614271D01*
X-4216065Y-7615740D01*
X-4219218Y-7617107D01*
X-4222413Y-7618370D01*
X-4225648Y-7619527D01*
X-4228920Y-7620578D01*
X-4232224Y-7621522D01*
X-4235556Y-7622357D01*
X-4238915Y-7623082D01*
X-4242295Y-7623697D01*
X-4245694Y-7624201D01*
X-4249108Y-7624594D01*
X-4252532Y-7624875D01*
X-4255964Y-7625043D01*
X-4259400Y-7625100D01*
X-5074400Y-7625100D01*
X-5077835Y-7625043D01*
X-5081267Y-7624875D01*
X-5084691Y-7624594D01*
X-5088105Y-7624201D01*
X-5091504Y-7623697D01*
X-5094884Y-7623082D01*
X-5098243Y-7622357D01*
X-5101575Y-7621522D01*
X-5104879Y-7620578D01*
X-5108151Y-7619527D01*
X-5111386Y-7618370D01*
X-5114581Y-7617107D01*
X-5117734Y-7615740D01*
X-5120840Y-7614271D01*
X-5123896Y-7612701D01*
X-5126900Y-7611032D01*
X-5129847Y-7609266D01*
X-5132734Y-7607404D01*
X-5135560Y-7605448D01*
X-5138319Y-7603402D01*
X-5141011Y-7601266D01*
X-5143631Y-7599043D01*
X-5146177Y-7596735D01*
X-5148646Y-7594346D01*
X-5151035Y-7591877D01*
X-5153343Y-7589331D01*
X-5155566Y-7586711D01*
X-5157702Y-7584019D01*
X-5159748Y-7581260D01*
X-5161704Y-7578434D01*
X-5163566Y-7575547D01*
X-5165332Y-7572600D01*
X-5167001Y-7569596D01*
X-5168571Y-7566540D01*
X-5170040Y-7563434D01*
X-5171407Y-7560281D01*
X-5172670Y-7557086D01*
X-5173827Y-7553851D01*
X-5174878Y-7550579D01*
X-5175822Y-7547275D01*
X-5176657Y-7543943D01*
X-5177382Y-7540584D01*
X-5177997Y-7537204D01*
X-5178501Y-7533805D01*
X-5178894Y-7530391D01*
X-5179175Y-7526967D01*
X-5179343Y-7523535D01*
X-5179400Y-7520099D01*
X-5179400Y-6330100D01*
X-5179343Y-6326664D01*
X-5179175Y-6323232D01*
X-5178894Y-6319808D01*
X-5178501Y-6316394D01*
X-5177997Y-6312995D01*
X-5177382Y-6309615D01*
X-5176657Y-6306256D01*
X-5175822Y-6302924D01*
X-5174878Y-6299620D01*
X-5173827Y-6296348D01*
X-5172670Y-6293113D01*
X-5171407Y-6289918D01*
X-5170040Y-6286765D01*
X-5168571Y-6283659D01*
X-5167001Y-6280603D01*
X-5165332Y-6277600D01*
X-5163566Y-6274652D01*
X-5161704Y-6271765D01*
X-5159748Y-6268939D01*
X-5157702Y-6266180D01*
X-5155566Y-6263488D01*
X-5153343Y-6260868D01*
X-5151035Y-6258322D01*
X-5148646Y-6255853D01*
X-5146177Y-6253464D01*
X-5143631Y-6251156D01*
X-5141011Y-6248933D01*
X-5138319Y-6246797D01*
X-5135560Y-6244751D01*
X-5132734Y-6242795D01*
X-5129847Y-6240933D01*
X-5126900Y-6239167D01*
X-5123896Y-6237498D01*
X-5120840Y-6235928D01*
X-5117734Y-6234459D01*
X-5114581Y-6233092D01*
X-5111386Y-6231829D01*
X-5108151Y-6230672D01*
X-5104879Y-6229621D01*
X-5101575Y-6228677D01*
X-5098243Y-6227842D01*
X-5094884Y-6227117D01*
X-5091504Y-6226502D01*
X-5088105Y-6225998D01*
X-5084691Y-6225605D01*
X-5081267Y-6225324D01*
X-5077835Y-6225156D01*
X-5074400Y-6225099D01*
X-4259400Y-6225099D01*
X-4255964Y-6225156D01*
G37*
G36*
X-2430964Y-6225156D02*
G01*
X-2427532Y-6225324D01*
X-2424108Y-6225605D01*
X-2420694Y-6225998D01*
X-2417295Y-6226502D01*
X-2413915Y-6227117D01*
X-2410556Y-6227842D01*
X-2407224Y-6228677D01*
X-2403920Y-6229621D01*
X-2400648Y-6230672D01*
X-2397413Y-6231829D01*
X-2394218Y-6233092D01*
X-2391065Y-6234459D01*
X-2387959Y-6235928D01*
X-2384903Y-6237498D01*
X-2381900Y-6239167D01*
X-2378952Y-6240933D01*
X-2376065Y-6242795D01*
X-2373239Y-6244751D01*
X-2370480Y-6246797D01*
X-2367788Y-6248933D01*
X-2365168Y-6251156D01*
X-2362622Y-6253464D01*
X-2360153Y-6255853D01*
X-2357764Y-6258322D01*
X-2355456Y-6260868D01*
X-2353233Y-6263488D01*
X-2351097Y-6266180D01*
X-2349051Y-6268939D01*
X-2347095Y-6271765D01*
X-2345233Y-6274652D01*
X-2343467Y-6277600D01*
X-2341798Y-6280603D01*
X-2340228Y-6283659D01*
X-2338759Y-6286765D01*
X-2337392Y-6289918D01*
X-2336129Y-6293113D01*
X-2334972Y-6296348D01*
X-2333921Y-6299620D01*
X-2332977Y-6302924D01*
X-2332142Y-6306256D01*
X-2331417Y-6309615D01*
X-2330802Y-6312995D01*
X-2330298Y-6316394D01*
X-2329905Y-6319808D01*
X-2329624Y-6323232D01*
X-2329456Y-6326664D01*
X-2329399Y-6330100D01*
X-2329399Y-7520099D01*
X-2329456Y-7523535D01*
X-2329624Y-7526967D01*
X-2329905Y-7530391D01*
X-2330298Y-7533805D01*
X-2330802Y-7537204D01*
X-2331417Y-7540584D01*
X-2332142Y-7543943D01*
X-2332977Y-7547275D01*
X-2333921Y-7550579D01*
X-2334972Y-7553851D01*
X-2336129Y-7557086D01*
X-2337392Y-7560281D01*
X-2338759Y-7563434D01*
X-2340228Y-7566540D01*
X-2341798Y-7569596D01*
X-2343467Y-7572600D01*
X-2345233Y-7575547D01*
X-2347095Y-7578434D01*
X-2349051Y-7581260D01*
X-2351097Y-7584019D01*
X-2353233Y-7586711D01*
X-2355456Y-7589331D01*
X-2357764Y-7591877D01*
X-2360153Y-7594346D01*
X-2362622Y-7596735D01*
X-2365168Y-7599043D01*
X-2367788Y-7601266D01*
X-2370480Y-7603402D01*
X-2373239Y-7605448D01*
X-2376065Y-7607404D01*
X-2378952Y-7609266D01*
X-2381900Y-7611032D01*
X-2384903Y-7612701D01*
X-2387959Y-7614271D01*
X-2391065Y-7615740D01*
X-2394218Y-7617107D01*
X-2397413Y-7618370D01*
X-2400648Y-7619527D01*
X-2403920Y-7620578D01*
X-2407224Y-7621522D01*
X-2410556Y-7622357D01*
X-2413915Y-7623082D01*
X-2417295Y-7623697D01*
X-2420694Y-7624201D01*
X-2424108Y-7624594D01*
X-2427532Y-7624875D01*
X-2430964Y-7625043D01*
X-2434400Y-7625100D01*
X-3249399Y-7625100D01*
X-3252835Y-7625043D01*
X-3256267Y-7624875D01*
X-3259691Y-7624594D01*
X-3263105Y-7624201D01*
X-3266504Y-7623697D01*
X-3269884Y-7623082D01*
X-3273243Y-7622357D01*
X-3276575Y-7621522D01*
X-3279879Y-7620578D01*
X-3283151Y-7619527D01*
X-3286386Y-7618370D01*
X-3289581Y-7617107D01*
X-3292734Y-7615740D01*
X-3295840Y-7614271D01*
X-3298896Y-7612701D01*
X-3301900Y-7611032D01*
X-3304847Y-7609266D01*
X-3307734Y-7607404D01*
X-3310560Y-7605448D01*
X-3313319Y-7603402D01*
X-3316011Y-7601266D01*
X-3318631Y-7599043D01*
X-3321177Y-7596735D01*
X-3323646Y-7594346D01*
X-3326035Y-7591877D01*
X-3328343Y-7589331D01*
X-3330566Y-7586711D01*
X-3332702Y-7584019D01*
X-3334748Y-7581260D01*
X-3336704Y-7578434D01*
X-3338566Y-7575547D01*
X-3340332Y-7572600D01*
X-3342001Y-7569596D01*
X-3343571Y-7566540D01*
X-3345040Y-7563434D01*
X-3346407Y-7560281D01*
X-3347670Y-7557086D01*
X-3348827Y-7553851D01*
X-3349878Y-7550579D01*
X-3350822Y-7547275D01*
X-3351657Y-7543943D01*
X-3352382Y-7540584D01*
X-3352997Y-7537204D01*
X-3353501Y-7533805D01*
X-3353894Y-7530391D01*
X-3354175Y-7526967D01*
X-3354343Y-7523535D01*
X-3354400Y-7520099D01*
X-3354400Y-6330100D01*
X-3354343Y-6326664D01*
X-3354175Y-6323232D01*
X-3353894Y-6319808D01*
X-3353501Y-6316394D01*
X-3352997Y-6312995D01*
X-3352382Y-6309615D01*
X-3351657Y-6306256D01*
X-3350822Y-6302924D01*
X-3349878Y-6299620D01*
X-3348827Y-6296348D01*
X-3347670Y-6293113D01*
X-3346407Y-6289918D01*
X-3345040Y-6286765D01*
X-3343571Y-6283659D01*
X-3342001Y-6280603D01*
X-3340332Y-6277600D01*
X-3338566Y-6274652D01*
X-3336704Y-6271765D01*
X-3334748Y-6268939D01*
X-3332702Y-6266180D01*
X-3330566Y-6263488D01*
X-3328343Y-6260868D01*
X-3326035Y-6258322D01*
X-3323646Y-6255853D01*
X-3321177Y-6253464D01*
X-3318631Y-6251156D01*
X-3316011Y-6248933D01*
X-3313319Y-6246797D01*
X-3310560Y-6244751D01*
X-3307734Y-6242795D01*
X-3304847Y-6240933D01*
X-3301900Y-6239167D01*
X-3298896Y-6237498D01*
X-3295840Y-6235928D01*
X-3292734Y-6234459D01*
X-3289581Y-6233092D01*
X-3286386Y-6231829D01*
X-3283151Y-6230672D01*
X-3279879Y-6229621D01*
X-3276575Y-6228677D01*
X-3273243Y-6227842D01*
X-3269884Y-6227117D01*
X-3266504Y-6226502D01*
X-3263105Y-6225998D01*
X-3259691Y-6225605D01*
X-3256267Y-6225324D01*
X-3252835Y-6225156D01*
X-3249399Y-6225099D01*
X-2434400Y-6225099D01*
X-2430964Y-6225156D01*
G37*
G36*
X-6731964Y-6225156D02*
G01*
X-6728532Y-6225324D01*
X-6725108Y-6225605D01*
X-6721694Y-6225998D01*
X-6718295Y-6226502D01*
X-6714915Y-6227117D01*
X-6711556Y-6227842D01*
X-6708224Y-6228677D01*
X-6704920Y-6229621D01*
X-6701648Y-6230672D01*
X-6698413Y-6231829D01*
X-6695218Y-6233092D01*
X-6692065Y-6234459D01*
X-6688959Y-6235928D01*
X-6685903Y-6237498D01*
X-6682900Y-6239167D01*
X-6679952Y-6240933D01*
X-6677065Y-6242795D01*
X-6674239Y-6244751D01*
X-6671480Y-6246797D01*
X-6668788Y-6248933D01*
X-6666168Y-6251156D01*
X-6663622Y-6253464D01*
X-6661153Y-6255853D01*
X-6658764Y-6258322D01*
X-6656456Y-6260868D01*
X-6654233Y-6263488D01*
X-6652097Y-6266180D01*
X-6650051Y-6268939D01*
X-6648095Y-6271765D01*
X-6646233Y-6274652D01*
X-6644467Y-6277600D01*
X-6642798Y-6280603D01*
X-6641228Y-6283659D01*
X-6639759Y-6286765D01*
X-6638392Y-6289918D01*
X-6637129Y-6293113D01*
X-6635972Y-6296348D01*
X-6634921Y-6299620D01*
X-6633977Y-6302924D01*
X-6633142Y-6306256D01*
X-6632417Y-6309615D01*
X-6631802Y-6312995D01*
X-6631298Y-6316394D01*
X-6630905Y-6319808D01*
X-6630624Y-6323232D01*
X-6630456Y-6326664D01*
X-6630400Y-6330100D01*
X-6630400Y-7520099D01*
X-6630456Y-7523535D01*
X-6630624Y-7526967D01*
X-6630905Y-7530391D01*
X-6631298Y-7533805D01*
X-6631802Y-7537204D01*
X-6632417Y-7540584D01*
X-6633142Y-7543943D01*
X-6633977Y-7547275D01*
X-6634921Y-7550579D01*
X-6635972Y-7553851D01*
X-6637129Y-7557086D01*
X-6638392Y-7560281D01*
X-6639759Y-7563434D01*
X-6641228Y-7566540D01*
X-6642798Y-7569596D01*
X-6644467Y-7572600D01*
X-6646233Y-7575547D01*
X-6648095Y-7578434D01*
X-6650051Y-7581260D01*
X-6652097Y-7584019D01*
X-6654233Y-7586711D01*
X-6656456Y-7589331D01*
X-6658764Y-7591877D01*
X-6661153Y-7594346D01*
X-6663622Y-7596735D01*
X-6666168Y-7599043D01*
X-6668788Y-7601266D01*
X-6671480Y-7603402D01*
X-6674239Y-7605448D01*
X-6677065Y-7607404D01*
X-6679952Y-7609266D01*
X-6682900Y-7611032D01*
X-6685903Y-7612701D01*
X-6688959Y-7614271D01*
X-6692065Y-7615740D01*
X-6695218Y-7617107D01*
X-6698413Y-7618370D01*
X-6701648Y-7619527D01*
X-6704920Y-7620578D01*
X-6708224Y-7621522D01*
X-6711556Y-7622357D01*
X-6714915Y-7623082D01*
X-6718295Y-7623697D01*
X-6721694Y-7624201D01*
X-6725108Y-7624594D01*
X-6728532Y-7624875D01*
X-6731964Y-7625043D01*
X-6735399Y-7625100D01*
X-7500400Y-7625100D01*
X-7503835Y-7625043D01*
X-7507267Y-7624875D01*
X-7510691Y-7624594D01*
X-7514105Y-7624201D01*
X-7517504Y-7623697D01*
X-7520884Y-7623082D01*
X-7524243Y-7622357D01*
X-7527575Y-7621522D01*
X-7530879Y-7620578D01*
X-7534151Y-7619527D01*
X-7537386Y-7618370D01*
X-7540581Y-7617107D01*
X-7543734Y-7615740D01*
X-7546840Y-7614271D01*
X-7549896Y-7612701D01*
X-7552899Y-7611032D01*
X-7555847Y-7609266D01*
X-7558734Y-7607404D01*
X-7561560Y-7605448D01*
X-7564319Y-7603402D01*
X-7567011Y-7601266D01*
X-7569631Y-7599043D01*
X-7572177Y-7596735D01*
X-7574646Y-7594346D01*
X-7577035Y-7591877D01*
X-7579343Y-7589331D01*
X-7581566Y-7586711D01*
X-7583702Y-7584019D01*
X-7585748Y-7581260D01*
X-7587704Y-7578434D01*
X-7589566Y-7575547D01*
X-7591332Y-7572600D01*
X-7593001Y-7569596D01*
X-7594571Y-7566540D01*
X-7596040Y-7563434D01*
X-7597407Y-7560281D01*
X-7598670Y-7557086D01*
X-7599827Y-7553851D01*
X-7600878Y-7550579D01*
X-7601822Y-7547275D01*
X-7602657Y-7543943D01*
X-7603382Y-7540584D01*
X-7603997Y-7537204D01*
X-7604501Y-7533805D01*
X-7604894Y-7530391D01*
X-7605175Y-7526967D01*
X-7605343Y-7523535D01*
X-7605399Y-7520099D01*
X-7605399Y-6330100D01*
X-7605343Y-6326664D01*
X-7605175Y-6323232D01*
X-7604894Y-6319808D01*
X-7604501Y-6316394D01*
X-7603997Y-6312995D01*
X-7603382Y-6309615D01*
X-7602657Y-6306256D01*
X-7601822Y-6302924D01*
X-7600878Y-6299620D01*
X-7599827Y-6296348D01*
X-7598670Y-6293113D01*
X-7597407Y-6289918D01*
X-7596040Y-6286765D01*
X-7594571Y-6283659D01*
X-7593001Y-6280603D01*
X-7591332Y-6277600D01*
X-7589566Y-6274652D01*
X-7587704Y-6271765D01*
X-7585748Y-6268939D01*
X-7583702Y-6266180D01*
X-7581566Y-6263488D01*
X-7579343Y-6260868D01*
X-7577035Y-6258322D01*
X-7574646Y-6255853D01*
X-7572177Y-6253464D01*
X-7569631Y-6251156D01*
X-7567011Y-6248933D01*
X-7564319Y-6246797D01*
X-7561560Y-6244751D01*
X-7558734Y-6242795D01*
X-7555847Y-6240933D01*
X-7552899Y-6239167D01*
X-7549896Y-6237498D01*
X-7546840Y-6235928D01*
X-7543734Y-6234459D01*
X-7540581Y-6233092D01*
X-7537386Y-6231829D01*
X-7534151Y-6230672D01*
X-7530879Y-6229621D01*
X-7527575Y-6228677D01*
X-7524243Y-6227842D01*
X-7520884Y-6227117D01*
X-7517504Y-6226502D01*
X-7514105Y-6225998D01*
X-7510691Y-6225605D01*
X-7507267Y-6225324D01*
X-7503835Y-6225156D01*
X-7500400Y-6225099D01*
X-6735399Y-6225099D01*
X-6731964Y-6225156D01*
G37*
G36*
X-8606964Y-6225156D02*
G01*
X-8603532Y-6225324D01*
X-8600108Y-6225605D01*
X-8596694Y-6225998D01*
X-8593295Y-6226502D01*
X-8589915Y-6227117D01*
X-8586556Y-6227842D01*
X-8583224Y-6228677D01*
X-8579920Y-6229621D01*
X-8576648Y-6230672D01*
X-8573413Y-6231829D01*
X-8570218Y-6233092D01*
X-8567065Y-6234459D01*
X-8563959Y-6235928D01*
X-8560903Y-6237498D01*
X-8557900Y-6239167D01*
X-8554952Y-6240933D01*
X-8552065Y-6242795D01*
X-8549239Y-6244751D01*
X-8546480Y-6246797D01*
X-8543788Y-6248933D01*
X-8541168Y-6251156D01*
X-8538622Y-6253464D01*
X-8536153Y-6255853D01*
X-8533764Y-6258322D01*
X-8531456Y-6260868D01*
X-8529233Y-6263488D01*
X-8527097Y-6266180D01*
X-8525051Y-6268939D01*
X-8523095Y-6271765D01*
X-8521233Y-6274652D01*
X-8519467Y-6277600D01*
X-8517798Y-6280603D01*
X-8516228Y-6283659D01*
X-8514759Y-6286765D01*
X-8513392Y-6289918D01*
X-8512129Y-6293113D01*
X-8510972Y-6296348D01*
X-8509921Y-6299620D01*
X-8508977Y-6302924D01*
X-8508142Y-6306256D01*
X-8507417Y-6309615D01*
X-8506802Y-6312995D01*
X-8506298Y-6316394D01*
X-8505905Y-6319808D01*
X-8505624Y-6323232D01*
X-8505456Y-6326664D01*
X-8505400Y-6330100D01*
X-8505400Y-7520099D01*
X-8505456Y-7523535D01*
X-8505624Y-7526967D01*
X-8505905Y-7530391D01*
X-8506298Y-7533805D01*
X-8506802Y-7537204D01*
X-8507417Y-7540584D01*
X-8508142Y-7543943D01*
X-8508977Y-7547275D01*
X-8509921Y-7550579D01*
X-8510972Y-7553851D01*
X-8512129Y-7557086D01*
X-8513392Y-7560281D01*
X-8514759Y-7563434D01*
X-8516228Y-7566540D01*
X-8517798Y-7569596D01*
X-8519467Y-7572600D01*
X-8521233Y-7575547D01*
X-8523095Y-7578434D01*
X-8525051Y-7581260D01*
X-8527097Y-7584019D01*
X-8529233Y-7586711D01*
X-8531456Y-7589331D01*
X-8533764Y-7591877D01*
X-8536153Y-7594346D01*
X-8538622Y-7596735D01*
X-8541168Y-7599043D01*
X-8543788Y-7601266D01*
X-8546480Y-7603402D01*
X-8549239Y-7605448D01*
X-8552065Y-7607404D01*
X-8554952Y-7609266D01*
X-8557900Y-7611032D01*
X-8560903Y-7612701D01*
X-8563959Y-7614271D01*
X-8567065Y-7615740D01*
X-8570218Y-7617107D01*
X-8573413Y-7618370D01*
X-8576648Y-7619527D01*
X-8579920Y-7620578D01*
X-8583224Y-7621522D01*
X-8586556Y-7622357D01*
X-8589915Y-7623082D01*
X-8593295Y-7623697D01*
X-8596694Y-7624201D01*
X-8600108Y-7624594D01*
X-8603532Y-7624875D01*
X-8606964Y-7625043D01*
X-8610400Y-7625100D01*
X-9375400Y-7625100D01*
X-9378835Y-7625043D01*
X-9382267Y-7624875D01*
X-9385691Y-7624594D01*
X-9389105Y-7624201D01*
X-9392504Y-7623697D01*
X-9395884Y-7623082D01*
X-9399243Y-7622357D01*
X-9402575Y-7621522D01*
X-9405879Y-7620578D01*
X-9409151Y-7619527D01*
X-9412386Y-7618370D01*
X-9415581Y-7617107D01*
X-9418734Y-7615740D01*
X-9421840Y-7614271D01*
X-9424896Y-7612701D01*
X-9427900Y-7611032D01*
X-9430847Y-7609266D01*
X-9433734Y-7607404D01*
X-9436560Y-7605448D01*
X-9439319Y-7603402D01*
X-9442011Y-7601266D01*
X-9444631Y-7599043D01*
X-9447177Y-7596735D01*
X-9449646Y-7594346D01*
X-9452035Y-7591877D01*
X-9454343Y-7589331D01*
X-9456566Y-7586711D01*
X-9458702Y-7584019D01*
X-9460748Y-7581260D01*
X-9462704Y-7578434D01*
X-9464566Y-7575547D01*
X-9466332Y-7572600D01*
X-9468001Y-7569596D01*
X-9469571Y-7566540D01*
X-9471040Y-7563434D01*
X-9472407Y-7560281D01*
X-9473670Y-7557086D01*
X-9474827Y-7553851D01*
X-9475878Y-7550579D01*
X-9476822Y-7547275D01*
X-9477657Y-7543943D01*
X-9478382Y-7540584D01*
X-9478997Y-7537204D01*
X-9479501Y-7533805D01*
X-9479894Y-7530391D01*
X-9480175Y-7526967D01*
X-9480343Y-7523535D01*
X-9480400Y-7520099D01*
X-9480400Y-6330100D01*
X-9480343Y-6326664D01*
X-9480175Y-6323232D01*
X-9479894Y-6319808D01*
X-9479501Y-6316394D01*
X-9478997Y-6312995D01*
X-9478382Y-6309615D01*
X-9477657Y-6306256D01*
X-9476822Y-6302924D01*
X-9475878Y-6299620D01*
X-9474827Y-6296348D01*
X-9473670Y-6293113D01*
X-9472407Y-6289918D01*
X-9471040Y-6286765D01*
X-9469571Y-6283659D01*
X-9468001Y-6280603D01*
X-9466332Y-6277600D01*
X-9464566Y-6274652D01*
X-9462704Y-6271765D01*
X-9460748Y-6268939D01*
X-9458702Y-6266180D01*
X-9456566Y-6263488D01*
X-9454343Y-6260868D01*
X-9452035Y-6258322D01*
X-9449646Y-6255853D01*
X-9447177Y-6253464D01*
X-9444631Y-6251156D01*
X-9442011Y-6248933D01*
X-9439319Y-6246797D01*
X-9436560Y-6244751D01*
X-9433734Y-6242795D01*
X-9430847Y-6240933D01*
X-9427900Y-6239167D01*
X-9424896Y-6237498D01*
X-9421840Y-6235928D01*
X-9418734Y-6234459D01*
X-9415581Y-6233092D01*
X-9412386Y-6231829D01*
X-9409151Y-6230672D01*
X-9405879Y-6229621D01*
X-9402575Y-6228677D01*
X-9399243Y-6227842D01*
X-9395884Y-6227117D01*
X-9392504Y-6226502D01*
X-9389105Y-6225998D01*
X-9385691Y-6225605D01*
X-9382267Y-6225324D01*
X-9378835Y-6225156D01*
X-9375400Y-6225099D01*
X-8610400Y-6225099D01*
X-8606964Y-6225156D01*
G37*
G36*
X-1288400Y-2241400D02*
G01*
X-1888400Y-2241400D01*
X-1888400Y-1791399D01*
X-1288400Y-1791399D01*
X-1288400Y-2241400D01*
G37*
G36*
X811600Y-2241400D02*
G01*
X211600Y-2241400D01*
X211600Y-1791399D01*
X811600Y-1791399D01*
X811600Y-2241400D01*
G37*
G36*
X1458000Y4704100D02*
G01*
X857999Y4704100D01*
X857999Y5154100D01*
X1458000Y5154100D01*
X1458000Y4704100D01*
G37*
G36*
X3558000Y4704100D02*
G01*
X2958000Y4704100D01*
X2958000Y5154100D01*
X3558000Y5154100D01*
X3558000Y4704100D01*
G37*
G36*
X-2765307Y7460629D02*
G01*
X-2761019Y7460419D01*
X-2756740Y7460068D01*
X-2752474Y7459577D01*
X-2748228Y7458947D01*
X-2744004Y7458179D01*
X-2739807Y7457272D01*
X-2735642Y7456229D01*
X-2731514Y7455050D01*
X-2727427Y7453737D01*
X-2723384Y7452290D01*
X-2719391Y7450712D01*
X-2715452Y7449005D01*
X-2711571Y7447169D01*
X-2707752Y7445208D01*
X-2703999Y7443122D01*
X-2700317Y7440915D01*
X-2696709Y7438588D01*
X-2693178Y7436145D01*
X-2689730Y7433587D01*
X-2686367Y7430918D01*
X-2683093Y7428141D01*
X-2679912Y7425258D01*
X-2676827Y7422272D01*
X-2673841Y7419187D01*
X-2670958Y7416006D01*
X-2668181Y7412732D01*
X-2665512Y7409369D01*
X-2662954Y7405921D01*
X-2660511Y7402390D01*
X-2658184Y7398782D01*
X-2655977Y7395100D01*
X-2653891Y7391347D01*
X-2651930Y7387528D01*
X-2650094Y7383647D01*
X-2648387Y7379708D01*
X-2646809Y7375715D01*
X-2645362Y7371672D01*
X-2644049Y7367585D01*
X-2642870Y7363457D01*
X-2641827Y7359292D01*
X-2640920Y7355095D01*
X-2640152Y7350871D01*
X-2639522Y7346625D01*
X-2639031Y7342359D01*
X-2638680Y7338080D01*
X-2638470Y7333792D01*
X-2638400Y7329500D01*
X-2638400Y5841900D01*
X-2638470Y5837607D01*
X-2638680Y5833319D01*
X-2639031Y5829040D01*
X-2639522Y5824774D01*
X-2640152Y5820528D01*
X-2640920Y5816304D01*
X-2641827Y5812107D01*
X-2642870Y5807942D01*
X-2644049Y5803814D01*
X-2645362Y5799727D01*
X-2646809Y5795684D01*
X-2648387Y5791691D01*
X-2650094Y5787752D01*
X-2651930Y5783871D01*
X-2653891Y5780052D01*
X-2655977Y5776300D01*
X-2658184Y5772617D01*
X-2660511Y5769009D01*
X-2662954Y5765478D01*
X-2665512Y5762030D01*
X-2668181Y5758667D01*
X-2670958Y5755393D01*
X-2673841Y5752212D01*
X-2676827Y5749127D01*
X-2679912Y5746141D01*
X-2683093Y5743258D01*
X-2686367Y5740481D01*
X-2689730Y5737812D01*
X-2693178Y5735254D01*
X-2696709Y5732811D01*
X-2700317Y5730484D01*
X-2704000Y5728277D01*
X-2707752Y5726191D01*
X-2711571Y5724230D01*
X-2715452Y5722394D01*
X-2719391Y5720687D01*
X-2723384Y5719109D01*
X-2727427Y5717662D01*
X-2731514Y5716349D01*
X-2735642Y5715170D01*
X-2739807Y5714127D01*
X-2744004Y5713220D01*
X-2748228Y5712452D01*
X-2752474Y5711822D01*
X-2756740Y5711331D01*
X-2761019Y5710980D01*
X-2765307Y5710770D01*
X-2769600Y5710700D01*
X-3707200Y5710700D01*
X-3711492Y5710770D01*
X-3715780Y5710980D01*
X-3720059Y5711331D01*
X-3724325Y5711822D01*
X-3728571Y5712452D01*
X-3732795Y5713220D01*
X-3736992Y5714127D01*
X-3741157Y5715170D01*
X-3745285Y5716349D01*
X-3749372Y5717662D01*
X-3753415Y5719109D01*
X-3757408Y5720687D01*
X-3761347Y5722394D01*
X-3765228Y5724230D01*
X-3769047Y5726191D01*
X-3772800Y5728277D01*
X-3776482Y5730484D01*
X-3780090Y5732811D01*
X-3783621Y5735254D01*
X-3787069Y5737812D01*
X-3790432Y5740481D01*
X-3793706Y5743258D01*
X-3796887Y5746141D01*
X-3799972Y5749127D01*
X-3802958Y5752212D01*
X-3805841Y5755393D01*
X-3808618Y5758667D01*
X-3811287Y5762030D01*
X-3813845Y5765478D01*
X-3816288Y5769009D01*
X-3818615Y5772617D01*
X-3820822Y5776300D01*
X-3822908Y5780052D01*
X-3824869Y5783871D01*
X-3826705Y5787752D01*
X-3828412Y5791691D01*
X-3829990Y5795684D01*
X-3831437Y5799727D01*
X-3832750Y5803814D01*
X-3833929Y5807942D01*
X-3834972Y5812107D01*
X-3835879Y5816304D01*
X-3836647Y5820528D01*
X-3837277Y5824774D01*
X-3837768Y5829040D01*
X-3838119Y5833319D01*
X-3838329Y5837607D01*
X-3838400Y5841900D01*
X-3838400Y7329500D01*
X-3838329Y7333792D01*
X-3838119Y7338080D01*
X-3837768Y7342359D01*
X-3837277Y7346625D01*
X-3836647Y7350871D01*
X-3835879Y7355095D01*
X-3834972Y7359292D01*
X-3833929Y7363457D01*
X-3832750Y7367585D01*
X-3831437Y7371672D01*
X-3829990Y7375715D01*
X-3828412Y7379708D01*
X-3826705Y7383647D01*
X-3824869Y7387528D01*
X-3822908Y7391347D01*
X-3820822Y7395100D01*
X-3818615Y7398782D01*
X-3816288Y7402390D01*
X-3813845Y7405921D01*
X-3811287Y7409369D01*
X-3808618Y7412732D01*
X-3805841Y7416006D01*
X-3802958Y7419187D01*
X-3799972Y7422272D01*
X-3796887Y7425258D01*
X-3793706Y7428141D01*
X-3790432Y7430918D01*
X-3787069Y7433587D01*
X-3783621Y7436145D01*
X-3780090Y7438588D01*
X-3776482Y7440915D01*
X-3772799Y7443122D01*
X-3769047Y7445208D01*
X-3765228Y7447169D01*
X-3761347Y7449005D01*
X-3757408Y7450712D01*
X-3753415Y7452290D01*
X-3749372Y7453737D01*
X-3745285Y7455050D01*
X-3741157Y7456229D01*
X-3736992Y7457272D01*
X-3732795Y7458179D01*
X-3728571Y7458947D01*
X-3724325Y7459577D01*
X-3720059Y7460068D01*
X-3715780Y7460419D01*
X-3711492Y7460629D01*
X-3707200Y7460700D01*
X-2769599Y7460700D01*
X-2765307Y7460629D01*
G37*
G36*
X-1008789Y7415033D02*
G01*
X-873143Y7336717D01*
X-762387Y7225962D01*
X-684072Y7090315D01*
X-643533Y6939021D01*
X-643533Y6232389D01*
X-684072Y6081095D01*
X-762387Y5945448D01*
X-873143Y5834693D01*
X-1008789Y5756377D01*
X-1160084Y5715838D01*
X-1316715Y5715838D01*
X-1468010Y5756377D01*
X-1603656Y5834693D01*
X-1714412Y5945448D01*
X-1792727Y6081095D01*
X-1833266Y6232389D01*
X-1833266Y6939021D01*
X-1792727Y7090315D01*
X-1714412Y7225962D01*
X-1603656Y7336717D01*
X-1468010Y7415033D01*
X-1316715Y7455572D01*
X-1160084Y7455572D01*
X-1008789Y7415033D01*
G37*
G36*
X-129000Y2281600D02*
G01*
X-1509000Y2281600D01*
X-1509000Y3381600D01*
X-129000Y3381600D01*
X-129000Y2281600D01*
G37*
G36*
X-128999Y4007599D02*
G01*
X-1508999Y4007599D01*
X-1508999Y5107599D01*
X-128999Y5107599D01*
X-128999Y4007599D01*
G37*
G36*
X4940335Y-6225156D02*
G01*
X4943767Y-6225324D01*
X4947191Y-6225605D01*
X4950605Y-6225998D01*
X4954004Y-6226502D01*
X4957384Y-6227117D01*
X4960743Y-6227842D01*
X4964075Y-6228677D01*
X4967379Y-6229621D01*
X4970651Y-6230672D01*
X4973886Y-6231829D01*
X4977081Y-6233092D01*
X4980234Y-6234459D01*
X4983340Y-6235928D01*
X4986396Y-6237498D01*
X4989400Y-6239167D01*
X4992347Y-6240933D01*
X4995234Y-6242795D01*
X4998060Y-6244751D01*
X5000819Y-6246797D01*
X5003511Y-6248933D01*
X5006131Y-6251156D01*
X5008677Y-6253464D01*
X5011146Y-6255853D01*
X5013535Y-6258322D01*
X5015843Y-6260868D01*
X5018066Y-6263488D01*
X5020202Y-6266180D01*
X5022248Y-6268939D01*
X5024204Y-6271765D01*
X5026066Y-6274652D01*
X5027832Y-6277600D01*
X5029501Y-6280603D01*
X5031071Y-6283659D01*
X5032540Y-6286765D01*
X5033907Y-6289918D01*
X5035170Y-6293113D01*
X5036327Y-6296348D01*
X5037378Y-6299620D01*
X5038322Y-6302924D01*
X5039157Y-6306256D01*
X5039882Y-6309615D01*
X5040497Y-6312995D01*
X5041001Y-6316394D01*
X5041394Y-6319808D01*
X5041675Y-6323232D01*
X5041843Y-6326664D01*
X5041900Y-6330100D01*
X5041900Y-7520099D01*
X5041843Y-7523535D01*
X5041675Y-7526967D01*
X5041394Y-7530391D01*
X5041001Y-7533805D01*
X5040497Y-7537204D01*
X5039882Y-7540584D01*
X5039157Y-7543943D01*
X5038322Y-7547275D01*
X5037378Y-7550579D01*
X5036327Y-7553851D01*
X5035170Y-7557086D01*
X5033907Y-7560281D01*
X5032540Y-7563434D01*
X5031071Y-7566540D01*
X5029501Y-7569596D01*
X5027832Y-7572600D01*
X5026066Y-7575547D01*
X5024204Y-7578434D01*
X5022248Y-7581260D01*
X5020202Y-7584019D01*
X5018066Y-7586711D01*
X5015843Y-7589331D01*
X5013535Y-7591877D01*
X5011146Y-7594346D01*
X5008677Y-7596735D01*
X5006131Y-7599043D01*
X5003511Y-7601266D01*
X5000819Y-7603402D01*
X4998060Y-7605448D01*
X4995234Y-7607404D01*
X4992347Y-7609266D01*
X4989400Y-7611032D01*
X4986396Y-7612701D01*
X4983340Y-7614271D01*
X4980234Y-7615740D01*
X4977081Y-7617107D01*
X4973886Y-7618370D01*
X4970651Y-7619527D01*
X4967379Y-7620578D01*
X4964075Y-7621522D01*
X4960743Y-7622357D01*
X4957384Y-7623082D01*
X4954004Y-7623697D01*
X4950605Y-7624201D01*
X4947191Y-7624594D01*
X4943767Y-7624875D01*
X4940335Y-7625043D01*
X4936900Y-7625100D01*
X4171900Y-7625100D01*
X4168464Y-7625043D01*
X4165032Y-7624875D01*
X4161608Y-7624594D01*
X4158194Y-7624201D01*
X4154795Y-7623697D01*
X4151415Y-7623082D01*
X4148056Y-7622357D01*
X4144724Y-7621522D01*
X4141420Y-7620578D01*
X4138148Y-7619527D01*
X4134913Y-7618370D01*
X4131718Y-7617107D01*
X4128565Y-7615740D01*
X4125459Y-7614271D01*
X4122403Y-7612701D01*
X4119400Y-7611032D01*
X4116452Y-7609266D01*
X4113565Y-7607404D01*
X4110739Y-7605448D01*
X4107980Y-7603402D01*
X4105288Y-7601266D01*
X4102668Y-7599043D01*
X4100122Y-7596735D01*
X4097653Y-7594346D01*
X4095264Y-7591877D01*
X4092956Y-7589331D01*
X4090733Y-7586711D01*
X4088597Y-7584019D01*
X4086551Y-7581260D01*
X4084595Y-7578434D01*
X4082733Y-7575547D01*
X4080967Y-7572600D01*
X4079298Y-7569596D01*
X4077728Y-7566540D01*
X4076259Y-7563434D01*
X4074892Y-7560281D01*
X4073629Y-7557086D01*
X4072472Y-7553851D01*
X4071421Y-7550579D01*
X4070477Y-7547275D01*
X4069642Y-7543943D01*
X4068917Y-7540584D01*
X4068302Y-7537204D01*
X4067798Y-7533805D01*
X4067405Y-7530391D01*
X4067124Y-7526967D01*
X4066956Y-7523535D01*
X4066900Y-7520099D01*
X4066900Y-6330100D01*
X4066956Y-6326664D01*
X4067124Y-6323232D01*
X4067405Y-6319808D01*
X4067798Y-6316394D01*
X4068302Y-6312995D01*
X4068917Y-6309615D01*
X4069642Y-6306256D01*
X4070477Y-6302924D01*
X4071421Y-6299620D01*
X4072472Y-6296348D01*
X4073629Y-6293113D01*
X4074892Y-6289918D01*
X4076259Y-6286765D01*
X4077728Y-6283659D01*
X4079298Y-6280603D01*
X4080967Y-6277600D01*
X4082733Y-6274652D01*
X4084595Y-6271765D01*
X4086551Y-6268939D01*
X4088597Y-6266180D01*
X4090733Y-6263488D01*
X4092956Y-6260868D01*
X4095264Y-6258322D01*
X4097653Y-6255853D01*
X4100122Y-6253464D01*
X4102668Y-6251156D01*
X4105288Y-6248933D01*
X4107980Y-6246797D01*
X4110739Y-6244751D01*
X4113565Y-6242795D01*
X4116452Y-6240933D01*
X4119400Y-6239167D01*
X4122403Y-6237498D01*
X4125459Y-6235928D01*
X4128565Y-6234459D01*
X4131718Y-6233092D01*
X4134913Y-6231829D01*
X4138148Y-6230672D01*
X4141420Y-6229621D01*
X4144724Y-6228677D01*
X4148056Y-6227842D01*
X4151415Y-6227117D01*
X4154795Y-6226502D01*
X4158194Y-6225998D01*
X4161608Y-6225605D01*
X4165032Y-6225324D01*
X4168464Y-6225156D01*
X4171900Y-6225099D01*
X4936900Y-6225099D01*
X4940335Y-6225156D01*
G37*
G36*
X3065335Y-6225156D02*
G01*
X3068767Y-6225324D01*
X3072191Y-6225605D01*
X3075605Y-6225998D01*
X3079004Y-6226502D01*
X3082384Y-6227117D01*
X3085743Y-6227842D01*
X3089075Y-6228677D01*
X3092379Y-6229621D01*
X3095651Y-6230672D01*
X3098886Y-6231829D01*
X3102081Y-6233092D01*
X3105234Y-6234459D01*
X3108340Y-6235928D01*
X3111396Y-6237498D01*
X3114400Y-6239167D01*
X3117347Y-6240933D01*
X3120234Y-6242795D01*
X3123060Y-6244751D01*
X3125819Y-6246797D01*
X3128511Y-6248933D01*
X3131131Y-6251156D01*
X3133677Y-6253464D01*
X3136146Y-6255853D01*
X3138535Y-6258322D01*
X3140843Y-6260868D01*
X3143066Y-6263488D01*
X3145202Y-6266180D01*
X3147248Y-6268939D01*
X3149204Y-6271765D01*
X3151066Y-6274652D01*
X3152832Y-6277600D01*
X3154501Y-6280603D01*
X3156071Y-6283659D01*
X3157540Y-6286765D01*
X3158907Y-6289918D01*
X3160170Y-6293113D01*
X3161327Y-6296348D01*
X3162378Y-6299620D01*
X3163322Y-6302924D01*
X3164157Y-6306256D01*
X3164882Y-6309615D01*
X3165497Y-6312995D01*
X3166001Y-6316394D01*
X3166394Y-6319808D01*
X3166675Y-6323232D01*
X3166843Y-6326664D01*
X3166899Y-6330100D01*
X3166899Y-7520099D01*
X3166843Y-7523535D01*
X3166675Y-7526967D01*
X3166394Y-7530391D01*
X3166001Y-7533805D01*
X3165497Y-7537204D01*
X3164882Y-7540584D01*
X3164157Y-7543943D01*
X3163322Y-7547275D01*
X3162378Y-7550579D01*
X3161327Y-7553851D01*
X3160170Y-7557086D01*
X3158907Y-7560281D01*
X3157540Y-7563434D01*
X3156071Y-7566540D01*
X3154501Y-7569596D01*
X3152832Y-7572600D01*
X3151066Y-7575547D01*
X3149204Y-7578434D01*
X3147248Y-7581260D01*
X3145202Y-7584019D01*
X3143066Y-7586711D01*
X3140843Y-7589331D01*
X3138535Y-7591877D01*
X3136146Y-7594346D01*
X3133677Y-7596735D01*
X3131131Y-7599043D01*
X3128511Y-7601266D01*
X3125819Y-7603402D01*
X3123060Y-7605448D01*
X3120234Y-7607404D01*
X3117347Y-7609266D01*
X3114400Y-7611032D01*
X3111396Y-7612701D01*
X3108340Y-7614271D01*
X3105234Y-7615740D01*
X3102081Y-7617107D01*
X3098886Y-7618370D01*
X3095651Y-7619527D01*
X3092379Y-7620578D01*
X3089075Y-7621522D01*
X3085743Y-7622357D01*
X3082384Y-7623082D01*
X3079004Y-7623697D01*
X3075605Y-7624201D01*
X3072191Y-7624594D01*
X3068767Y-7624875D01*
X3065335Y-7625043D01*
X3061899Y-7625100D01*
X2296900Y-7625100D01*
X2293464Y-7625043D01*
X2290032Y-7624875D01*
X2286608Y-7624594D01*
X2283194Y-7624201D01*
X2279795Y-7623697D01*
X2276415Y-7623082D01*
X2273056Y-7622357D01*
X2269724Y-7621522D01*
X2266420Y-7620578D01*
X2263148Y-7619527D01*
X2259913Y-7618370D01*
X2256718Y-7617107D01*
X2253565Y-7615740D01*
X2250459Y-7614271D01*
X2247403Y-7612701D01*
X2244399Y-7611032D01*
X2241452Y-7609266D01*
X2238565Y-7607404D01*
X2235739Y-7605448D01*
X2232980Y-7603402D01*
X2230288Y-7601266D01*
X2227668Y-7599043D01*
X2225122Y-7596735D01*
X2222653Y-7594346D01*
X2220264Y-7591877D01*
X2217956Y-7589331D01*
X2215733Y-7586711D01*
X2213597Y-7584019D01*
X2211551Y-7581260D01*
X2209595Y-7578434D01*
X2207733Y-7575547D01*
X2205967Y-7572600D01*
X2204298Y-7569596D01*
X2202728Y-7566540D01*
X2201259Y-7563434D01*
X2199892Y-7560281D01*
X2198629Y-7557086D01*
X2197472Y-7553851D01*
X2196421Y-7550579D01*
X2195477Y-7547275D01*
X2194642Y-7543943D01*
X2193917Y-7540584D01*
X2193302Y-7537204D01*
X2192798Y-7533805D01*
X2192405Y-7530391D01*
X2192124Y-7526967D01*
X2191956Y-7523535D01*
X2191900Y-7520099D01*
X2191900Y-6330100D01*
X2191956Y-6326664D01*
X2192124Y-6323232D01*
X2192405Y-6319808D01*
X2192798Y-6316394D01*
X2193302Y-6312995D01*
X2193917Y-6309615D01*
X2194642Y-6306256D01*
X2195477Y-6302924D01*
X2196421Y-6299620D01*
X2197472Y-6296348D01*
X2198629Y-6293113D01*
X2199892Y-6289918D01*
X2201259Y-6286765D01*
X2202728Y-6283659D01*
X2204298Y-6280603D01*
X2205967Y-6277600D01*
X2207733Y-6274652D01*
X2209595Y-6271765D01*
X2211551Y-6268939D01*
X2213597Y-6266180D01*
X2215733Y-6263488D01*
X2217956Y-6260868D01*
X2220264Y-6258322D01*
X2222653Y-6255853D01*
X2225122Y-6253464D01*
X2227668Y-6251156D01*
X2230288Y-6248933D01*
X2232980Y-6246797D01*
X2235739Y-6244751D01*
X2238565Y-6242795D01*
X2241452Y-6240933D01*
X2244399Y-6239167D01*
X2247403Y-6237498D01*
X2250459Y-6235928D01*
X2253565Y-6234459D01*
X2256718Y-6233092D01*
X2259913Y-6231829D01*
X2263148Y-6230672D01*
X2266420Y-6229621D01*
X2269724Y-6228677D01*
X2273056Y-6227842D01*
X2276415Y-6227117D01*
X2279795Y-6226502D01*
X2283194Y-6225998D01*
X2286608Y-6225605D01*
X2290032Y-6225324D01*
X2293464Y-6225156D01*
X2296900Y-6225099D01*
X3061899Y-6225099D01*
X3065335Y-6225156D01*
G37*
G36*
X-6811753Y-3570196D02*
G01*
X-6630890Y-3674617D01*
X-6483217Y-3822290D01*
X-6378796Y-4003153D01*
X-6324744Y-4204879D01*
X-6324744Y-4413720D01*
X-6378796Y-4615446D01*
X-6483217Y-4796309D01*
X-6630890Y-4943982D01*
X-6811753Y-5048403D01*
X-7013479Y-5102455D01*
X-7222320Y-5102455D01*
X-7424046Y-5048403D01*
X-7604909Y-4943982D01*
X-7752582Y-4796309D01*
X-7857003Y-4615446D01*
X-7911055Y-4413720D01*
X-7911055Y-4204879D01*
X-7857003Y-4003153D01*
X-7752582Y-3822290D01*
X-7604909Y-3674617D01*
X-7424046Y-3570196D01*
X-7222320Y-3516144D01*
X-7013479Y-3516144D01*
X-6811753Y-3570196D01*
G37*
G36*
X2985546Y8025203D02*
G01*
X3166409Y7920782D01*
X3314082Y7773109D01*
X3418503Y7592246D01*
X3472555Y7390520D01*
X3472555Y7181679D01*
X3418503Y6979953D01*
X3314082Y6799090D01*
X3166409Y6651417D01*
X2985546Y6546996D01*
X2783820Y6492944D01*
X2574979Y6492944D01*
X2373253Y6546996D01*
X2192390Y6651417D01*
X2044717Y6799090D01*
X1940296Y6979953D01*
X1886244Y7181679D01*
X1886244Y7390520D01*
X1940296Y7592246D01*
X2044717Y7773109D01*
X2192390Y7920782D01*
X2373253Y8025203D01*
X2574979Y8079255D01*
X2783820Y8079255D01*
X2985546Y8025203D01*
G37*
G36*
X2917746Y-3570196D02*
G01*
X3098609Y-3674617D01*
X3246282Y-3822290D01*
X3350703Y-4003153D01*
X3404755Y-4204879D01*
X3404755Y-4413720D01*
X3350703Y-4615446D01*
X3246282Y-4796309D01*
X3098609Y-4943982D01*
X2917746Y-5048403D01*
X2716020Y-5102455D01*
X2507179Y-5102455D01*
X2305453Y-5048403D01*
X2124590Y-4943982D01*
X1976917Y-4796309D01*
X1872496Y-4615446D01*
X1818444Y-4413720D01*
X1818444Y-4204879D01*
X1872496Y-4003153D01*
X1976917Y-3822290D01*
X2124590Y-3674617D01*
X2305453Y-3570196D01*
X2507179Y-3516144D01*
X2716020Y-3516144D01*
X2917746Y-3570196D01*
G37*
G36*
X2917746Y-1422096D02*
G01*
X3098609Y-1526517D01*
X3246282Y-1674190D01*
X3350703Y-1855053D01*
X3404755Y-2056779D01*
X3404755Y-2265620D01*
X3350703Y-2467346D01*
X3246282Y-2648209D01*
X3098609Y-2795882D01*
X2917746Y-2900303D01*
X2716020Y-2954355D01*
X2507179Y-2954355D01*
X2305453Y-2900303D01*
X2124590Y-2795882D01*
X1976917Y-2648209D01*
X1872496Y-2467346D01*
X1818444Y-2265620D01*
X1818444Y-2056779D01*
X1872496Y-1855053D01*
X1976917Y-1674190D01*
X2124590Y-1526517D01*
X2305453Y-1422096D01*
X2507179Y-1368044D01*
X2716020Y-1368044D01*
X2917746Y-1422096D01*
G37*
G36*
X-6811753Y-1422096D02*
G01*
X-6630890Y-1526517D01*
X-6483217Y-1674190D01*
X-6378796Y-1855053D01*
X-6324744Y-2056779D01*
X-6324744Y-2265620D01*
X-6378796Y-2467346D01*
X-6483217Y-2648209D01*
X-6630890Y-2795882D01*
X-6811753Y-2900303D01*
X-7013479Y-2954355D01*
X-7222320Y-2954355D01*
X-7424046Y-2900303D01*
X-7604909Y-2795882D01*
X-7752582Y-2648209D01*
X-7857003Y-2467346D01*
X-7911055Y-2265620D01*
X-7911055Y-2056779D01*
X-7857003Y-1855053D01*
X-7752582Y-1674190D01*
X-7604909Y-1526517D01*
X-7424046Y-1422096D01*
X-7222320Y-1368044D01*
X-7013479Y-1368044D01*
X-6811753Y-1422096D01*
G37*
G36*
X-6768753Y10154303D02*
G01*
X-6587890Y10049882D01*
X-6440217Y9902209D01*
X-6335796Y9721346D01*
X-6281744Y9519620D01*
X-6281744Y9310779D01*
X-6335796Y9109053D01*
X-6440217Y8928190D01*
X-6587890Y8780517D01*
X-6768753Y8676096D01*
X-6970479Y8622044D01*
X-7179320Y8622044D01*
X-7381046Y8676096D01*
X-7561909Y8780517D01*
X-7709582Y8928190D01*
X-7814003Y9109053D01*
X-7868055Y9310779D01*
X-7868055Y9519620D01*
X-7814003Y9721346D01*
X-7709582Y9902209D01*
X-7561909Y10049882D01*
X-7381046Y10154303D01*
X-7179320Y10208355D01*
X-6970479Y10208355D01*
X-6768753Y10154303D01*
G37*
G36*
X2979646Y10154303D02*
G01*
X3160509Y10049882D01*
X3308182Y9902209D01*
X3412603Y9721346D01*
X3466655Y9519620D01*
X3466655Y9310779D01*
X3412603Y9109053D01*
X3308182Y8928190D01*
X3160509Y8780517D01*
X2979646Y8676096D01*
X2777920Y8622044D01*
X2569079Y8622044D01*
X2367353Y8676096D01*
X2186490Y8780517D01*
X2038817Y8928190D01*
X1934396Y9109053D01*
X1880344Y9310779D01*
X1880344Y9519620D01*
X1934396Y9721346D01*
X2038817Y9902209D01*
X2186490Y10049882D01*
X2367353Y10154303D01*
X2569079Y10208355D01*
X2777920Y10208355D01*
X2979646Y10154303D01*
G37*
G36*
X-6811753Y8025203D02*
G01*
X-6630890Y7920782D01*
X-6483217Y7773109D01*
X-6378796Y7592246D01*
X-6324744Y7390520D01*
X-6324744Y7181679D01*
X-6378796Y6979953D01*
X-6483217Y6799090D01*
X-6630890Y6651417D01*
X-6811753Y6546996D01*
X-7013479Y6492944D01*
X-7222320Y6492944D01*
X-7424046Y6546996D01*
X-7604909Y6651417D01*
X-7752582Y6799090D01*
X-7857003Y6979953D01*
X-7911055Y7181679D01*
X-7911055Y7390520D01*
X-7857003Y7592246D01*
X-7752582Y7773109D01*
X-7604909Y7920782D01*
X-7424046Y8025203D01*
X-7222320Y8079255D01*
X-7013479Y8079255D01*
X-6811753Y8025203D01*
G37*
%TD*%
M02*
