%TF.GenerationSoftware,Flux,Pcbnew,7.0.11-7.0.11~ubuntu20.04.1*%
%TF.CreationDate,2025-02-07T02:19:33+00:00*%
%TF.ProjectId,input,696e7075-742e-46b6-9963-61645f706362,rev?*%
%TF.SameCoordinates,Original*%
%TF.FileFunction,Paste,Top*%
%TF.FilePolarity,Positive*%
%FSLAX46Y46*%
G04 Gerber Fmt 4.6, Leading zero omitted, Abs format (unit mm)*
G04 Filename: imu-plus-motor-driver-2*
G04 Build it with Flux! Visit our site at: https://www.flux.ai (PCBNEW 7.0.11-7.0.11~ubuntu20.04.1) date 2025-02-07 02:19:33*
%MOMM*%
%LPD*%
G01*
G04 APERTURE LIST*
G04 Aperture macros list*
%AMFreePoly0*
4,1,101,0.414367,0.699775,0.421205,0.699102,0.427984,0.697982,0.434676,0.696422,0.441251,0.694428,0.447682,0.692007,0.453940,0.689172,0.460000,0.685933,0.465835,0.682304,0.471420,0.678302,0.476731,0.673943,0.481746,0.669246,0.486443,0.664231,0.490802,0.658920,0.494804,0.653335,0.498433,0.647500,0.501672,0.641440,0.504507,0.635182,0.506928,0.628751,0.508922,0.622176,
0.510482,0.615484,0.511602,0.608705,0.512275,0.601867,0.512500,0.595000,0.512500,-0.595000,0.512275,-0.601867,0.511602,-0.608705,0.510482,-0.615484,0.508922,-0.622176,0.506928,-0.628751,0.504507,-0.635182,0.501672,-0.641440,0.498433,-0.647500,0.494804,-0.653335,0.490802,-0.658920,0.486443,-0.664231,0.481746,-0.669246,0.476731,-0.673943,0.471420,-0.678302,0.465835,-0.682304,
0.460000,-0.685933,0.453940,-0.689172,0.447682,-0.692007,0.441251,-0.694428,0.434676,-0.696422,0.427984,-0.697982,0.421205,-0.699102,0.414367,-0.699775,0.407500,-0.700000,-0.407500,-0.700000,-0.414367,-0.699775,-0.421205,-0.699102,-0.427984,-0.697982,-0.434676,-0.696422,-0.441251,-0.694428,-0.447682,-0.692007,-0.453940,-0.689172,-0.460000,-0.685933,-0.465835,-0.682304,-0.471420,-0.678302,
-0.476731,-0.673943,-0.481746,-0.669246,-0.486443,-0.664231,-0.490802,-0.658920,-0.494804,-0.653335,-0.498433,-0.647500,-0.501672,-0.641440,-0.504507,-0.635182,-0.506928,-0.628751,-0.508922,-0.622176,-0.510482,-0.615484,-0.511602,-0.608705,-0.512275,-0.601867,-0.512500,-0.595000,-0.512500,0.595000,-0.512275,0.601867,-0.511602,0.608705,-0.510482,0.615484,-0.508922,0.622176,-0.506928,0.628751,
-0.504507,0.635182,-0.501672,0.641440,-0.498433,0.647500,-0.494804,0.653335,-0.490802,0.658920,-0.486443,0.664231,-0.481746,0.669246,-0.476731,0.673943,-0.471420,0.678302,-0.465835,0.682304,-0.460000,0.685933,-0.453940,0.689172,-0.447682,0.692007,-0.441251,0.694428,-0.434676,0.696422,-0.427984,0.697982,-0.421205,0.699102,-0.414367,0.699775,-0.407500,0.700000,0.407500,0.700000,
0.414367,0.699775,0.414367,0.699775,$1*%
%AMFreePoly1*
4,1,5,0.377800,-0.685000,-0.377800,-0.685000,-0.377800,0.685000,0.377800,0.685000,0.377800,-0.685000,0.377800,-0.685000,$1*%
%AMFreePoly2*
4,1,101,0.398409,0.724767,0.405488,0.724070,0.412506,0.722911,0.419434,0.721296,0.426240,0.719231,0.432898,0.716726,0.439377,0.713790,0.445650,0.710437,0.451690,0.706681,0.457472,0.702538,0.462971,0.698025,0.468163,0.693163,0.473025,0.687971,0.477538,0.682472,0.481681,0.676690,0.485437,0.670650,0.488790,0.664377,0.491726,0.657898,0.494231,0.651240,0.496296,0.644434,
0.497911,0.637506,0.499070,0.630488,0.499767,0.623409,0.500000,0.616300,0.500000,-0.616300,0.499767,-0.623409,0.499070,-0.630488,0.497911,-0.637506,0.496296,-0.644434,0.494231,-0.651240,0.491726,-0.657898,0.488790,-0.664377,0.485437,-0.670650,0.481681,-0.676690,0.477538,-0.682472,0.473025,-0.687971,0.468163,-0.693163,0.462971,-0.698025,0.457472,-0.702538,0.451690,-0.706681,
0.445650,-0.710437,0.439377,-0.713790,0.432898,-0.716726,0.426240,-0.719231,0.419434,-0.721296,0.412506,-0.722911,0.405488,-0.724070,0.398409,-0.724767,0.391300,-0.725000,-0.391300,-0.725000,-0.398409,-0.724767,-0.405488,-0.724070,-0.412506,-0.722911,-0.419434,-0.721296,-0.426240,-0.719231,-0.432898,-0.716726,-0.439377,-0.713790,-0.445650,-0.710437,-0.451690,-0.706681,-0.457472,-0.702538,
-0.462971,-0.698025,-0.468163,-0.693163,-0.473025,-0.687971,-0.477538,-0.682472,-0.481681,-0.676690,-0.485437,-0.670650,-0.488790,-0.664377,-0.491726,-0.657898,-0.494231,-0.651240,-0.496296,-0.644434,-0.497911,-0.637506,-0.499070,-0.630488,-0.499767,-0.623409,-0.500000,-0.616300,-0.500000,0.616300,-0.499767,0.623409,-0.499070,0.630488,-0.497911,0.637506,-0.496296,0.644434,-0.494231,0.651240,
-0.491726,0.657898,-0.488790,0.664377,-0.485437,0.670650,-0.481681,0.676690,-0.477538,0.682472,-0.473025,0.687971,-0.468163,0.693163,-0.462971,0.698025,-0.457472,0.702538,-0.451690,0.706681,-0.445650,0.710437,-0.439377,0.713790,-0.432898,0.716726,-0.426240,0.719231,-0.419434,0.721296,-0.412506,0.722911,-0.405488,0.724070,-0.398409,0.724767,-0.391300,0.725000,0.391300,0.725000,
0.398409,0.724767,0.398409,0.724767,$1*%
%AMFreePoly3*
4,1,101,0.389367,0.699775,0.396205,0.699102,0.402984,0.697982,0.409676,0.696422,0.416251,0.694428,0.422682,0.692007,0.428940,0.689172,0.435000,0.685933,0.440835,0.682304,0.446420,0.678302,0.451731,0.673943,0.456746,0.669246,0.461443,0.664231,0.465802,0.658920,0.469804,0.653335,0.473433,0.647500,0.476672,0.641440,0.479507,0.635182,0.481928,0.628751,0.483922,0.622176,
0.485482,0.615484,0.486602,0.608705,0.487275,0.601867,0.487500,0.595000,0.487500,-0.595000,0.487275,-0.601867,0.486602,-0.608705,0.485482,-0.615484,0.483922,-0.622176,0.481928,-0.628751,0.479507,-0.635182,0.476672,-0.641440,0.473433,-0.647500,0.469804,-0.653335,0.465802,-0.658920,0.461443,-0.664231,0.456746,-0.669246,0.451731,-0.673943,0.446420,-0.678302,0.440835,-0.682304,
0.435000,-0.685933,0.428940,-0.689172,0.422682,-0.692007,0.416251,-0.694428,0.409676,-0.696422,0.402984,-0.697982,0.396205,-0.699102,0.389367,-0.699775,0.382500,-0.700000,-0.382500,-0.700000,-0.389367,-0.699775,-0.396205,-0.699102,-0.402984,-0.697982,-0.409676,-0.696422,-0.416251,-0.694428,-0.422682,-0.692007,-0.428940,-0.689172,-0.435000,-0.685933,-0.440835,-0.682304,-0.446420,-0.678302,
-0.451731,-0.673943,-0.456746,-0.669246,-0.461443,-0.664231,-0.465802,-0.658920,-0.469804,-0.653335,-0.473433,-0.647500,-0.476672,-0.641440,-0.479507,-0.635182,-0.481928,-0.628751,-0.483922,-0.622176,-0.485482,-0.615484,-0.486602,-0.608705,-0.487275,-0.601867,-0.487500,-0.595000,-0.487500,0.595000,-0.487275,0.601867,-0.486602,0.608705,-0.485482,0.615484,-0.483922,0.622176,-0.481928,0.628751,
-0.479507,0.635182,-0.476672,0.641440,-0.473433,0.647500,-0.469804,0.653335,-0.465802,0.658920,-0.461443,0.664231,-0.456746,0.669246,-0.451731,0.673943,-0.446420,0.678302,-0.440835,0.682304,-0.435000,0.685933,-0.428940,0.689172,-0.422682,0.692007,-0.416251,0.694428,-0.409676,0.696422,-0.402984,0.697982,-0.396205,0.699102,-0.389367,0.699775,-0.382500,0.700000,0.382500,0.700000,
0.389367,0.699775,0.389367,0.699775,$1*%
%AMFreePoly4*
4,1,5,0.395000,-0.130000,-0.395000,-0.130000,-0.395000,0.130000,0.395000,0.130000,0.395000,-0.130000,0.395000,-0.130000,$1*%
%AMFreePoly5*
4,1,5,0.475000,-0.700000,-0.475000,-0.700000,-0.475000,0.700000,0.475000,0.700000,0.475000,-0.700000,0.475000,-0.700000,$1*%
%AMFreePoly6*
4,1,5,0.800000,-0.800000,-0.800000,-0.800000,-0.800000,0.800000,0.800000,0.800000,0.800000,-0.800000,0.800000,-0.800000,$1*%
G04 Aperture macros list end*
%ADD10FreePoly0,270.000000*%
%ADD11FreePoly1,90.000000*%
%ADD12FreePoly2,180.000000*%
%ADD13FreePoly3,0.000000*%
%ADD14FreePoly4,0.000000*%
%ADD15FreePoly4,180.000000*%
%ADD16FreePoly4,90.000000*%
%ADD17FreePoly4,270.000000*%
%ADD18FreePoly5,180.000000*%
%ADD19FreePoly0,90.000000*%
%ADD20FreePoly6,0.000000*%
G04 APERTURE END LIST*
D10*
%TO.C,*%
X-3238399Y8358600D03*
X-3238401Y10183600D03*
X-5352099Y7966000D03*
X-5352101Y9791000D03*
X-3145799Y2179800D03*
X-3145801Y4004800D03*
X865001Y7966000D03*
X864999Y9791000D03*
X-4954899Y2179800D03*
X-4954901Y4004800D03*
X-7117899Y7966000D03*
X-7117901Y9791000D03*
X2381601Y-6662300D03*
X2381599Y-4837300D03*
D11*
X-6829796Y-3271900D03*
X-6829804Y-1206300D03*
D10*
X2679401Y7966000D03*
X2679399Y9791000D03*
D11*
X-1238396Y2179800D03*
X-1238404Y4245400D03*
D12*
X415500Y-5398503D03*
X-1484500Y-5398497D03*
D13*
X865000Y12158000D03*
X2740000Y12158000D03*
D14*
X-4204500Y-516400D03*
X-4204500Y-1016400D03*
X-4204500Y-1516400D03*
X-4204500Y-2016400D03*
D15*
X-264500Y-2016400D03*
X-264500Y-1516400D03*
X-264500Y-1016400D03*
X-264500Y-516400D03*
D16*
X-984500Y-3236400D03*
D14*
X-4204500Y-2516400D03*
D15*
X-264500Y-16400D03*
D17*
X-2484500Y703600D03*
X-1984500Y703600D03*
D15*
X-264500Y-2516400D03*
D16*
X-2484500Y-3236400D03*
D14*
X-4204500Y-16400D03*
D17*
X-984500Y703600D03*
D16*
X-1984500Y-3236400D03*
D17*
X-2984500Y703600D03*
X-1484500Y703600D03*
D16*
X-3484500Y-3236400D03*
X-1484500Y-3236400D03*
D17*
X-3484500Y703600D03*
D16*
X-2984500Y-3236400D03*
D10*
X-6602799Y-6627300D03*
X-6602801Y-4802300D03*
D12*
X-2888800Y-5398503D03*
X-4788800Y-5398497D03*
D18*
X-5352100Y12157997D03*
X-7252100Y12158003D03*
D10*
X2381601Y-3236400D03*
X2381599Y-1411400D03*
D19*
X-1238403Y10183600D03*
X-1238397Y8358600D03*
D20*
X865000Y6250400D03*
X-5296200Y6250400D03*
%TD*%
M02*
