%TF.GenerationSoftware,Flux,Pcbnew,7.0.11-7.0.11~ubuntu20.04.1*%
%TF.CreationDate,2025-02-07T02:19:33+00:00*%
%TF.ProjectId,input,696e7075-742e-46b6-9963-61645f706362,rev?*%
%TF.SameCoordinates,Original*%
%TF.FileFunction,Profile,NP*%
%FSLAX46Y46*%
G04 Gerber Fmt 4.6, Leading zero omitted, Abs format (unit mm)*
G04 Filename: imu-plus-motor-driver-2*
G04 Build it with Flux! Visit our site at: https://www.flux.ai (PCBNEW 7.0.11-7.0.11~ubuntu20.04.1) date 2025-02-07 02:19:33*
%MOMM*%
%LPD*%
G01*
G04 APERTURE LIST*
%TA.AperFunction,Profile*%
%ADD10C,0.050000*%
%TD*%
G04 APERTURE END LIST*
D10*
X-9113400Y-7855400D02*
X-9137943Y-7855249D01*
X-9137943Y-7855249D02*
X-9162482Y-7854798D01*
X-9162482Y-7854798D02*
X-9187014Y-7854045D01*
X-9187014Y-7854045D02*
X-9211535Y-7852991D01*
X-9211535Y-7852991D02*
X-9236041Y-7851636D01*
X-9236041Y-7851636D02*
X-9260529Y-7849981D01*
X-9260529Y-7849981D02*
X-9284995Y-7848025D01*
X-9284995Y-7848025D02*
X-9309434Y-7845769D01*
X-9309434Y-7845769D02*
X-9333844Y-7843214D01*
X-9333844Y-7843214D02*
X-9358221Y-7840359D01*
X-9358221Y-7840359D02*
X-9382561Y-7837205D01*
X-9382561Y-7837205D02*
X-9406861Y-7833753D01*
X-9406861Y-7833753D02*
X-9431116Y-7830003D01*
X-9431116Y-7830003D02*
X-9455324Y-7825955D01*
X-9455324Y-7825955D02*
X-9479480Y-7821611D01*
X-9479480Y-7821611D02*
X-9503581Y-7816971D01*
X-9503581Y-7816971D02*
X-9527623Y-7812035D01*
X-9527623Y-7812035D02*
X-9551602Y-7806804D01*
X-9551602Y-7806804D02*
X-9575516Y-7801280D01*
X-9575516Y-7801280D02*
X-9599360Y-7795463D01*
X-9599360Y-7795463D02*
X-9623131Y-7789353D01*
X-9623131Y-7789353D02*
X-9646826Y-7782952D01*
X-9646826Y-7782952D02*
X-9670439Y-7776261D01*
X-9670439Y-7776261D02*
X-9693969Y-7769281D01*
X-9693969Y-7769281D02*
X-9717412Y-7762012D01*
X-9717412Y-7762012D02*
X-9740763Y-7754456D01*
X-9740763Y-7754456D02*
X-9764021Y-7746615D01*
X-9764021Y-7746615D02*
X-9787180Y-7738488D01*
X-9787180Y-7738488D02*
X-9810237Y-7730078D01*
X-9810237Y-7730078D02*
X-9833190Y-7721386D01*
X-9833190Y-7721386D02*
X-9856034Y-7712412D01*
X-9856034Y-7712412D02*
X-9878767Y-7703159D01*
X-9878767Y-7703159D02*
X-9901384Y-7693628D01*
X-9901384Y-7693628D02*
X-9923883Y-7683820D01*
X-9923883Y-7683820D02*
X-9946259Y-7673736D01*
X-9946259Y-7673736D02*
X-9968510Y-7663379D01*
X-9968510Y-7663379D02*
X-9990632Y-7652749D01*
X-9990632Y-7652749D02*
X-10012623Y-7641849D01*
X-10012623Y-7641849D02*
X-10034477Y-7630679D01*
X-10034477Y-7630679D02*
X-10056193Y-7619243D01*
X-10056193Y-7619243D02*
X-10077768Y-7607540D01*
X-10077768Y-7607540D02*
X-10099196Y-7595574D01*
X-10099196Y-7595574D02*
X-10120477Y-7583346D01*
X-10120477Y-7583346D02*
X-10141605Y-7570857D01*
X-10141605Y-7570857D02*
X-10162579Y-7558110D01*
X-10162579Y-7558110D02*
X-10183395Y-7545107D01*
X-10183395Y-7545107D02*
X-10204050Y-7531849D01*
X-10204050Y-7531849D02*
X-10224540Y-7518339D01*
X-10224540Y-7518339D02*
X-10244864Y-7504579D01*
X-10244864Y-7504579D02*
X-10265016Y-7490570D01*
X-10265016Y-7490570D02*
X-10284996Y-7476314D01*
X-10284996Y-7476314D02*
X-10304799Y-7461815D01*
X-10304799Y-7461815D02*
X-10324422Y-7447074D01*
X-10324422Y-7447074D02*
X-10343863Y-7432093D01*
X-10343863Y-7432093D02*
X-10363119Y-7416874D01*
X-10363119Y-7416874D02*
X-10382187Y-7401421D01*
X-10382187Y-7401421D02*
X-10401063Y-7385735D01*
X-10401063Y-7385735D02*
X-10419746Y-7369818D01*
X-10419746Y-7369818D02*
X-10438232Y-7353673D01*
X-10438232Y-7353673D02*
X-10456518Y-7337302D01*
X-10456518Y-7337302D02*
X-10474602Y-7320709D01*
X-10474602Y-7320709D02*
X-10492481Y-7303894D01*
X-10492481Y-7303894D02*
X-10510152Y-7286862D01*
X-10510152Y-7286862D02*
X-10527614Y-7269614D01*
X-10527614Y-7269614D02*
X-10544862Y-7252152D01*
X-10544862Y-7252152D02*
X-10561894Y-7234481D01*
X-10561894Y-7234481D02*
X-10578709Y-7216602D01*
X-10578709Y-7216602D02*
X-10595302Y-7198518D01*
X-10595302Y-7198518D02*
X-10611673Y-7180232D01*
X-10611673Y-7180232D02*
X-10627818Y-7161746D01*
X-10627818Y-7161746D02*
X-10643735Y-7143063D01*
X-10643735Y-7143063D02*
X-10659421Y-7124187D01*
X-10659421Y-7124187D02*
X-10674874Y-7105119D01*
X-10674874Y-7105119D02*
X-10690093Y-7085863D01*
X-10690093Y-7085863D02*
X-10705074Y-7066422D01*
X-10705074Y-7066422D02*
X-10719815Y-7046799D01*
X-10719815Y-7046799D02*
X-10734314Y-7026996D01*
X-10734314Y-7026996D02*
X-10748570Y-7007016D01*
X-10748570Y-7007016D02*
X-10762579Y-6986864D01*
X-10762579Y-6986864D02*
X-10776339Y-6966540D01*
X-10776339Y-6966540D02*
X-10789849Y-6946050D01*
X-10789849Y-6946050D02*
X-10803107Y-6925395D01*
X-10803107Y-6925395D02*
X-10816110Y-6904579D01*
X-10816110Y-6904579D02*
X-10828857Y-6883605D01*
X-10828857Y-6883605D02*
X-10841346Y-6862477D01*
X-10841346Y-6862477D02*
X-10853574Y-6841196D01*
X-10853574Y-6841196D02*
X-10865540Y-6819768D01*
X-10865540Y-6819768D02*
X-10877243Y-6798193D01*
X-10877243Y-6798193D02*
X-10888679Y-6776477D01*
X-10888679Y-6776477D02*
X-10899849Y-6754623D01*
X-10899849Y-6754623D02*
X-10910749Y-6732632D01*
X-10910749Y-6732632D02*
X-10921379Y-6710510D01*
X-10921379Y-6710510D02*
X-10931736Y-6688259D01*
X-10931736Y-6688259D02*
X-10941820Y-6665883D01*
X-10941820Y-6665883D02*
X-10951628Y-6643384D01*
X-10951628Y-6643384D02*
X-10961159Y-6620767D01*
X-10961159Y-6620767D02*
X-10970412Y-6598034D01*
X-10970412Y-6598034D02*
X-10979386Y-6575190D01*
X-10979386Y-6575190D02*
X-10988078Y-6552237D01*
X-10988078Y-6552237D02*
X-10996488Y-6529180D01*
X-10996488Y-6529180D02*
X-11004615Y-6506021D01*
X-11004615Y-6506021D02*
X-11012456Y-6482763D01*
X-11012456Y-6482763D02*
X-11020012Y-6459412D01*
X-11020012Y-6459412D02*
X-11027281Y-6435969D01*
X-11027281Y-6435969D02*
X-11034261Y-6412439D01*
X-11034261Y-6412439D02*
X-11040952Y-6388826D01*
X-11040952Y-6388826D02*
X-11047353Y-6365131D01*
X-11047353Y-6365131D02*
X-11053463Y-6341360D01*
X-11053463Y-6341360D02*
X-11059280Y-6317516D01*
X-11059280Y-6317516D02*
X-11064804Y-6293602D01*
X-11064804Y-6293602D02*
X-11070035Y-6269623D01*
X-11070035Y-6269623D02*
X-11074971Y-6245581D01*
X-11074971Y-6245581D02*
X-11079611Y-6221480D01*
X-11079611Y-6221480D02*
X-11083955Y-6197324D01*
X-11083955Y-6197324D02*
X-11088003Y-6173116D01*
X-11088003Y-6173116D02*
X-11091753Y-6148861D01*
X-11091753Y-6148861D02*
X-11095205Y-6124561D01*
X-11095205Y-6124561D02*
X-11098359Y-6100221D01*
X-11098359Y-6100221D02*
X-11101214Y-6075844D01*
X-11101214Y-6075844D02*
X-11103769Y-6051434D01*
X-11103769Y-6051434D02*
X-11106025Y-6026995D01*
X-11106025Y-6026995D02*
X-11107981Y-6002529D01*
X-11107981Y-6002529D02*
X-11109636Y-5978041D01*
X-11109636Y-5978041D02*
X-11110991Y-5953535D01*
X-11110991Y-5953535D02*
X-11112045Y-5929014D01*
X-11112045Y-5929014D02*
X-11112798Y-5904482D01*
X-11112798Y-5904482D02*
X-11113249Y-5879943D01*
X-11113249Y-5879943D02*
X-11113400Y-5855400D01*
X-11113400Y-5855400D02*
X-11113400Y11144600D01*
X-11113400Y11144600D02*
X-11113249Y11169143D01*
X-11113249Y11169143D02*
X-11112798Y11193682D01*
X-11112798Y11193682D02*
X-11112045Y11218214D01*
X-11112045Y11218214D02*
X-11110991Y11242735D01*
X-11110991Y11242735D02*
X-11109636Y11267241D01*
X-11109636Y11267241D02*
X-11107981Y11291729D01*
X-11107981Y11291729D02*
X-11106025Y11316195D01*
X-11106025Y11316195D02*
X-11103769Y11340634D01*
X-11103769Y11340634D02*
X-11101214Y11365044D01*
X-11101214Y11365044D02*
X-11098359Y11389421D01*
X-11098359Y11389421D02*
X-11095205Y11413761D01*
X-11095205Y11413761D02*
X-11091753Y11438061D01*
X-11091753Y11438061D02*
X-11088003Y11462316D01*
X-11088003Y11462316D02*
X-11083955Y11486524D01*
X-11083955Y11486524D02*
X-11079611Y11510680D01*
X-11079611Y11510680D02*
X-11074971Y11534781D01*
X-11074971Y11534781D02*
X-11070035Y11558823D01*
X-11070035Y11558823D02*
X-11064804Y11582802D01*
X-11064804Y11582802D02*
X-11059280Y11606716D01*
X-11059280Y11606716D02*
X-11053463Y11630560D01*
X-11053463Y11630560D02*
X-11047353Y11654331D01*
X-11047353Y11654331D02*
X-11040952Y11678026D01*
X-11040952Y11678026D02*
X-11034261Y11701639D01*
X-11034261Y11701639D02*
X-11027281Y11725169D01*
X-11027281Y11725169D02*
X-11020012Y11748612D01*
X-11020012Y11748612D02*
X-11012456Y11771963D01*
X-11012456Y11771963D02*
X-11004615Y11795221D01*
X-11004615Y11795221D02*
X-10996488Y11818380D01*
X-10996488Y11818380D02*
X-10988078Y11841437D01*
X-10988078Y11841437D02*
X-10979386Y11864390D01*
X-10979386Y11864390D02*
X-10970412Y11887234D01*
X-10970412Y11887234D02*
X-10961159Y11909967D01*
X-10961159Y11909967D02*
X-10951628Y11932584D01*
X-10951628Y11932584D02*
X-10941820Y11955083D01*
X-10941820Y11955083D02*
X-10931736Y11977459D01*
X-10931736Y11977459D02*
X-10921379Y11999710D01*
X-10921379Y11999710D02*
X-10910749Y12021832D01*
X-10910749Y12021832D02*
X-10899849Y12043823D01*
X-10899849Y12043823D02*
X-10888679Y12065677D01*
X-10888679Y12065677D02*
X-10877243Y12087393D01*
X-10877243Y12087393D02*
X-10865540Y12108968D01*
X-10865540Y12108968D02*
X-10853574Y12130396D01*
X-10853574Y12130396D02*
X-10841346Y12151677D01*
X-10841346Y12151677D02*
X-10828857Y12172805D01*
X-10828857Y12172805D02*
X-10816110Y12193779D01*
X-10816110Y12193779D02*
X-10803107Y12214595D01*
X-10803107Y12214595D02*
X-10789849Y12235250D01*
X-10789849Y12235250D02*
X-10776339Y12255740D01*
X-10776339Y12255740D02*
X-10762579Y12276064D01*
X-10762579Y12276064D02*
X-10748570Y12296216D01*
X-10748570Y12296216D02*
X-10734314Y12316196D01*
X-10734314Y12316196D02*
X-10719815Y12335999D01*
X-10719815Y12335999D02*
X-10705074Y12355622D01*
X-10705074Y12355622D02*
X-10690093Y12375063D01*
X-10690093Y12375063D02*
X-10674874Y12394319D01*
X-10674874Y12394319D02*
X-10659421Y12413387D01*
X-10659421Y12413387D02*
X-10643735Y12432263D01*
X-10643735Y12432263D02*
X-10627818Y12450946D01*
X-10627818Y12450946D02*
X-10611673Y12469432D01*
X-10611673Y12469432D02*
X-10595302Y12487718D01*
X-10595302Y12487718D02*
X-10578709Y12505802D01*
X-10578709Y12505802D02*
X-10561894Y12523681D01*
X-10561894Y12523681D02*
X-10544862Y12541352D01*
X-10544862Y12541352D02*
X-10527614Y12558814D01*
X-10527614Y12558814D02*
X-10510152Y12576062D01*
X-10510152Y12576062D02*
X-10492481Y12593094D01*
X-10492481Y12593094D02*
X-10474602Y12609909D01*
X-10474602Y12609909D02*
X-10456518Y12626502D01*
X-10456518Y12626502D02*
X-10438232Y12642873D01*
X-10438232Y12642873D02*
X-10419746Y12659018D01*
X-10419746Y12659018D02*
X-10401063Y12674935D01*
X-10401063Y12674935D02*
X-10382187Y12690621D01*
X-10382187Y12690621D02*
X-10363119Y12706074D01*
X-10363119Y12706074D02*
X-10343863Y12721293D01*
X-10343863Y12721293D02*
X-10324422Y12736274D01*
X-10324422Y12736274D02*
X-10304799Y12751015D01*
X-10304799Y12751015D02*
X-10284996Y12765514D01*
X-10284996Y12765514D02*
X-10265016Y12779770D01*
X-10265016Y12779770D02*
X-10244864Y12793779D01*
X-10244864Y12793779D02*
X-10224540Y12807539D01*
X-10224540Y12807539D02*
X-10204050Y12821049D01*
X-10204050Y12821049D02*
X-10183395Y12834307D01*
X-10183395Y12834307D02*
X-10162579Y12847310D01*
X-10162579Y12847310D02*
X-10141605Y12860057D01*
X-10141605Y12860057D02*
X-10120477Y12872546D01*
X-10120477Y12872546D02*
X-10099196Y12884774D01*
X-10099196Y12884774D02*
X-10077768Y12896740D01*
X-10077768Y12896740D02*
X-10056193Y12908443D01*
X-10056193Y12908443D02*
X-10034477Y12919879D01*
X-10034477Y12919879D02*
X-10012623Y12931049D01*
X-10012623Y12931049D02*
X-9990632Y12941949D01*
X-9990632Y12941949D02*
X-9968510Y12952579D01*
X-9968510Y12952579D02*
X-9946259Y12962936D01*
X-9946259Y12962936D02*
X-9923883Y12973020D01*
X-9923883Y12973020D02*
X-9901384Y12982828D01*
X-9901384Y12982828D02*
X-9878767Y12992359D01*
X-9878767Y12992359D02*
X-9856034Y13001612D01*
X-9856034Y13001612D02*
X-9833190Y13010586D01*
X-9833190Y13010586D02*
X-9810237Y13019278D01*
X-9810237Y13019278D02*
X-9787180Y13027688D01*
X-9787180Y13027688D02*
X-9764021Y13035815D01*
X-9764021Y13035815D02*
X-9740763Y13043656D01*
X-9740763Y13043656D02*
X-9717412Y13051212D01*
X-9717412Y13051212D02*
X-9693969Y13058481D01*
X-9693969Y13058481D02*
X-9670439Y13065461D01*
X-9670439Y13065461D02*
X-9646826Y13072152D01*
X-9646826Y13072152D02*
X-9623131Y13078553D01*
X-9623131Y13078553D02*
X-9599360Y13084663D01*
X-9599360Y13084663D02*
X-9575516Y13090480D01*
X-9575516Y13090480D02*
X-9551602Y13096004D01*
X-9551602Y13096004D02*
X-9527623Y13101235D01*
X-9527623Y13101235D02*
X-9503581Y13106171D01*
X-9503581Y13106171D02*
X-9479480Y13110811D01*
X-9479480Y13110811D02*
X-9455324Y13115155D01*
X-9455324Y13115155D02*
X-9431116Y13119203D01*
X-9431116Y13119203D02*
X-9406861Y13122953D01*
X-9406861Y13122953D02*
X-9382561Y13126405D01*
X-9382561Y13126405D02*
X-9358221Y13129559D01*
X-9358221Y13129559D02*
X-9333844Y13132414D01*
X-9333844Y13132414D02*
X-9309434Y13134969D01*
X-9309434Y13134969D02*
X-9284995Y13137225D01*
X-9284995Y13137225D02*
X-9260529Y13139181D01*
X-9260529Y13139181D02*
X-9236041Y13140836D01*
X-9236041Y13140836D02*
X-9211535Y13142191D01*
X-9211535Y13142191D02*
X-9187014Y13143245D01*
X-9187014Y13143245D02*
X-9162482Y13143998D01*
X-9162482Y13143998D02*
X-9137943Y13144449D01*
X-9137943Y13144449D02*
X-9113400Y13144600D01*
X-9113400Y13144600D02*
X4636600Y13144600D01*
X4636600Y13144600D02*
X4661143Y13144449D01*
X4661143Y13144449D02*
X4685682Y13143998D01*
X4685682Y13143998D02*
X4710214Y13143245D01*
X4710214Y13143245D02*
X4734735Y13142191D01*
X4734735Y13142191D02*
X4759241Y13140836D01*
X4759241Y13140836D02*
X4783729Y13139181D01*
X4783729Y13139181D02*
X4808195Y13137225D01*
X4808195Y13137225D02*
X4832634Y13134969D01*
X4832634Y13134969D02*
X4857044Y13132414D01*
X4857044Y13132414D02*
X4881421Y13129559D01*
X4881421Y13129559D02*
X4905761Y13126405D01*
X4905761Y13126405D02*
X4930061Y13122953D01*
X4930061Y13122953D02*
X4954316Y13119203D01*
X4954316Y13119203D02*
X4978524Y13115155D01*
X4978524Y13115155D02*
X5002680Y13110811D01*
X5002680Y13110811D02*
X5026781Y13106171D01*
X5026781Y13106171D02*
X5050823Y13101235D01*
X5050823Y13101235D02*
X5074802Y13096004D01*
X5074802Y13096004D02*
X5098716Y13090480D01*
X5098716Y13090480D02*
X5122560Y13084663D01*
X5122560Y13084663D02*
X5146331Y13078553D01*
X5146331Y13078553D02*
X5170026Y13072152D01*
X5170026Y13072152D02*
X5193639Y13065461D01*
X5193639Y13065461D02*
X5217169Y13058481D01*
X5217169Y13058481D02*
X5240612Y13051212D01*
X5240612Y13051212D02*
X5263963Y13043656D01*
X5263963Y13043656D02*
X5287221Y13035815D01*
X5287221Y13035815D02*
X5310380Y13027688D01*
X5310380Y13027688D02*
X5333437Y13019278D01*
X5333437Y13019278D02*
X5356390Y13010586D01*
X5356390Y13010586D02*
X5379234Y13001612D01*
X5379234Y13001612D02*
X5401967Y12992359D01*
X5401967Y12992359D02*
X5424584Y12982828D01*
X5424584Y12982828D02*
X5447083Y12973020D01*
X5447083Y12973020D02*
X5469459Y12962936D01*
X5469459Y12962936D02*
X5491710Y12952579D01*
X5491710Y12952579D02*
X5513832Y12941949D01*
X5513832Y12941949D02*
X5535823Y12931049D01*
X5535823Y12931049D02*
X5557677Y12919879D01*
X5557677Y12919879D02*
X5579393Y12908443D01*
X5579393Y12908443D02*
X5600968Y12896740D01*
X5600968Y12896740D02*
X5622396Y12884774D01*
X5622396Y12884774D02*
X5643677Y12872546D01*
X5643677Y12872546D02*
X5664805Y12860057D01*
X5664805Y12860057D02*
X5685779Y12847310D01*
X5685779Y12847310D02*
X5706595Y12834307D01*
X5706595Y12834307D02*
X5727250Y12821049D01*
X5727250Y12821049D02*
X5747740Y12807539D01*
X5747740Y12807539D02*
X5768064Y12793779D01*
X5768064Y12793779D02*
X5788216Y12779770D01*
X5788216Y12779770D02*
X5808196Y12765514D01*
X5808196Y12765514D02*
X5827999Y12751015D01*
X5827999Y12751015D02*
X5847622Y12736274D01*
X5847622Y12736274D02*
X5867063Y12721293D01*
X5867063Y12721293D02*
X5886319Y12706074D01*
X5886319Y12706074D02*
X5905387Y12690621D01*
X5905387Y12690621D02*
X5924263Y12674935D01*
X5924263Y12674935D02*
X5942946Y12659018D01*
X5942946Y12659018D02*
X5961432Y12642873D01*
X5961432Y12642873D02*
X5979718Y12626502D01*
X5979718Y12626502D02*
X5997802Y12609909D01*
X5997802Y12609909D02*
X6015681Y12593094D01*
X6015681Y12593094D02*
X6033352Y12576062D01*
X6033352Y12576062D02*
X6050814Y12558814D01*
X6050814Y12558814D02*
X6068062Y12541352D01*
X6068062Y12541352D02*
X6085094Y12523681D01*
X6085094Y12523681D02*
X6101909Y12505802D01*
X6101909Y12505802D02*
X6118502Y12487718D01*
X6118502Y12487718D02*
X6134873Y12469432D01*
X6134873Y12469432D02*
X6151018Y12450946D01*
X6151018Y12450946D02*
X6166935Y12432263D01*
X6166935Y12432263D02*
X6182621Y12413387D01*
X6182621Y12413387D02*
X6198074Y12394319D01*
X6198074Y12394319D02*
X6213293Y12375063D01*
X6213293Y12375063D02*
X6228274Y12355622D01*
X6228274Y12355622D02*
X6243015Y12335999D01*
X6243015Y12335999D02*
X6257514Y12316196D01*
X6257514Y12316196D02*
X6271770Y12296216D01*
X6271770Y12296216D02*
X6285779Y12276064D01*
X6285779Y12276064D02*
X6299539Y12255740D01*
X6299539Y12255740D02*
X6313049Y12235250D01*
X6313049Y12235250D02*
X6326307Y12214595D01*
X6326307Y12214595D02*
X6339310Y12193779D01*
X6339310Y12193779D02*
X6352057Y12172805D01*
X6352057Y12172805D02*
X6364546Y12151677D01*
X6364546Y12151677D02*
X6376774Y12130396D01*
X6376774Y12130396D02*
X6388740Y12108968D01*
X6388740Y12108968D02*
X6400443Y12087393D01*
X6400443Y12087393D02*
X6411879Y12065677D01*
X6411879Y12065677D02*
X6423049Y12043823D01*
X6423049Y12043823D02*
X6433949Y12021832D01*
X6433949Y12021832D02*
X6444579Y11999710D01*
X6444579Y11999710D02*
X6454936Y11977459D01*
X6454936Y11977459D02*
X6465020Y11955083D01*
X6465020Y11955083D02*
X6474828Y11932584D01*
X6474828Y11932584D02*
X6484359Y11909967D01*
X6484359Y11909967D02*
X6493612Y11887234D01*
X6493612Y11887234D02*
X6502586Y11864390D01*
X6502586Y11864390D02*
X6511278Y11841437D01*
X6511278Y11841437D02*
X6519688Y11818380D01*
X6519688Y11818380D02*
X6527815Y11795221D01*
X6527815Y11795221D02*
X6535656Y11771963D01*
X6535656Y11771963D02*
X6543212Y11748612D01*
X6543212Y11748612D02*
X6550481Y11725169D01*
X6550481Y11725169D02*
X6557461Y11701639D01*
X6557461Y11701639D02*
X6564152Y11678026D01*
X6564152Y11678026D02*
X6570553Y11654331D01*
X6570553Y11654331D02*
X6576663Y11630560D01*
X6576663Y11630560D02*
X6582480Y11606716D01*
X6582480Y11606716D02*
X6588004Y11582802D01*
X6588004Y11582802D02*
X6593235Y11558823D01*
X6593235Y11558823D02*
X6598171Y11534781D01*
X6598171Y11534781D02*
X6602811Y11510680D01*
X6602811Y11510680D02*
X6607155Y11486524D01*
X6607155Y11486524D02*
X6611203Y11462316D01*
X6611203Y11462316D02*
X6614953Y11438061D01*
X6614953Y11438061D02*
X6618405Y11413761D01*
X6618405Y11413761D02*
X6621559Y11389421D01*
X6621559Y11389421D02*
X6624414Y11365044D01*
X6624414Y11365044D02*
X6626969Y11340634D01*
X6626969Y11340634D02*
X6629225Y11316195D01*
X6629225Y11316195D02*
X6631181Y11291729D01*
X6631181Y11291729D02*
X6632836Y11267241D01*
X6632836Y11267241D02*
X6634191Y11242735D01*
X6634191Y11242735D02*
X6635245Y11218214D01*
X6635245Y11218214D02*
X6635998Y11193682D01*
X6635998Y11193682D02*
X6636449Y11169143D01*
X6636449Y11169143D02*
X6636600Y11144600D01*
X6636600Y11144600D02*
X6636600Y-5855400D01*
X6636600Y-5855400D02*
X6636449Y-5879943D01*
X6636449Y-5879943D02*
X6635998Y-5904482D01*
X6635998Y-5904482D02*
X6635245Y-5929014D01*
X6635245Y-5929014D02*
X6634191Y-5953535D01*
X6634191Y-5953535D02*
X6632836Y-5978041D01*
X6632836Y-5978041D02*
X6631181Y-6002529D01*
X6631181Y-6002529D02*
X6629225Y-6026995D01*
X6629225Y-6026995D02*
X6626969Y-6051434D01*
X6626969Y-6051434D02*
X6624414Y-6075844D01*
X6624414Y-6075844D02*
X6621559Y-6100221D01*
X6621559Y-6100221D02*
X6618405Y-6124561D01*
X6618405Y-6124561D02*
X6614953Y-6148861D01*
X6614953Y-6148861D02*
X6611203Y-6173116D01*
X6611203Y-6173116D02*
X6607155Y-6197324D01*
X6607155Y-6197324D02*
X6602811Y-6221480D01*
X6602811Y-6221480D02*
X6598171Y-6245581D01*
X6598171Y-6245581D02*
X6593235Y-6269623D01*
X6593235Y-6269623D02*
X6588004Y-6293602D01*
X6588004Y-6293602D02*
X6582480Y-6317516D01*
X6582480Y-6317516D02*
X6576663Y-6341360D01*
X6576663Y-6341360D02*
X6570553Y-6365131D01*
X6570553Y-6365131D02*
X6564152Y-6388826D01*
X6564152Y-6388826D02*
X6557461Y-6412439D01*
X6557461Y-6412439D02*
X6550481Y-6435969D01*
X6550481Y-6435969D02*
X6543212Y-6459412D01*
X6543212Y-6459412D02*
X6535656Y-6482763D01*
X6535656Y-6482763D02*
X6527815Y-6506021D01*
X6527815Y-6506021D02*
X6519688Y-6529180D01*
X6519688Y-6529180D02*
X6511278Y-6552237D01*
X6511278Y-6552237D02*
X6502586Y-6575190D01*
X6502586Y-6575190D02*
X6493612Y-6598034D01*
X6493612Y-6598034D02*
X6484359Y-6620767D01*
X6484359Y-6620767D02*
X6474828Y-6643384D01*
X6474828Y-6643384D02*
X6465020Y-6665883D01*
X6465020Y-6665883D02*
X6454936Y-6688259D01*
X6454936Y-6688259D02*
X6444579Y-6710510D01*
X6444579Y-6710510D02*
X6433949Y-6732632D01*
X6433949Y-6732632D02*
X6423049Y-6754623D01*
X6423049Y-6754623D02*
X6411879Y-6776477D01*
X6411879Y-6776477D02*
X6400443Y-6798193D01*
X6400443Y-6798193D02*
X6388740Y-6819768D01*
X6388740Y-6819768D02*
X6376774Y-6841196D01*
X6376774Y-6841196D02*
X6364546Y-6862477D01*
X6364546Y-6862477D02*
X6352057Y-6883605D01*
X6352057Y-6883605D02*
X6339310Y-6904579D01*
X6339310Y-6904579D02*
X6326307Y-6925395D01*
X6326307Y-6925395D02*
X6313049Y-6946050D01*
X6313049Y-6946050D02*
X6299539Y-6966540D01*
X6299539Y-6966540D02*
X6285779Y-6986864D01*
X6285779Y-6986864D02*
X6271770Y-7007016D01*
X6271770Y-7007016D02*
X6257514Y-7026996D01*
X6257514Y-7026996D02*
X6243015Y-7046799D01*
X6243015Y-7046799D02*
X6228274Y-7066422D01*
X6228274Y-7066422D02*
X6213293Y-7085863D01*
X6213293Y-7085863D02*
X6198074Y-7105119D01*
X6198074Y-7105119D02*
X6182621Y-7124187D01*
X6182621Y-7124187D02*
X6166935Y-7143063D01*
X6166935Y-7143063D02*
X6151018Y-7161746D01*
X6151018Y-7161746D02*
X6134873Y-7180232D01*
X6134873Y-7180232D02*
X6118502Y-7198518D01*
X6118502Y-7198518D02*
X6101909Y-7216602D01*
X6101909Y-7216602D02*
X6085094Y-7234481D01*
X6085094Y-7234481D02*
X6068062Y-7252152D01*
X6068062Y-7252152D02*
X6050814Y-7269614D01*
X6050814Y-7269614D02*
X6033352Y-7286862D01*
X6033352Y-7286862D02*
X6015681Y-7303894D01*
X6015681Y-7303894D02*
X5997802Y-7320709D01*
X5997802Y-7320709D02*
X5979718Y-7337302D01*
X5979718Y-7337302D02*
X5961432Y-7353673D01*
X5961432Y-7353673D02*
X5942946Y-7369818D01*
X5942946Y-7369818D02*
X5924263Y-7385735D01*
X5924263Y-7385735D02*
X5905387Y-7401421D01*
X5905387Y-7401421D02*
X5886319Y-7416874D01*
X5886319Y-7416874D02*
X5867063Y-7432093D01*
X5867063Y-7432093D02*
X5847622Y-7447074D01*
X5847622Y-7447074D02*
X5827999Y-7461815D01*
X5827999Y-7461815D02*
X5808196Y-7476314D01*
X5808196Y-7476314D02*
X5788216Y-7490570D01*
X5788216Y-7490570D02*
X5768064Y-7504579D01*
X5768064Y-7504579D02*
X5747740Y-7518339D01*
X5747740Y-7518339D02*
X5727250Y-7531849D01*
X5727250Y-7531849D02*
X5706595Y-7545107D01*
X5706595Y-7545107D02*
X5685779Y-7558110D01*
X5685779Y-7558110D02*
X5664805Y-7570857D01*
X5664805Y-7570857D02*
X5643677Y-7583346D01*
X5643677Y-7583346D02*
X5622396Y-7595574D01*
X5622396Y-7595574D02*
X5600968Y-7607540D01*
X5600968Y-7607540D02*
X5579393Y-7619243D01*
X5579393Y-7619243D02*
X5557677Y-7630679D01*
X5557677Y-7630679D02*
X5535823Y-7641849D01*
X5535823Y-7641849D02*
X5513832Y-7652749D01*
X5513832Y-7652749D02*
X5491710Y-7663379D01*
X5491710Y-7663379D02*
X5469459Y-7673736D01*
X5469459Y-7673736D02*
X5447083Y-7683820D01*
X5447083Y-7683820D02*
X5424584Y-7693628D01*
X5424584Y-7693628D02*
X5401967Y-7703159D01*
X5401967Y-7703159D02*
X5379234Y-7712412D01*
X5379234Y-7712412D02*
X5356390Y-7721386D01*
X5356390Y-7721386D02*
X5333437Y-7730078D01*
X5333437Y-7730078D02*
X5310380Y-7738488D01*
X5310380Y-7738488D02*
X5287221Y-7746615D01*
X5287221Y-7746615D02*
X5263963Y-7754456D01*
X5263963Y-7754456D02*
X5240612Y-7762012D01*
X5240612Y-7762012D02*
X5217169Y-7769281D01*
X5217169Y-7769281D02*
X5193639Y-7776261D01*
X5193639Y-7776261D02*
X5170026Y-7782952D01*
X5170026Y-7782952D02*
X5146331Y-7789353D01*
X5146331Y-7789353D02*
X5122560Y-7795463D01*
X5122560Y-7795463D02*
X5098716Y-7801280D01*
X5098716Y-7801280D02*
X5074802Y-7806804D01*
X5074802Y-7806804D02*
X5050823Y-7812035D01*
X5050823Y-7812035D02*
X5026781Y-7816971D01*
X5026781Y-7816971D02*
X5002680Y-7821611D01*
X5002680Y-7821611D02*
X4978524Y-7825955D01*
X4978524Y-7825955D02*
X4954316Y-7830003D01*
X4954316Y-7830003D02*
X4930061Y-7833753D01*
X4930061Y-7833753D02*
X4905761Y-7837205D01*
X4905761Y-7837205D02*
X4881421Y-7840359D01*
X4881421Y-7840359D02*
X4857044Y-7843214D01*
X4857044Y-7843214D02*
X4832634Y-7845769D01*
X4832634Y-7845769D02*
X4808195Y-7848025D01*
X4808195Y-7848025D02*
X4783729Y-7849981D01*
X4783729Y-7849981D02*
X4759241Y-7851636D01*
X4759241Y-7851636D02*
X4734735Y-7852991D01*
X4734735Y-7852991D02*
X4710214Y-7854045D01*
X4710214Y-7854045D02*
X4685682Y-7854798D01*
X4685682Y-7854798D02*
X4661143Y-7855249D01*
X4661143Y-7855249D02*
X4636600Y-7855400D01*
X4636600Y-7855400D02*
X-9113400Y-7855400D01*
M02*
